<?xml version="1.0" encoding="UTF-8"?>
<svg version="1.1" xmlns="http://www.w3.org/2000/svg" width="766" height="508">
<path d="M0 0 C252.78 0 505.56 0 766 0 C766 167.64 766 335.28 766 508 C513.22 508 260.44 508 0 508 C0 340.36 0 172.72 0 0 Z " fill="#F8F0E6" transform="translate(0,0)"/>
<path d="M0 0 C1.10118164 -0.0309375 1.10118164 -0.0309375 2.22460938 -0.0625 C12.04415139 -0.13220394 20.92699645 5.29352699 28.2421875 11.609375 C35.52767062 19.87938286 37.89910406 29.99949243 38.3125 40.6875 C38.35117187 41.51443359 38.38984375 42.34136719 38.4296875 43.19335938 C38.52303092 45.21191073 38.60630961 47.23092331 38.6875 49.25 C49.07877651 53.62527432 59.71440929 52.7862327 70.6875 51.25 C71.0175 51.58 71.3475 51.91 71.6875 52.25 C71.57707919 59.90765834 69.94579339 67.26907015 68.10546875 74.6640625 C67.7222924 76.24494156 67.7222924 76.24494156 67.33137512 77.85775757 C66.51993973 81.19868245 65.69779542 84.53685677 64.875 87.875 C64.33454934 90.089664 63.79483018 92.30450664 63.25585938 94.51953125 C62.46744317 97.75902974 61.67798101 100.9982404 60.88378906 104.23632812 C59.72305508 108.97117402 58.57283404 113.70725556 57.47460938 118.45703125 C57.29360184 119.23960297 57.1125943 120.02217468 56.92610168 120.82846069 C56.60052494 122.24486277 56.2780431 123.66198196 55.95951843 125.07998657 C54.12366529 133.0774888 51.50932691 138.51648745 44.6875 143.25 C40.45285216 145.39461745 36.5265577 145.54066156 31.87133789 145.5246582 C30.71427086 145.5323246 30.71427086 145.5323246 29.53382874 145.54014587 C26.99252491 145.55400742 24.45149331 145.55308776 21.91015625 145.55078125 C20.13805542 145.55466997 18.36595551 145.55900501 16.59385681 145.56376648 C12.88260881 145.57122122 9.17145595 145.57094275 5.46020508 145.56567383 C0.71109914 145.55987914 -4.03761681 145.57681373 -8.78665829 145.6000185 C-12.44558478 145.61477039 -16.10441765 145.61562558 -19.76336861 145.61250877 C-21.51401098 145.61302122 -23.26465869 145.61824455 -25.01527214 145.62832069 C-27.46608501 145.64069662 -29.91614203 145.63388696 -32.36694336 145.62231445 C-33.08557556 145.62995819 -33.80420776 145.63760193 -34.5446167 145.64547729 C-39.97744343 145.58895087 -43.93913039 144.2459056 -48.10546875 140.7421875 C-48.56566406 140.20851562 -49.02585937 139.67484375 -49.5 139.125 C-49.96792969 138.60679687 -50.43585938 138.08859375 -50.91796875 137.5546875 C-55.68775522 129.67184712 -57.01683008 119.59487173 -59.10546875 110.70703125 C-59.45973614 109.20965141 -59.81417542 107.71231222 -60.16877747 106.2150116 C-60.90696571 103.09330812 -61.641914 99.97086308 -62.37475586 96.84790039 C-63.31217743 92.85505797 -64.25952668 88.86464468 -65.20951366 84.87477589 C-65.94251044 81.79001566 -66.66933075 78.70382464 -67.39440346 75.61719322 C-67.74115179 74.14516225 -68.09000991 72.67362652 -68.44106102 71.20261574 C-68.9309136 69.14669768 -69.41216597 67.0889428 -69.89135742 65.03051758 C-70.16654709 63.8629744 -70.44173676 62.69543121 -70.7252655 61.49250793 C-71.29766591 58.33190877 -71.42295063 55.45356167 -71.3125 52.25 C-68.30218256 51.31576355 -67.44599732 51.20550089 -64.3125 52.25 C-61.59026982 52.39963633 -58.91048207 52.48115583 -56.1875 52.5 C-55.465625 52.520625 -54.74375 52.54125 -54 52.5625 C-48.30108325 52.60306169 -43.60306468 51.317577 -38.3125 49.25 C-38.31886475 48.68716309 -38.32522949 48.12432617 -38.33178711 47.54443359 C-38.37810738 33.76906648 -37.65194373 22.6303103 -28.1640625 11.796875 C-19.74042311 3.81658505 -11.50804884 0.07957164 0 0 Z " fill="#B57756" transform="translate(382.3125,69.75)"/>
<path d="M0 0 C2.75251738 1.92783318 4.02380394 3.79913944 5 7 C5.125 9.8125 5.125 9.8125 4 12 C1.4375 13.3125 1.4375 13.3125 -1 14 C-0.67 11.69 -0.34 9.38 0 7 C-18.63775932 6.79959399 -37.04560358 13.79052785 -52.6875 23.703125 C-55 25 -55 25 -58 25 C-58 25.66 -58 26.32 -58 27 C-58.56847656 27.29132813 -59.13695312 27.58265625 -59.72265625 27.8828125 C-66.42736252 31.4422392 -74.04285683 35.60714208 -77 43 C-77.48243075 46.03189266 -77.48243075 46.03189266 -76 49 C-70.9831184 53.86965934 -65.96749212 55.667735 -59.06640625 55.89453125 C-57 56 -57 56 -55 57 C-55.33 58.65 -55.66 60.3 -56 62 C-55.35933594 62.47308594 -54.71867188 62.94617188 -54.05859375 63.43359375 C-46.82094455 68.96699769 -39.79937957 75.03672833 -37 84 C-36.69921875 87.33984375 -36.69921875 87.33984375 -36.6875 90.9375 C-36.67074219 92.12214844 -36.65398437 93.30679688 -36.63671875 94.52734375 C-37 98 -37 98 -40 104 C-34.39 102.02 -28.78 100.04 -23 98 C-22.36137996 93.52965971 -21.87963817 89.92129219 -21.9375 85.5390625 C-21.94523438 84.57355469 -21.95296875 83.60804688 -21.9609375 82.61328125 C-21.97382813 81.62714844 -21.98671875 80.64101563 -22 79.625 C-22.02537582 77.63807365 -22.04645405 75.65108609 -22.0625 73.6640625 C-22.07410156 72.79217285 -22.08570313 71.9202832 -22.09765625 71.02197266 C-22 69 -22 69 -21 68 C-19.00041636 67.95919217 -16.99954746 67.95745644 -15 68 C-11.08605748 75.82788504 -14.46754765 89.88621209 -16 98 C-13.36 97.67 -10.72 97.34 -8 97 C-8.66 96.01 -9.32 95.02 -10 94 C-10 84.43048633 -3.19254537 74.92008485 3 68 C6.16767193 65.31966221 7.3861091 64.98922998 11.5625 65.0625 C15.29802622 66.08127988 16.85638172 66.78457257 19 70 C18.75 72.75 18.75 72.75 18 75 C18.804375 75.144375 19.60875 75.28875 20.4375 75.4375 C23 76 23 76 24 77 C23.9355733 78.60773906 23.79831686 80.21283223 23.625 81.8125 C23.53476562 82.68519531 23.44453125 83.55789063 23.3515625 84.45703125 C23.04111511 86.70260073 22.60050355 88.81681337 22 91 C33.65281641 88.39671123 41.38547594 81.83317911 49.96875 73.8203125 C52 72 52 72 54 71 C52.66197896 74.60236433 51.01142412 77.7314358 49 81 C48.65195312 81.92425781 48.65195312 81.92425781 48.296875 82.8671875 C46.42536568 85.94503113 43.69352675 87.61002644 40.75 89.5625 C40.18925781 89.94857422 39.62851562 90.33464844 39.05078125 90.73242188 C28.52142821 97.86952376 28.52142821 97.86952376 22 97 C19.6951943 95.30723601 19.07145794 94.34638007 18.48828125 91.51953125 C18.40126953 90.17955078 18.40126953 90.17955078 18.3125 88.8125 C18.24675781 87.91144531 18.18101562 87.01039063 18.11328125 86.08203125 C18.05720703 85.05142578 18.05720703 85.05142578 18 84 C14.38518347 86.20415642 11.48372601 88.42676449 8.5625 91.5 C5.33441574 94.85057853 2.13407351 96.89077882 -2 99 C-0.865625 99.61875 0.26875 100.2375 1.4375 100.875 C4.875 102.75 4.875 102.75 6 105 C1 103 1 103 -1.28125 101.96875 C-4.3565115 100.87296717 -7.0599012 100.58945706 -10.3125 100.375 C-11.38113281 100.30023438 -12.44976562 100.22546875 -13.55078125 100.1484375 C-14.76314453 100.07496094 -14.76314453 100.07496094 -16 100 C-16.14695312 101.05960938 -16.14695312 101.05960938 -16.296875 102.140625 C-22.16174148 142.38574329 -22.16174148 142.38574329 -31 158 C-31.433125 158.928125 -31.86625 159.85625 -32.3125 160.8125 C-39.16902842 173.76372034 -48.12333952 186.0019741 -61.91796875 192.05859375 C-68.15035573 193.96227596 -74.51554147 194.84471334 -80.45703125 191.69921875 C-82.62131235 189.95253548 -84.28559794 188.18617855 -86 186 C-86.45246094 185.44441406 -86.90492188 184.88882813 -87.37109375 184.31640625 C-91.98040959 177.15522005 -90.97232365 166.78107074 -89.33984375 158.75390625 C-85.1396109 145.06223811 -77.25532742 132.93079174 -67 123 C-67.60328125 123.04640625 -68.2065625 123.0928125 -68.828125 123.140625 C-75.4158215 123.43813387 -75.4158215 123.43813387 -78.5 121.125 C-81.27664362 117.19142153 -81.62025865 113.73168745 -81 109 C-76.71549706 100.43099412 -68.63297837 95.51556426 -60 92 C-56.375 91.1875 -56.375 91.1875 -54 91 C-55.09884157 94.29652472 -55.91716158 95.05663722 -58.5 97.25 C-59.21671875 97.85972656 -59.9334375 98.46945312 -60.671875 99.09765625 C-63.70398527 101.57523629 -66.79490802 103.96774543 -69.921875 106.32421875 C-74.9034932 110.24366808 -74.9034932 110.24366808 -77 116 C-62.5978963 114.95606053 -53.23501612 110.31340676 -43.7421875 99.4296875 C-40.79666147 95.32180143 -39.32893971 91.29540168 -39.51171875 86.16796875 C-41.58173102 76.97711429 -51.7105408 70.86273873 -59 66 C-60.04285156 65.25878906 -61.08570313 64.51757812 -62.16015625 63.75390625 C-66.97038644 61.0614749 -72.07727784 61.56865221 -77.4375 61.75 C-78.45521484 61.76804687 -79.47292969 61.78609375 -80.52148438 61.8046875 C-83.01531655 61.85152003 -85.50715047 61.91708573 -88 62 C-89.93739958 76.7331681 -91.2976769 91.27039636 -91.3125 106.125 C-91.31765625 107.36137207 -91.3228125 108.59774414 -91.328125 109.87158203 C-91.2618069 118.53912118 -90.71681717 127.03539179 -87 135 C-89.95664493 134.68321661 -90.95887547 134.04244862 -93.0625 131.87109375 C-103.11162085 116.97975539 -96.37973412 86.59900875 -95 70 C-95.33 70 -95.66 70 -96 70 C-96 68.02 -96 66.04 -96 64 C-105.9 64.99 -105.9 64.99 -116 66 C-116.99 68.97 -117.98 71.94 -119 75 C-120.24153804 77.8113292 -121.50710995 80.59452867 -122.8125 83.375 C-126.74467068 91.96657958 -129.63591614 100.71911337 -132.31884766 109.76611328 C-133.46845284 113.53632384 -134.73285072 117.26793973 -136 121 C-137.65 120.67 -139.3 120.34 -141 120 C-142.28887456 115.57624988 -141.61929776 112.62218581 -140.3125 108.25 C-139.97863281 107.10015625 -139.64476562 105.9503125 -139.30078125 104.765625 C-138.08115377 101.23493163 -136.68505602 97.90219264 -135.1394043 94.50732422 C-133.87007461 91.71409177 -132.64368102 88.90417955 -131.421875 86.08984375 C-130.98359375 85.08115234 -130.5453125 84.07246094 -130.09375 83.03320312 C-129.6503125 82.01162109 -129.206875 80.99003906 -128.75 79.9375 C-128.29109375 78.88111328 -127.8321875 77.82472656 -127.359375 76.73632812 C-126.2392462 74.15769828 -125.11946155 71.57891958 -124 69 C-125.22976563 69.3609375 -126.45953125 69.721875 -127.7265625 70.09375 C-129.35925587 70.56291476 -130.9920751 71.0316417 -132.625 71.5 C-133.83736328 71.85771484 -133.83736328 71.85771484 -135.07421875 72.22265625 C-140.65412384 73.81043412 -145.33514633 74.88828456 -151 73 C-151.20568604 73.67764404 -151.41137207 74.35528809 -151.62329102 75.0534668 C-155.48979512 87.76780147 -159.43054941 100.44220808 -163.68994141 113.03076172 C-165.68644556 118.96413348 -167.50439873 124.91788817 -169 131 C-173.875 130.125 -173.875 130.125 -175 129 C-174.7159247 124.64417872 -173.71866417 121.11702613 -172.1171875 117.0625 C-169.7934596 110.77636403 -168.50391797 104.45653077 -167.3125 97.875 C-167.10044922 96.75996094 -166.88839844 95.64492188 -166.66992188 94.49609375 C-163.47792099 77.39824672 -160.12516163 55.02924002 -169.4375 39.25 C-172.90480161 34.51067059 -176.22034157 32.53350221 -181.92578125 31.2890625 C-187.84195074 30.4645869 -192.09401859 32.42907228 -197.1328125 35.14453125 C-199.50038745 36.22925701 -201.43127072 36.32109116 -204 36 C-204.33 33.69 -204.66 31.38 -205 29 C-198.92344633 23.89569492 -192.6257422 22.61960006 -184.98046875 21.4609375 C-177.17274266 20.25345168 -169.5983083 18.13036681 -162 16 C-162.33 17.32 -162.66 18.64 -163 20 C-160.79118862 19.37669158 -158.58297135 18.75127759 -156.375 18.125 C-155.14523437 17.77695313 -153.91546875 17.42890625 -152.6484375 17.0703125 C-150.32338448 16.38823056 -148.01081183 15.66084977 -145.71875 14.875 C-142.97443341 13.99177167 -140.86095362 13.83170861 -138 14 C-137.67 12.68 -137.34 11.36 -137 10 C-135.00045254 9.95745644 -132.99958364 9.95919217 -131 10 C-130.505 10.495 -130.505 10.495 -130 11 C-127.67182036 11.36760731 -125.3381615 11.70241581 -123 12 C-123 11.34 -123 10.68 -123 10 C-122.195625 10.020625 -121.39125 10.04125 -120.5625 10.0625 C-118.06645115 10.29633621 -118.06645115 10.29633621 -117 9 C-115.08661783 8.73677344 -113.16516311 8.53179669 -111.2421875 8.3515625 C-110.05882812 8.23296875 -108.87546875 8.114375 -107.65625 7.9921875 C-105.15938076 7.74972293 -102.66198273 7.51263629 -100.1640625 7.28125 C-93.78447092 6.63224393 -88.77053807 5.73817689 -83 3 C-80.05078125 2.63671875 -80.05078125 2.63671875 -77.3125 2.6875 C-76.40113281 2.69136719 -75.48976563 2.69523438 -74.55078125 2.69921875 C-71.87901456 3.01426628 -70.22662416 3.49879186 -68 5 C-67.0625 7.9375 -67.0625 7.9375 -67 11 C-69.12842493 13.80565104 -71.37573572 14.67957174 -74.6875 15.6875 C-75.49574219 15.93886719 -76.30398438 16.19023437 -77.13671875 16.44921875 C-77.75160156 16.63097656 -78.36648438 16.81273437 -79 17 C-79.13575439 17.67877197 -79.27150879 18.35754395 -79.41137695 19.05688477 C-81.94091797 31.70458984 -84.47045898 44.35229492 -87 57 C-83.7 57 -80.4 57 -77 57 C-77 57.33 -77 57.66 -77 58 C-76.34 58 -75.68 58 -75 58 C-75.433125 57.29875 -75.86625 56.5975 -76.3125 55.875 C-81.95515695 46.26158445 -81.95515695 46.26158445 -81 40 C-72.26474522 21.98553684 -49.56353444 12.98485654 -32 6 C-31.23478027 5.69513672 -30.46956055 5.39027344 -29.68115234 5.07617188 C-20.25410372 1.41064719 -10.21252425 -2.37632143 0 0 Z " fill="#B67857" transform="translate(507,235)"/>
<path d="M0 0 C0.95777344 0.02707031 1.91554688 0.05414063 2.90234375 0.08203125 C3.61519531 0.11683594 4.32804688 0.15164062 5.0625 0.1875 C5.3925 0.8475 5.7225 1.5075 6.0625 2.1875 C5.4025 2.1875 4.7425 2.1875 4.0625 2.1875 C4.0625 2.8475 4.0625 3.5075 4.0625 4.1875 C-0.51369757 4.26506267 -4.45072418 4.08485516 -8.9375 3.1875 C-9.9275 3.5175 -10.9175 3.8475 -11.9375 4.1875 C-10.9475 5.5075 -9.9575 6.8275 -8.9375 8.1875 C-13.6875 12.1875 -13.6875 12.1875 -15.9375 12.1875 C-15.9375 12.5175 -15.9375 12.8475 -15.9375 13.1875 C-14.9475 14.1775 -14.9475 14.1775 -13.9375 15.1875 C-14.54078125 16.1775 -15.1440625 17.1675 -15.765625 18.1875 C-19.74204092 24.74406479 -23.67534836 31.23769869 -26.9375 38.1875 C-26.44121094 37.36507812 -25.94492187 36.54265625 -25.43359375 35.6953125 C-15.68179329 19.67053223 -15.68179329 19.67053223 -11.9375 15.1875 C-11.2775 15.1875 -10.6175 15.1875 -9.9375 15.1875 C-10.081875 16.30125 -10.22625 17.415 -10.375 18.5625 C-10.56425306 20.10395245 -10.75158458 21.64564144 -10.9375 23.1875 C-11.04449219 24.05117188 -11.15148437 24.91484375 -11.26171875 25.8046875 C-11.36097656 26.67351562 -11.46023438 27.54234375 -11.5625 28.4375 C-11.65789062 29.24703125 -11.75328125 30.0565625 -11.8515625 30.890625 C-12.05622863 33.18443147 -12.05622863 33.18443147 -11.3359375 35.296875 C-11.20445312 35.92078125 -11.07296875 36.5446875 -10.9375 37.1875 C-11.5975 38.1775 -12.2575 39.1675 -12.9375 40.1875 C-13.2675 39.5275 -13.5975 38.8675 -13.9375 38.1875 C-13.6590625 39.7653125 -13.6590625 39.7653125 -13.375 41.375 C-12.98670669 44.75869882 -13.05502515 46.95175888 -13.9375 50.1875 C-14.5975 49.8575 -15.2575 49.5275 -15.9375 49.1875 C-16.4325 50.1775 -16.4325 50.1775 -16.9375 51.1875 C-16.2775 51.1875 -15.6175 51.1875 -14.9375 51.1875 C-15.02458038 53.29244301 -15.13275693 55.39652142 -15.25 57.5 C-15.30800781 58.67175781 -15.36601562 59.84351563 -15.42578125 61.05078125 C-15.95354768 64.2858686 -16.36130724 65.27434881 -18.9375 67.1875 C-18.9375 65.2075 -18.9375 63.2275 -18.9375 61.1875 C-25.5375 61.8475 -32.1375 62.5075 -38.9375 63.1875 C-39.9275 66.1575 -40.9175 69.1275 -41.9375 72.1875 C-43.17903804 74.9988292 -44.44460995 77.78202867 -45.75 80.5625 C-49.68217068 89.15407958 -52.57341614 97.90661337 -55.25634766 106.95361328 C-56.40595284 110.72382384 -57.67035072 114.45543973 -58.9375 118.1875 C-60.5875 117.8575 -62.2375 117.5275 -63.9375 117.1875 C-65.22637456 112.76374988 -64.55679776 109.80968581 -63.25 105.4375 C-62.91613281 104.28765625 -62.58226562 103.1378125 -62.23828125 101.953125 C-61.01865377 98.42243163 -59.62255602 95.08969264 -58.0769043 91.69482422 C-56.80757461 88.90159177 -55.58118102 86.09167955 -54.359375 83.27734375 C-53.92109375 82.26865234 -53.4828125 81.25996094 -53.03125 80.22070312 C-52.5878125 79.19912109 -52.144375 78.17753906 -51.6875 77.125 C-51.22859375 76.06861328 -50.7696875 75.01222656 -50.296875 73.92382812 C-49.1767462 71.34519828 -48.05696155 68.76641958 -46.9375 66.1875 C-48.16726563 66.5484375 -49.39703125 66.909375 -50.6640625 67.28125 C-52.29675587 67.75041476 -53.9295751 68.2191417 -55.5625 68.6875 C-56.77486328 69.04521484 -56.77486328 69.04521484 -58.01171875 69.41015625 C-63.59162384 70.99793412 -68.27264633 72.07578456 -73.9375 70.1875 C-74.14318604 70.86514404 -74.34887207 71.54278809 -74.56079102 72.2409668 C-78.42729512 84.95530147 -82.36804941 97.62970808 -86.62744141 110.21826172 C-88.62394556 116.15163348 -90.44189873 122.10538817 -91.9375 128.1875 C-96.8125 127.3125 -96.8125 127.3125 -97.9375 126.1875 C-97.6534247 121.83167872 -96.65616417 118.30452613 -95.0546875 114.25 C-92.7309596 107.96386403 -91.44141797 101.64403077 -90.25 95.0625 C-90.03794922 93.94746094 -89.82589844 92.83242188 -89.60742188 91.68359375 C-86.41542099 74.58574672 -83.06266163 52.21674002 -92.375 36.4375 C-95.84230161 31.69817059 -99.15784157 29.72100221 -104.86328125 28.4765625 C-110.77945074 27.6520869 -115.03151859 29.61657228 -120.0703125 32.33203125 C-122.43788745 33.41675701 -124.36877072 33.50859116 -126.9375 33.1875 C-127.2675 30.8775 -127.5975 28.5675 -127.9375 26.1875 C-121.86094633 21.08319492 -115.5632422 19.80710006 -107.91796875 18.6484375 C-100.11024266 17.44095168 -92.5358083 15.31786681 -84.9375 13.1875 C-85.2675 14.5075 -85.5975 15.8275 -85.9375 17.1875 C-83.72868862 16.56419158 -81.52047135 15.93877759 -79.3125 15.3125 C-78.08273437 14.96445313 -76.85296875 14.61640625 -75.5859375 14.2578125 C-73.26088448 13.57573056 -70.94831183 12.84834977 -68.65625 12.0625 C-65.91193341 11.17927167 -63.79845362 11.01920861 -60.9375 11.1875 C-60.6075 9.8675 -60.2775 8.5475 -59.9375 7.1875 C-57.93795254 7.14495644 -55.93708364 7.14669217 -53.9375 7.1875 C-53.4425 7.6825 -53.4425 7.6825 -52.9375 8.1875 C-50.60932036 8.55510731 -48.2756615 8.88991581 -45.9375 9.1875 C-45.9375 8.5275 -45.9375 7.8675 -45.9375 7.1875 C-44.7309375 7.2184375 -44.7309375 7.2184375 -43.5 7.25 C-41.00395115 7.48383621 -41.00395115 7.48383621 -39.9375 6.1875 C-38.02411783 5.92427344 -36.10266311 5.71929669 -34.1796875 5.5390625 C-32.99632812 5.42046875 -31.81296875 5.301875 -30.59375 5.1796875 C-28.09688076 4.93722293 -25.59948273 4.70013629 -23.1015625 4.46875 C-15.24974344 3.66997187 -7.63569982 -0.2828037 0 0 Z " fill="#B67858" transform="translate(429.9375,237.8125)"/>
<path d="M0 0 C-3.22151791 19.9739894 -7.06187995 39.19847053 -17 57 C-17.67453924 58.32936791 -18.34491865 59.66093665 -19 61 C-19.66 61 -20.32 61 -21 61 C-21.26425781 61.58007812 -21.52851563 62.16015625 -21.80078125 62.7578125 C-26.30500554 71.17939146 -34.71077185 78.70546947 -43.52734375 82.3046875 C-48.02894205 83.57053979 -52.38874615 83.74472126 -57 83 C-59.96415366 81.09447265 -60.74350868 80.05056032 -61.5703125 76.6640625 C-63.32960072 65.75647556 -60.66714822 55.53911967 -58 45 C-57.34 45 -56.68 45 -56 45 C-55.65388672 43.97712891 -55.65388672 43.97712891 -55.30078125 42.93359375 C-53.68092463 39.28040359 -51.53779629 36.27814838 -49.1875 33.0625 C-48.76146484 32.46759766 -48.33542969 31.87269531 -47.89648438 31.25976562 C-43.42595806 25.07136686 -38.92274625 19.57921849 -32.75 15 C-32.17572266 14.56921143 -31.60144531 14.13842285 -31.00976562 13.69458008 C-29.34600835 12.45444745 -27.67350548 11.22692396 -26 10 C-25.21109375 9.40574219 -24.4221875 8.81148438 -23.609375 8.19921875 C-17.25381075 3.64439771 -7.91103461 -2.38978064 0 0 Z " fill="#F8EFE5" transform="translate(484,339)"/>
<path d="M0 0 C0 0.66 0 1.32 0 2 C1.485 2.495 1.485 2.495 3 3 C3.639375 3.721875 4.27875 4.44375 4.9375 5.1875 C12.23984361 12.8227772 24.2703056 16.25049526 34.5 16.5 C47.47550999 16.51214651 58.76709577 11.11627808 68 2 C68.66 1.01 69.32 0.02 70 -1 C70.58007812 -0.79503906 71.16015625 -0.59007813 71.7578125 -0.37890625 C72.92957031 0.02521484 72.92957031 0.02521484 74.125 0.4375 C74.89070313 0.70433594 75.65640625 0.97117187 76.4453125 1.24609375 C81.9216237 2.8621917 87.19709151 3.13402404 92.875 3.0625 C93.90753906 3.05573242 93.90753906 3.05573242 94.9609375 3.04882812 C96.64066335 3.03716336 98.32034375 3.01923271 100 3 C99.73713292 4.77203338 99.46412312 6.54256185 99.1875 8.3125 C98.96126953 9.79169922 98.96126953 9.79169922 98.73046875 11.30078125 C97.74814519 16.27543586 96.38034096 21.12301465 95 26 C94.08057617 25.9685791 94.08057617 25.9685791 93.14257812 25.93652344 C70.81897814 25.27700048 53.54218629 27.6157231 36.546875 43.49609375 C36.03640625 43.99238281 35.5259375 44.48867187 35 45 C34.5153125 44.62488281 34.030625 44.24976563 33.53125 43.86328125 C16.81289057 31.09945684 -0.43147043 24.92690168 -21.6875 27.5 C-23.3271875 27.7475 -23.3271875 27.7475 -25 28 C-31 11.14285714 -31 11.14285714 -31 3 C-30.02160156 3.02320313 -29.04320312 3.04640625 -28.03515625 3.0703125 C-16.12181779 3.47161023 -16.12181779 3.47161023 -4.94921875 -0.1328125 C-3 -1 -3 -1 0 0 Z " fill="#F7EFE5" transform="translate(348,125)"/>
<path d="M0 0 C4.53827505 2.98517648 8.72425906 6.04207884 11.63671875 10.734375 C11.63671875 11.394375 11.63671875 12.054375 11.63671875 12.734375 C12.29671875 12.734375 12.95671875 12.734375 13.63671875 12.734375 C14.93875062 15.22943141 16.22832141 17.72975182 17.51171875 20.234375 C18.05892578 21.27851563 18.05892578 21.27851563 18.6171875 22.34375 C22.25430898 29.485734 23.75216423 35.63131771 23.63671875 43.734375 C16.64425112 43.83605176 9.65197517 43.90595671 2.65893555 43.95410156 C0.28158443 43.97417863 -2.09571755 44.00144613 -4.47290039 44.03613281 C-7.8961197 44.08482114 -11.31868431 44.10738353 -14.7421875 44.125 C-15.79974747 44.14564514 -16.85730743 44.16629028 -17.94691467 44.18756104 C-25.29381054 44.18977958 -29.65960334 43.20774614 -35.14575195 38.06274414 C-37.06887448 34.38501814 -37.90001545 30.50498867 -38.84375 26.48046875 C-39.06146561 25.58320572 -39.27918121 24.68594269 -39.50349426 23.76148987 C-39.96083616 21.86884583 -40.4135923 19.97508856 -40.86206055 18.08032227 C-41.54964402 15.1766775 -42.2510984 12.27666159 -42.95507812 9.37695312 C-43.39794907 7.53665395 -43.84003339 5.69616526 -44.28125 3.85546875 C-44.49057663 2.98667587 -44.69990326 2.117883 -44.91557312 1.22276306 C-45.20135979 0.01119286 -45.20135979 0.01119286 -45.49291992 -1.22485352 C-45.66152023 -1.93448746 -45.83012054 -2.6441214 -46.00382996 -3.3752594 C-46.36328125 -5.265625 -46.36328125 -5.265625 -46.36328125 -8.265625 C-30.17811792 -12.84420124 -13.88137162 -8.49213323 0 0 Z " fill="#F7EDE3" transform="translate(370.36328125,166.265625)"/>
<path d="M0 0 C5.85479618 2.58299832 10.94740847 7.51808625 13.32836914 13.46875 C16.53634379 23.14184938 17.52005691 34.33691352 15.4921875 44.37890625 C12.78424664 48.2810322 9.99738285 49.22943254 5.4921875 50.37890625 C4.66589844 50.70117188 3.83960938 51.0234375 2.98828125 51.35546875 C-6.56849048 54.88365093 -17.16419311 54.38331456 -26.5078125 50.37890625 C-27.2694873 50.052854 -28.03116211 49.72680176 -28.81591797 49.39086914 C-31.55459764 47.95448167 -33.44201045 46.69144344 -35.5078125 44.37890625 C-36.75525598 39.90997604 -36.58627232 35.67402673 -36.3828125 31.06640625 C-36.38410156 29.88111328 -36.38539063 28.69582031 -36.38671875 27.47460938 C-36.20978799 19.07971046 -34.65902914 12.67273928 -28.72412109 6.53393555 C-20.51629836 -1.05957273 -10.85278444 -2.68783914 0 0 Z " fill="#F8EFE6" transform="translate(392.5078125,83.62109375)"/>
<path d="M0 0 C-1.53136103 11.20612793 -3.85844296 22.00596402 -7.09765625 32.8359375 C-7.87312253 35.55510498 -8.47558335 38.22476854 -9 41 C-9.84806602 44.99483731 -11.36557075 47.82318826 -14 51 C-17.24230099 53.09068833 -19.82647965 53.23588851 -23.640625 53.1953125 C-24.71054687 53.18886719 -25.78046875 53.18242187 -26.8828125 53.17578125 C-27.99398438 53.15902344 -29.10515625 53.14226562 -30.25 53.125 C-31.37664062 53.11597656 -32.50328125 53.10695312 -33.6640625 53.09765625 C-36.44292365 53.07410658 -39.2213539 53.0412168 -42 53 C-42.21914063 51.83984375 -42.43828125 50.6796875 -42.6640625 49.484375 C-44.92335448 38.13803307 -47.72628301 28.28100387 -55 19 C-52.14450678 11.54868337 -42.29547717 6.38278866 -35.4375 3.0625 C-25.0720368 -1.22563742 -10.92809952 -3.42359008 0 0 Z " fill="#F8EFE5" transform="translate(441,156)"/>
<path d="M0 0 C1.9609375 0.015625 1.9609375 0.015625 4.375 0.25 C5.16648437 0.31703125 5.95796875 0.3840625 6.7734375 0.453125 C9.43332825 1.1064315 10.36928728 1.81904679 12 4 C17.04957536 16.93400005 11.7520542 35.47382645 9.57324219 48.49121094 C8.02798471 57.94966086 6.72733088 67.44723408 5.42285156 76.94140625 C5.16531368 78.80424374 4.9029197 80.66642923 4.63183594 82.52734375 C3.17209125 92.584331 2.80469614 102.52443577 2.75 112.6875 C2.7406543 113.89470703 2.73130859 115.10191406 2.72167969 116.34570312 C2.74331463 122.2736768 2.9400742 127.41694714 5 133 C1.77570648 132.04142625 0.27437696 131.37236872 -1.75 128.625 C-4.85652131 122.10130524 -4.23337587 115.28469012 -4.25 108.1875 C-4.25167175 107.51993683 -4.25334351 106.85237366 -4.25506592 106.1645813 C-4.25694566 93.59117741 -3.01714942 81.40354029 -1 69 C-0.69636662 67.02367502 -0.39439759 65.0470939 -0.09375 63.0703125 C0.62131384 58.40937148 1.35873781 53.75252439 2.10952759 49.09724426 C2.64991385 45.73764492 3.18251522 42.37683072 3.71435547 39.01586914 C3.98848564 37.29465113 4.26583896 35.57394341 4.54638672 33.85375977 C6.12048195 24.18418641 7.51209734 14.83746414 7 5 C1.57915457 5.85822038 -0.81785006 9.84400619 -4 14 C-6.11785755 17.09017385 -8.04614471 20.26715713 -9.9375 23.5 C-10.71009155 24.80396729 -10.71009155 24.80396729 -11.49829102 26.13427734 C-16.05383134 33.91147418 -20.09571194 41.88199312 -24 50 C-24.91373065 51.79316578 -25.83000507 53.58504007 -26.75 55.375 C-28.68672123 59.24844247 -30.3297901 63.18235649 -31.89453125 67.21875 C-33.69929033 71.75934527 -35.67774211 76.22570992 -37.6328125 80.703125 C-39.90614853 86.18511245 -41.41920436 91.56525739 -42.625 97.375 C-42.88539063 98.62023437 -43.14578125 99.86546875 -43.4140625 101.1484375 C-43.60742188 102.08945312 -43.80078125 103.03046875 -44 104 C-45.875 103.6875 -45.875 103.6875 -48 103 C-50.56938513 99.1459223 -49.99725836 96.51692292 -49.5 92.125 C-49.41177979 91.28727051 -49.32355957 90.44954102 -49.23266602 89.58642578 C-47.94720565 78.34326978 -46.00299828 67.17975843 -44.12109375 56.02392578 C-42.2042988 44.63396757 -40.82554121 33.62761402 -40.875 22.0625 C-40.87113281 21.13115234 -40.86726562 20.19980469 -40.86328125 19.24023438 C-40.86457031 18.34755859 -40.86585938 17.45488281 -40.8671875 16.53515625 C-40.86831543 15.734729 -40.86944336 14.93430176 -40.87060547 14.10961914 C-40.92087037 11.80812924 -40.92087037 11.80812924 -42 9 C-38.72921124 9.5639291 -37.13628438 10.45680431 -35 13 C-29.66848516 23.66302967 -34.65998291 42.81879171 -36.72460938 54.04321289 C-37.09290849 56.3308158 -37.09290849 56.3308158 -37 60 C-35.496928 57.16828659 -33.99776508 54.3345238 -32.5 51.5 C-32.04439697 50.63866455 -31.58879395 49.7773291 -31.11938477 48.88989258 C-28.63675952 44.17676676 -26.21734824 39.44379969 -23.89282227 34.65087891 C-17.58760811 21.69239891 -10.26036506 10.26036506 0 0 Z " fill="#BB8163" transform="translate(252,240)"/>
<path d="M0 0 C-0.625 2.375 -0.625 2.375 -2 5 C-5.125 6.3125 -5.125 6.3125 -8 7 C-7.34 7.33 -6.68 7.66 -6 8 C-7.2932354 11.45269452 -8.80399914 14.49675131 -10.75 17.625 C-15.9648608 26.17686419 -20.59231042 35.00909339 -25 44 C-25.66 44 -26.32 44 -27 44 C-27.12375 44.9075 -27.2475 45.815 -27.375 46.75 C-27.93997244 49.68785667 -28.39903268 51.51979176 -30 54 C-31.8125 54.82128906 -31.8125 54.82128906 -34 55.265625 C-34.80074951 55.43352539 -35.60149902 55.60142578 -36.42651367 55.77441406 C-37.7003894 56.0098291 -37.7003894 56.0098291 -39 56.25 C-39.85762939 56.41983398 -40.71525879 56.58966797 -41.59887695 56.76464844 C-47.48357464 57.87301215 -53.00522278 58.39310015 -59 58 C-56.94432231 46.22657323 -53.70378098 34.49754776 -49.0390625 23.48046875 C-47.28645868 19.29662129 -45.73822945 15.03303983 -44.1484375 10.78515625 C-43 8 -43 8 -41 5 C-38.71264648 4.30810547 -38.71264648 4.30810547 -35.87109375 3.8671875 C-34.83533203 3.70089844 -33.79957031 3.53460938 -32.73242188 3.36328125 C-31.64509766 3.20214844 -30.55777344 3.04101562 -29.4375 2.875 C-28.37724609 2.70613281 -27.31699219 2.53726563 -26.22460938 2.36328125 C-17.45090711 0.98850002 -8.88597852 -0.16156325 0 0 Z " fill="#F7EFE5" transform="translate(417,244)"/>
<path d="M0 0 C0.495 0.99 0.495 0.99 1 2 C0.67 2.66 0.34 3.32 0 4 C0.95261719 3.71125 1.90523438 3.4225 2.88671875 3.125 C4.14097656 2.75375 5.39523437 2.3825 6.6875 2 C7.92886719 1.62875 9.17023438 1.2575 10.44921875 0.875 C13.5010019 0.12296543 15.88898362 -0.19034899 19 0 C16.3224599 2.6775401 13.45224092 3.00411018 9.875 3.8125 C0.42229231 6.05252431 -8.78687262 8.92895754 -18 12 C-17.20335937 12.32871094 -16.40671875 12.65742188 -15.5859375 12.99609375 C-6.22829752 17.19678615 -2.0376265 21.7539374 1.8125 31.125 C4.19892963 37.63344444 4.11191743 44.42303666 4 51.25 C3.81203995 57.20546176 3.81203995 57.20546176 5 63 C4.5625 65.1875 4.5625 65.1875 4 67 C4.495 65.515 4.495 65.515 5 64 C5.66 64 6.32 64 7 64 C7.495 63.01 7.495 63.01 8 62 C7.55406313 69.58196877 5.96277703 76.43910968 3.75 83.6875 C3.43788574 84.73389648 3.12577148 85.78029297 2.80419922 86.85839844 C0.65429318 94.01005923 -1.62082352 101.11205762 -4.0546875 108.171875 C-4.81326964 110.44135216 -5.46825598 112.66937726 -6 115 C-10.875 114.125 -10.875 114.125 -12 113 C-11.7159247 108.64417872 -10.71866417 105.11702613 -9.1171875 101.0625 C-6.7934596 94.77636403 -5.50391797 88.45653077 -4.3125 81.875 C-4.10044922 80.75996094 -3.88839844 79.64492188 -3.66992188 78.49609375 C-0.47792099 61.39824672 2.87483837 39.02924002 -6.4375 23.25 C-9.90480161 18.51067059 -13.22034157 16.53350221 -18.92578125 15.2890625 C-24.84195074 14.4645869 -29.09401859 16.42907228 -34.1328125 19.14453125 C-36.50038745 20.22925701 -38.43127072 20.32109116 -41 20 C-41.33 17.69 -41.66 15.38 -42 13 C-35.92431458 7.89642425 -29.62821602 6.62082382 -21.984375 5.4609375 C-14.46089668 4.2989343 -7.25649119 2.27238764 0 0 Z " fill="#B57656" transform="translate(344,251)"/>
<path d="M0 0 C2.5 1.75 2.5 1.75 4 4 C3.75 6.75 3.75 6.75 3 9 C3.804375 9.144375 4.60875 9.28875 5.4375 9.4375 C8 10 8 10 9 11 C8.9355733 12.60773906 8.79831686 14.21283223 8.625 15.8125 C8.48964844 17.12154297 8.48964844 17.12154297 8.3515625 18.45703125 C8.04111511 20.70260073 7.60050355 22.81681337 7 25 C18.65281641 22.39671123 26.38547594 15.83317911 34.96875 7.8203125 C37 6 37 6 39 5 C37.66197896 8.60236433 36.01142412 11.7314358 34 15 C33.76796875 15.61617188 33.5359375 16.23234375 33.296875 16.8671875 C31.42536568 19.94503113 28.69352675 21.61002644 25.75 23.5625 C25.18925781 23.94857422 24.62851562 24.33464844 24.05078125 24.73242188 C13.52142821 31.86952376 13.52142821 31.86952376 7 31 C4.6951943 29.30723601 4.07145794 28.34638007 3.48828125 25.51953125 C3.43027344 24.62621094 3.37226562 23.73289062 3.3125 22.8125 C3.24675781 21.91144531 3.18101562 21.01039063 3.11328125 20.08203125 C3.07589844 19.39496094 3.03851562 18.70789063 3 18 C-0.61481653 20.20415642 -3.51627399 22.42676449 -6.4375 25.5 C-9.66558426 28.85057853 -12.86592649 30.89077882 -17 33 C-15.865625 33.61875 -14.73125 34.2375 -13.5625 34.875 C-10.125 36.75 -10.125 36.75 -9 39 C-10.67401097 38.35199575 -12.33805262 37.67834587 -14 37 C-14.74765625 36.72027344 -15.4953125 36.44054687 -16.265625 36.15234375 C-22.54185585 33.65197436 -22.54185585 33.65197436 -24.625 30.6875 C-25.97866387 20.98624228 -20.3636578 13.13317017 -14.9375 5.5 C-10.50234335 -0.095651 -7.1999925 -1.96363432 0 0 Z " fill="#B57655" transform="translate(522,301)"/>
<path d="M0 0 C2.375 1.5625 2.375 1.5625 4 3 C3.67 5.31 3.34 7.62 3 10 C3.61875 9.79375 4.2375 9.5875 4.875 9.375 C5.926875 9.189375 5.926875 9.189375 7 9 C7.66 9.66 8.32 10.32 9 11 C8.9765625 14.2578125 8.9765625 14.2578125 8.625 18.125 C8.51414062 19.40632813 8.40328125 20.68765625 8.2890625 22.0078125 C8.14597656 23.48894531 8.14597656 23.48894531 8 25 C20.3719717 21.36259246 29.31001986 14.36227087 38 5 C38.495 6.485 38.495 6.485 39 8 C37.35830472 10.02054804 35.69088222 12.02043058 34 14 C34 14.99 34 15.98 34 17 C28.48647247 23.72950188 18.4265107 30.35964533 9.7890625 31.37890625 C7 31 7 31 5.16796875 29.82421875 C3.64549941 27.44631512 3.49467809 25.61804252 3.3125 22.8125 C3.24675781 21.91144531 3.18101562 21.01039063 3.11328125 20.08203125 C3.07589844 19.39496094 3.03851563 18.70789063 3 18 C-1.95081609 21.59460849 -6.63077423 25.34723917 -11.140625 29.484375 C-13.9742095 31.79410354 -15.92657882 33.07667294 -19.625 32.8125 C-22 32 -22 32 -24 29 C-24.84846782 20.19059955 -20.20753804 13.33882739 -15.1171875 6.453125 C-10.51164278 0.99027109 -7.39575153 -2.00301604 0 0 Z " fill="#B57554" transform="translate(286,301)"/>
<path d="M0 0 C-1.77612816 6.20963227 -3.75674161 12.3434118 -5.8125 18.46484375 C-6.06894287 19.22866364 -6.32538574 19.99248352 -6.58959961 20.77944946 C-7.66119259 23.96664701 -8.73489846 27.15312166 -9.81152344 30.33862305 C-16.20505957 45.48930157 -16.20505957 45.48930157 -17 61 C-17.77734375 64.015625 -17.77734375 64.015625 -18.9375 67.25 C-19.31777344 68.32765625 -19.69804687 69.4053125 -20.08984375 70.515625 C-20.39019531 71.33546875 -20.69054687 72.1553125 -21 73 C-22.00100077 69.89272676 -21.95702916 68.04186335 -21 64.9375 C-20.05298103 61.85376948 -19.92548182 61.22355454 -21 58 C-21.02004549 55.4513592 -20.99472805 52.92164829 -20.9375 50.375 C-20.82996309 38.9018355 -22.78376963 26.65689324 -31 18 C-33.9958867 16.35184132 -33.9958867 16.35184132 -37.25 15.1875 C-38.32765625 14.76855469 -39.4053125 14.34960938 -40.515625 13.91796875 C-41.74539063 13.46357422 -41.74539063 13.46357422 -43 13 C-42.67 12.34 -42.34 11.68 -42 11 C-39.23250687 10.08240398 -36.49769538 9.26200861 -33.6875 8.5 C-32.1487513 8.07649118 -30.61095295 7.64951126 -29.07421875 7.21875 C-28.04687622 6.9393457 -28.04687622 6.9393457 -26.9987793 6.65429688 C-24.87166149 5.95798862 -22.9987811 5.00136465 -21 4 C-18.35650331 3.23836163 -15.73120915 2.53183817 -13.0625 1.875 C-12.35931641 1.69324219 -11.65613281 1.51148438 -10.93164062 1.32421875 C-7.1889383 0.39117393 -3.84350932 -0.08554975 0 0 Z " fill="#F6EDE2" transform="translate(368,251)"/>
<path d="M0 0 C3.27078876 0.5639291 4.86371562 1.45680431 7 4 C12.33151484 14.66302967 7.34001709 33.81879171 5.27539062 45.04321289 C4.90709151 47.3308158 4.90709151 47.3308158 5 51 C5.99 51 6.98 51 8 51 C8.55429688 49.89140625 9.10859375 48.7828125 9.6796875 47.640625 C12.453125 42.09375 15.2265625 36.546875 18 31 C18.66 31 19.32 31 20 31 C21.98 27.37 23.96 23.74 26 20 C26.66 20.33 27.32 20.66 28 21 C27.41992188 22.07636719 26.83984375 23.15273438 26.2421875 24.26171875 C20.27694397 35.38975833 14.65885522 46.54438848 10.0703125 58.32421875 C8.26951951 62.82620122 6.30735264 67.25984524 4.3671875 71.703125 C2.09385147 77.18511245 0.58079564 82.56525739 -0.625 88.375 C-0.88539063 89.62023437 -1.14578125 90.86546875 -1.4140625 92.1484375 C-1.60742188 93.08945312 -1.80078125 94.03046875 -2 95 C-3.875 94.6875 -3.875 94.6875 -6 94 C-8.56938513 90.1459223 -7.99725836 87.51692292 -7.5 83.125 C-7.41177979 82.28727051 -7.32355957 81.44954102 -7.23266602 80.58642578 C-5.94720565 69.34326978 -4.00299828 58.17975843 -2.12109375 47.02392578 C-0.2042988 35.63396757 1.17445879 24.62761402 1.125 13.0625 C1.12886719 12.13115234 1.13273438 11.19980469 1.13671875 10.24023438 C1.13542969 9.34755859 1.13414062 8.45488281 1.1328125 7.53515625 C1.13168457 6.734729 1.13055664 5.93430176 1.12939453 5.10961914 C1.07912963 2.80812924 1.07912963 2.80812924 0 0 Z " fill="#B67757" transform="translate(210,249)"/>
<path d="M0 0 C5.9681991 2.58403345 9.58482472 7.71745923 12.9375 13.125 C14.99770254 18.66579316 14.67665482 25.22189854 14 31 C13.01 32.98 12.02 34.96 11 37 C16.94 35.02 22.88 33.04 29 31 C28.67 32.65 28.34 34.3 28 36 C27.3709375 36.17015625 26.741875 36.3403125 26.09375 36.515625 C13.94473139 39.95540738 3.37938012 46.12662127 -6.125 54.5 C-9 57 -9 57 -11 57 C-11.25523437 57.56203125 -11.51046875 58.1240625 -11.7734375 58.703125 C-13.15692781 61.29386482 -14.79938583 63.45107845 -16.625 65.75 C-17.25664062 66.54921875 -17.88828125 67.3484375 -18.5390625 68.171875 C-19.02117187 68.77515625 -19.50328125 69.3784375 -20 70 C-20.66 69.67 -21.32 69.34 -22 69 C-22 68.01 -22 67.02 -22 66 C-23.32 66.99 -24.64 67.98 -26 69 C-24.48446596 65.52224821 -22.4226544 63.0442016 -19.875 60.25 C-19.15054687 59.45078125 -18.42609375 58.6515625 -17.6796875 57.828125 C-17.12539063 57.22484375 -16.57109375 56.6215625 -16 56 C-16.60328125 56.04640625 -17.2065625 56.0928125 -17.828125 56.140625 C-24.4158215 56.43813387 -24.4158215 56.43813387 -27.5 54.125 C-30.27664362 50.19142153 -30.62025865 46.73168745 -30 42 C-25.71549706 33.43099412 -17.63297837 28.51556426 -9 25 C-5.375 24.1875 -5.375 24.1875 -3 24 C-4.09884157 27.29652472 -4.91716158 28.05663722 -7.5 30.25 C-8.21671875 30.85972656 -8.9334375 31.46945312 -9.671875 32.09765625 C-12.70398527 34.57523629 -15.79490802 36.96774543 -18.921875 39.32421875 C-23.9034932 43.24366808 -23.9034932 43.24366808 -26 49 C-11.5978963 47.95606053 -2.23501612 43.31340676 7.2578125 32.4296875 C10.20717711 28.31644806 11.63215523 24.31483017 11.515625 19.1875 C10.02744053 12.87399012 4.13612052 7.57972036 -1 4 C-0.67 2.68 -0.34 1.36 0 0 Z " fill="#B87C5C" transform="translate(456,302)"/>
<path d="M0 0 C0.66 0 1.32 0 2 0 C1.855625 1.11375 1.71125 2.2275 1.5625 3.375 C1.37324694 4.91645245 1.18591542 6.45814144 1 8 C0.89300781 8.86367188 0.78601563 9.72734375 0.67578125 10.6171875 C0.57652344 11.48601562 0.47726562 12.35484375 0.375 13.25 C0.23191406 14.46429688 0.23191406 14.46429688 0.0859375 15.703125 C-0.11872863 17.99693147 -0.11872863 17.99693147 0.6015625 20.109375 C0.73304688 20.73328125 0.86453125 21.3571875 1 22 C0.34 22.99 -0.32 23.98 -1 25 C-1.33 24.34 -1.66 23.68 -2 23 C-1.814375 24.051875 -1.62875 25.10375 -1.4375 26.1875 C-1.04920669 29.57119882 -1.11752515 31.76425888 -2 35 C-2.66 34.67 -3.32 34.34 -4 34 C-4.2475 35.423125 -4.2475 35.423125 -4.5 36.875 C-6 40 -6 40 -9.5 41.3125 C-14.28862819 42.18395991 -19.15018644 42.62235058 -24 43 C-24 42.01 -24 41.02 -24 40 C-25.32 41.32 -26.64 42.64 -28 44 C-28.33 43.34 -28.66 42.68 -29 42 C-28.34 41.01 -27.68 40.02 -27 39 C-26.34 39 -25.68 39 -25 39 C-24.896875 37.948125 -24.79375 36.89625 -24.6875 35.8125 C-24.02050668 32.11371887 -23.25009992 29.97013189 -21 27 C-20.34 27 -19.68 27 -19 27 C-18.67 26.01 -18.34 25.02 -18 24 C-17.67 24.66 -17.34 25.32 -17 26 C-18.4375 28.625 -18.4375 28.625 -20 31 C-17.38255249 27.71614714 -15.40141789 24.23590363 -13.375 20.5625 C-9.37403757 13.44105197 -5.11294736 6.38588031 0 0 Z " fill="#F6ECE1" transform="translate(418,253)"/>
<path d="M0 0 C1.9609375 0.015625 1.9609375 0.015625 4.375 0.25 C5.16648437 0.31703125 5.95796875 0.3840625 6.7734375 0.453125 C9.43332825 1.1064315 10.36928728 1.81904679 12 4 C13.31387852 8.26911879 13.18392373 12.44758298 13.1875 16.875 C13.19974609 17.66519531 13.21199219 18.45539063 13.22460938 19.26953125 C13.2362095 23.91731548 12.77874711 27.62695373 11 32 C9.35 31.67 7.7 31.34 6 31 C6.0721875 30.12859375 6.144375 29.2571875 6.21875 28.359375 C6.82711659 20.55200382 7.1290649 12.829937 7 5 C1.53031744 5.92545605 -0.85262619 9.69920265 -4 14 C-6.05502652 17.27424328 -8.00774619 20.60731766 -9.89135742 23.98291016 C-12.68936574 28.89645525 -12.68936574 28.89645525 -16 30 C-17.35447807 32.29111691 -17.35447807 32.29111691 -18.5 35 C-19.71875 37.75 -19.71875 37.75 -21 40 C-22.485 40.495 -22.485 40.495 -24 41 C-24.33 41.66 -24.66 42.32 -25 43 C-24.34 43.33 -23.68 43.66 -23 44 C-24.485 44.495 -24.485 44.495 -26 45 C-27.14632017 46.60312401 -27.14632017 46.60312401 -28.04296875 48.59765625 C-28.39423828 49.31630859 -28.74550781 50.03496094 -29.10742188 50.77539062 C-29.46384766 51.53013672 -29.82027344 52.28488281 -30.1875 53.0625 C-30.55552734 53.82111328 -30.92355469 54.57972656 -31.30273438 55.36132812 C-32.21085497 57.23653819 -33.10661015 59.11772733 -34 61 C-34.66 60.01 -35.32 59.02 -36 58 C-35.443125 56.9584375 -34.88625 55.916875 -34.3125 54.84375 C-33.54122176 53.39607028 -32.77042625 51.94813332 -32 50.5 C-31.59136719 49.73260498 -31.18273437 48.96520996 -30.76171875 48.17456055 C-28.41701496 43.74875067 -26.14845528 39.29794035 -23.96313477 34.79150391 C-17.63149326 21.78154548 -10.30280836 10.30280836 0 0 Z " fill="#B57655" transform="translate(252,240)"/>
<path d="M0 0 C2.78671528 1.88965836 4.02344521 3.79796322 5 7 C5.125 9.8125 5.125 9.8125 4 12 C1.4375 13.3125 1.4375 13.3125 -1 14 C-0.67 11.69 -0.34 9.38 0 7 C-16.44935303 6.82312524 -30.97102913 12.87649165 -46 19 C-46 15.7908004 -45.37018024 14.11030088 -43.53369141 11.49804688 C-40.30065364 8.34014815 -35.8821957 7.19346032 -31.6875 5.75 C-30.76259766 5.41226563 -29.83769531 5.07453125 -28.88476562 4.7265625 C-19.31094078 1.26991501 -10.30248428 -1.65642865 0 0 Z " fill="#B57656" transform="translate(507,235)"/>
<path d="M0 0 C4.11757865 11.87329187 -6.97359132 34.18535434 -10.984375 45.92578125 C-11.76214592 48.28003399 -12.45145205 50.58519652 -13 53 C-17.875 52.125 -17.875 52.125 -19 51 C-18.71569923 46.64072156 -17.71527492 43.09664052 -16.12109375 39.03515625 C-13.85057931 32.89940383 -12.49836016 26.72310421 -11.25 20.3125 C-10.91935547 18.66991211 -10.91935547 18.66991211 -10.58203125 16.99414062 C-10.04704703 14.33084963 -9.51984278 11.66628002 -9 9 C-8.34 9 -7.68 9 -7 9 C-6.67 7.68 -6.34 6.36 -6 5 C-5.34 5 -4.68 5 -4 5 C-4 5.99 -4 6.98 -4 8 C-3.34 6.02 -2.68 4.04 -2 2 C-1.34 2 -0.68 2 0 2 C0 1.34 0 0.68 0 0 Z " fill="#B67857" transform="translate(351,313)"/>
<path d="M0 0 C1 3.875 1 3.875 1 5 C1.66 3.68 2.32 2.36 3 1 C3.66 1 4.32 1 5 1 C4.43110719 5.08405153 3.509716 8.56970432 1.9375 12.375 C-2.17789052 22.74820492 -5.52281213 33.39995544 -9 44 C-10.65 43.67 -12.3 43.34 -14 43 C-16.42851016 34.66472641 -11.73259995 24.98530986 -8.14453125 17.4375 C-6.60764578 14.16440603 -5.21728284 10.83122236 -3.8125 7.5 C-1.12014787 1.12014787 -1.12014787 1.12014787 0 0 Z " fill="#B57554" transform="translate(380,312)"/>
<path d="M0 0 C7.37274516 4.92297769 13.17074603 12.4868144 15 21.23828125 C15.55376624 25.36076325 15.56527894 29.36314245 15.51953125 33.515625 C15.51501953 34.299375 15.51050781 35.083125 15.50585938 35.890625 C15.49417218 37.80732514 15.47624033 39.72398548 15.45703125 41.640625 C14.46703125 42.135625 14.46703125 42.135625 13.45703125 42.640625 C13.4430127 41.81038818 13.4430127 41.81038818 13.42871094 40.96337891 C13.12306916 22.10501513 13.12306916 22.10501513 3.47265625 6.40234375 C-4.08627914 -0.20440017 -11.73566104 -1.3425425 -21.4765625 -0.83203125 C-30.43317725 -0.00916934 -35.98057049 4.44814927 -41.8515625 10.96875 C-46.25194922 17.91993827 -47.02321292 25.13199097 -47.23046875 33.203125 C-47.26462891 34.11642578 -47.29878906 35.02972656 -47.33398438 35.97070312 C-47.41546233 38.19388729 -47.48492613 40.41672697 -47.54296875 42.640625 C-48.20296875 42.310625 -48.86296875 41.980625 -49.54296875 41.640625 C-50.66445996 16.8608454 -50.66445996 16.8608454 -42.10546875 6.765625 C-41.25984375 6.064375 -40.41421875 5.363125 -39.54296875 4.640625 C-38.18171875 3.3721875 -38.18171875 3.3721875 -36.79296875 2.078125 C-25.72737512 -6.72975305 -12.17761148 -6.97726602 0 0 Z " fill="#F1E4D8" transform="translate(399.54296875,79.359375)"/>
<path d="M0 0 C0.99 0 1.98 0 3 0 C3.93065133 2.60582371 4.14917407 3.64198224 3.0625 6.25 C2.5365625 7.11625 2.5365625 7.11625 2 8 C2.66 8 3.32 8 4 8 C4.01981934 8.8564209 4.03963867 9.7128418 4.06005859 10.59521484 C4.13887508 13.81972342 4.22558633 17.04390321 4.31738281 20.26806641 C4.35530245 21.65470413 4.39021453 23.0414279 4.421875 24.42822266 C4.724236 39.090468 4.724236 39.090468 9 53 C6.04335507 52.68321661 5.04112453 52.04244862 2.9375 49.87109375 C-5.280631 37.69301656 -1.1374087 13.95356742 0 0 Z " fill="#B57655" transform="translate(411,317)"/>
<path d="M0 0 C0.99 0.33 1.98 0.66 3 1 C2.34 2.98 1.68 4.96 1 7 C0.34 6.67 -0.32 6.34 -1 6 C-1.84114171 7.43294498 -2.67265687 8.87154405 -3.5 10.3125 C-4.19609375 11.51326172 -4.19609375 11.51326172 -4.90625 12.73828125 C-6.21767886 15.0314118 -6.21767886 15.0314118 -6 18 C-6 18.99 -6 19.98 -6 21 C-6.556875 21.53625 -7.11375 22.0725 -7.6875 22.625 C-10.9428455 25.96832781 -12.85482763 29.88548906 -15 34 C-15.66 34 -16.32 34 -17 34 C-17.33 34.66 -17.66 35.32 -18 36 C-17.34 36.33 -16.68 36.66 -16 37 C-17.485 37.495 -17.485 37.495 -19 38 C-20.14632017 39.60312401 -20.14632017 39.60312401 -21.04296875 41.59765625 C-21.39423828 42.31630859 -21.74550781 43.03496094 -22.10742188 43.77539062 C-22.46384766 44.53013672 -22.82027344 45.28488281 -23.1875 46.0625 C-23.55552734 46.82111328 -23.92355469 47.57972656 -24.30273438 48.36132812 C-25.21085497 50.23653819 -26.10661015 52.11772733 -27 54 C-27.66 53.01 -28.32 52.02 -29 51 C-28.443125 49.9584375 -27.88625 48.916875 -27.3125 47.84375 C-26.54122176 46.39607028 -25.77042625 44.94813332 -25 43.5 C-24.59136719 42.73260498 -24.18273437 41.96520996 -23.76171875 41.17456055 C-21.41670966 36.74817439 -19.14863535 32.29638064 -16.96166992 27.79003906 C-12.18622222 17.97000191 -6.67003233 8.66893792 0 0 Z " fill="#D7B49E" transform="translate(245,247)"/>
<path d="M0 0 C0.33 0.66 0.66 1.32 1 2 C1.99 1.67 2.98 1.34 4 1 C6 3 6 3 6.25 5.78515625 C6.07768961 11.71909534 4.94442746 17.58906911 4 23.4375 C3.80921875 24.64599609 3.6184375 25.85449219 3.421875 27.09960938 C2.95269085 30.06719911 2.47859566 33.0339161 2 36 C1.34 35.34 0.68 34.68 0 34 C-0.66 34.99 -1.32 35.98 -2 37 C-1.68957083 34.12476286 -1.37672481 31.24982273 -1.0625 28.375 C-0.97548828 27.56675781 -0.88847656 26.75851562 -0.79882812 25.92578125 C-0.32290463 21.58958942 0.22837189 17.29609164 1 13 C0.34 13 -0.32 13 -1 13 C-0.67 8.71 -0.34 4.42 0 0 Z " fill="#C28E72" transform="translate(257,269)"/>
<path d="M0 0 C0.66 0 1.32 0 2 0 C1.03644647 14.78132118 1.03644647 14.78132118 0 21 C0.66 20.67 1.32 20.34 2 20 C2.25287193 26.06892629 1.69832609 31.16200408 0 37 C-1.65 36.67 -3.3 36.34 -5 36 C-5.41625824 23.7203819 -2.68002986 11.91719945 0 0 Z " fill="#B87C5C" transform="translate(256,282)"/>
<path d="M0 0 C0.95777344 0.02707031 1.91554688 0.05414063 2.90234375 0.08203125 C3.61519531 0.11683594 4.32804687 0.15164062 5.0625 0.1875 C5.5575 1.1775 5.5575 1.1775 6.0625 2.1875 C5.4025 2.1875 4.7425 2.1875 4.0625 2.1875 C4.0625 2.8475 4.0625 3.5075 4.0625 4.1875 C-0.51369757 4.26506267 -4.45072418 4.08485516 -8.9375 3.1875 C-9.9275 3.5175 -10.9175 3.8475 -11.9375 4.1875 C-10.9475 5.5075 -9.9575 6.8275 -8.9375 8.1875 C-10.5875 9.5075 -12.2375 10.8275 -13.9375 12.1875 C-13.6075 10.2075 -13.2775 8.2275 -12.9375 6.1875 C-14.31470215 6.37711304 -14.31470215 6.37711304 -15.71972656 6.57055664 C-19.13318824 7.036873 -22.54742152 7.49641358 -25.96240234 7.95141602 C-27.43900447 8.14956001 -28.91524984 8.35038207 -30.39111328 8.55395508 C-32.51506387 8.84644524 -34.64011976 9.12921579 -36.765625 9.41015625 C-38.0434082 9.58297119 -39.32119141 9.75578613 -40.63769531 9.93383789 C-43.47842529 10.15221008 -45.28969665 10.12356264 -47.9375 9.1875 C-47.2775 9.1875 -46.6175 9.1875 -45.9375 9.1875 C-45.9375 8.5275 -45.9375 7.8675 -45.9375 7.1875 C-44.7309375 7.2184375 -44.7309375 7.2184375 -43.5 7.25 C-41.00395115 7.48383621 -41.00395115 7.48383621 -39.9375 6.1875 C-38.02411783 5.92427344 -36.10266311 5.71929669 -34.1796875 5.5390625 C-32.99632812 5.42046875 -31.81296875 5.301875 -30.59375 5.1796875 C-28.09688076 4.93722293 -25.59948273 4.70013629 -23.1015625 4.46875 C-15.24974344 3.66997187 -7.63569982 -0.2828037 0 0 Z " fill="#BF876A" transform="translate(429.9375,237.8125)"/>
<path d="M0 0 C0.33 0.66 0.66 1.32 1 2 C0.07421875 3.8046875 0.07421875 3.8046875 -1.3125 5.875 C-3.27504316 8.82445509 -3.27504316 8.82445509 -4.8359375 11.9921875 C-6.48678709 14.83962605 -8.66695283 16.31685322 -11.3125 18.25 C-12.25738281 18.95640625 -13.20226562 19.6628125 -14.17578125 20.390625 C-17.14533771 22.08282038 -18.65276487 22.36581805 -22 22 C-22.66 20.68 -23.32 19.36 -24 18 C-23.03513672 17.55914062 -23.03513672 17.55914062 -22.05078125 17.109375 C-13.31348164 12.77188532 -6.88575311 6.76533454 0 0 Z " fill="#D0A68F" transform="translate(560,306)"/>
<path d="M0 0 C0.33 0.99 0.66 1.98 1 3 C0.04701223 4.36733028 -0.95374591 5.70264493 -2 7 C-2 7.66 -2 8.32 -2 9 C-7.52598571 12.50856236 -11.28242774 14.50698659 -18 14 C-20.0064731 14.29185063 -22.00994193 14.61169599 -24 15 C-21.28994284 12.09403509 -18.72831914 10.08447954 -15.234375 8.203125 C-14.34492188 7.71972656 -13.45546875 7.23632812 -12.5390625 6.73828125 C-11.61867188 6.24714844 -10.69828125 5.75601563 -9.75 5.25 C-8.81414062 4.74339844 -7.87828125 4.23679688 -6.9140625 3.71484375 C-4.61269477 2.47022651 -2.30802355 1.23221753 0 0 Z " fill="#C0896C" transform="translate(463,246)"/>
<path d="M0 0 C0.8828125 2.609375 0.8828125 2.609375 1 6 C-0.66454065 8.50374015 -2.84188372 10.3166377 -5.125 12.25 C-5.70765625 12.77851563 -6.2903125 13.30703125 -6.890625 13.8515625 C-10.07693328 16.66637296 -12.87049484 18.72219085 -17 20 C-16.09111244 18.10042499 -15.17251969 16.20549214 -14.25 14.3125 C-13.73953125 13.25675781 -13.2290625 12.20101563 -12.703125 11.11328125 C-10.02648824 6.22043836 -6.26527589 0 0 0 Z " fill="#F4E8DD" transform="translate(520,307)"/>
<path d="M0 0 C0.40631384 3.8182369 0.37683566 5.48895929 -1.94140625 8.6328125 C-6.70550746 13.16261365 -11.045484 17.152188 -17 20 C-15.45926472 12.1513132 -10.42310357 5.52536842 -4 1 C-2 0 -2 0 0 0 Z " fill="#F4E8DD" transform="translate(285,307)"/>
<path d="M0 0 C0.33 0.99 0.66 1.98 1 3 C-0.64169528 5.02054804 -2.30911778 7.02043058 -4 9 C-4 9.99 -4 10.98 -4 12 C-7.52709039 15.36303967 -10.40292952 17.35818911 -15 19 C-17.68808352 20.29128498 -20.34471877 21.64270984 -23 23 C-23 21.68 -23 20.36 -23 19 C-21.328125 17.48046875 -21.328125 17.48046875 -19 16 C-12.05902302 11.13916053 -5.77634918 6.22323006 0 0 Z " fill="#CB9E85" transform="translate(324,306)"/>
<path d="M0 0 C0.99 0.495 0.99 0.495 2 1 C2 1.99 2 2.98 2 4 C2.66 4 3.32 4 4 4 C4 5.65 4 7.3 4 9 C4.66 8.34 5.32 7.68 6 7 C5.98839844 8.26457031 5.97679687 9.52914063 5.96484375 10.83203125 C5.95546434 12.49218602 5.9463643 14.15234239 5.9375 15.8125 C5.92912109 16.64587891 5.92074219 17.47925781 5.91210938 18.33789062 C5.90888672 19.14033203 5.90566406 19.94277344 5.90234375 20.76953125 C5.89710693 21.50792236 5.89187012 22.24631348 5.88647461 23.00708008 C5.92476787 25.21057409 5.92476787 25.21057409 7 28 C6.0625 30.1875 6.0625 30.1875 5 32 C4.34 32 3.68 32 3 32 C2.67 33.32 2.34 34.64 2 36 C1.34 36 0.68 36 0 36 C0.0721875 35.40316406 0.144375 34.80632812 0.21875 34.19140625 C0.85725173 28.22318873 1.10920276 22.30952549 1.125 16.3125 C1.12951172 15.61261963 1.13402344 14.91273926 1.13867188 14.19165039 C1.12511821 9.38405293 0.6732089 4.76054868 0 0 Z " fill="#C28E71" transform="translate(342,286)"/>
<path d="M0 0 C0 0.99 0 1.98 0 3 C-1.5159375 3.7425 -1.5159375 3.7425 -3.0625 4.5 C-9.97517022 8.49616838 -14.04517673 13.9406963 -16.40185547 21.4831543 C-17.43139199 25.81519187 -17.57356726 30.12563351 -17.6875 34.5625 C-17.72166016 35.47580078 -17.75582031 36.38910156 -17.79101562 37.33007812 C-17.87249358 39.55326229 -17.94195738 41.77610197 -18 44 C-18.66 43.67 -19.32 43.34 -20 43 C-21.12149121 18.2202204 -21.12149121 18.2202204 -12.5625 8.125 C-11.716875 7.42375 -10.87125 6.7225 -10 6 C-9.47921875 5.54882812 -8.9584375 5.09765625 -8.421875 4.6328125 C-3.03001412 0 -3.03001412 0 0 0 Z " fill="#EEDDD0" transform="translate(370,78)"/>
<path d="M0 0 C0.66 0 1.32 0 2 0 C1.34 7.26 0.68 14.52 0 22 C-0.99 21.01 -1.98 20.02 -3 19 C-3.66 19 -4.32 19 -5 19 C-5.93213141 12.73960391 -6.20927172 7.97802937 -4 2 C-2.35 2.33 -0.7 2.66 1 3 C0.67 2.01 0.34 1.02 0 0 Z " fill="#C7967B" transform="translate(255,316)"/>
<path d="M0 0 C0.99 0.33 1.98 0.66 3 1 C0.28538906 6.7549752 -2.84968283 12.05151633 -6.31640625 17.38671875 C-7.93216301 19.89470314 -9.47878588 22.43381813 -11 25 C-11.66 24.34 -12.32 23.68 -13 23 C-10.45489501 15.04654692 -6.22814072 8.15067979 -2 1 C-3.32 0.67 -4.64 0.34 -6 0 C-3.46924326 -1.26537837 -2.64724917 -0.80219672 0 0 Z " fill="#C69479" transform="translate(413,251)"/>
<path d="M0 0 C0.66 0.33 1.32 0.66 2 1 C1.12988281 2.61455078 1.12988281 2.61455078 0.2421875 4.26171875 C-4.47092367 13.05649534 -8.95312619 21.87469632 -13 31 C-13.99 30.67 -14.98 30.34 -16 30 C-15.61051931 24.93675104 -13.77331478 21.43519232 -11.25390625 17.1484375 C-10.07853114 15.13455491 -9.01963493 13.09617971 -8 11 C-7.34 11 -6.68 11 -6 11 C-4.02 7.37 -2.04 3.74 0 0 Z " fill="#B77958" transform="translate(236,269)"/>
<path d="M0 0 C0.99 0.33 1.98 0.66 3 1 C2.34 2.98 1.68 4.96 1 7 C0.34 6.67 -0.32 6.34 -1 6 C-1.84114171 7.43294498 -2.67265687 8.87154405 -3.5 10.3125 C-3.9640625 11.11300781 -4.428125 11.91351563 -4.90625 12.73828125 C-6.21767886 15.0314118 -6.21767886 15.0314118 -6 18 C-6 18.99 -6 19.98 -6 21 C-7.33333333 22.33333333 -8.66666667 23.66666667 -10 25 C-10.515625 26.051875 -11.03125 27.10375 -11.5625 28.1875 C-13 31 -13 31 -16 32 C-15.0962414 29.70584355 -14.19328929 27.42090099 -13.1640625 25.1796875 C-12.38761042 23.47719166 -11.68928148 21.73961517 -11 20 C-11.33 19.34 -11.66 18.68 -12 18 C-10.65378591 15.62327689 -9.26687786 13.38879036 -7.75 11.125 C-7.34136719 10.49980469 -6.93273437 9.87460937 -6.51171875 9.23046875 C-4.43733229 6.07553372 -2.31208621 2.98769582 0 0 Z " fill="#DBBBA8" transform="translate(245,247)"/>
<path d="M0 0 C0.33 0.66 0.66 1.32 1 2 C0.67 2.99 0.34 3.98 0 5 C-2.00390625 5.80859375 -2.00390625 5.80859375 -4.5625 6.4375 C-9.41955092 7.75772843 -13.58680615 9.61995877 -18 12 C-19.33145938 12.67040148 -20.66432136 13.33804473 -22 14 C-22.66 13.34 -23.32 12.68 -24 12 C-19.89500272 5.84250408 -15.99945739 4.73437882 -9 3 C-7.28630749 2.45404486 -5.57746479 1.89251955 -3.875 1.3125 C-3.12992187 1.06113281 -2.38484375 0.80976563 -1.6171875 0.55078125 C-1.08351563 0.36902344 -0.54984375 0.18726563 0 0 Z " fill="#BD8465" transform="translate(484,333)"/>
<path d="M0 0 C0.66 0 1.32 0 2 0 C1.91291962 2.10494301 1.80474307 4.20902142 1.6875 6.3125 C1.62949219 7.48425781 1.57148438 8.65601563 1.51171875 9.86328125 C0.98395232 13.0983686 0.57619276 14.08684881 -2 16 C-2 14.02 -2 12.04 -2 10 C-3.1446875 10.0309375 -3.1446875 10.0309375 -4.3125 10.0625 C-7 10 -7 10 -10 9 C-11.73324119 9.08461492 -13.46392812 9.23604355 -15.1875 9.4375 C-16.08855469 9.53933594 -16.98960937 9.64117187 -17.91796875 9.74609375 C-18.94857422 9.87177734 -18.94857422 9.87177734 -20 10 C-17.56666253 6.91442775 -16.22796222 6.05141276 -12.328125 5.171875 C-10.97067718 5.01372574 -9.61103795 4.87349683 -8.25 4.75 C-7.20392578 4.63398438 -7.20392578 4.63398438 -6.13671875 4.515625 C-4.42611567 4.32816165 -2.71320729 4.16194497 -1 4 C-0.67 2.68 -0.34 1.36 0 0 Z " fill="#D3AC95" transform="translate(413,289)"/>
<path d="M0 0 C0.33 0.66 0.66 1.32 1 2 C0.67 2.66 0.34 3.32 0 4 C1.42892578 3.566875 1.42892578 3.566875 2.88671875 3.125 C4.14097656 2.75375 5.39523437 2.3825 6.6875 2 C8.54955078 1.443125 8.54955078 1.443125 10.44921875 0.875 C13.5010019 0.12296543 15.88898362 -0.19034899 19 0 C16.25281732 2.74718268 13.17125399 3.0950544 9.5 3.9375 C8.05164098 4.28330874 6.60372223 4.63096669 5.15625 4.98046875 C4.44855469 5.1511084 3.74085938 5.32174805 3.01171875 5.49755859 C-1.03810989 6.50903279 -5.0223703 7.7378675 -9 9 C-9 8.34 -9 7.68 -9 7 C-10.98 7.33 -12.96 7.66 -15 8 C-14.67 7.34 -14.34 6.68 -14 6 C-11.71484375 5.3671875 -11.71484375 5.3671875 -8.9375 4.875 C-8.01839844 4.70742187 -7.09929687 4.53984375 -6.15234375 4.3671875 C-5.44207031 4.24601563 -4.73179687 4.12484375 -4 4 C-4 3.01 -4 2.02 -4 1 C-2.68 0.67 -1.36 0.34 0 0 Z " fill="#C28D70" transform="translate(344,251)"/>
<path d="M0 0 C2 3 2 3 1.7734375 5.76953125 C0.95193156 9.20077072 -0.11234967 12.39313051 -1.375 15.6875 C-1.79523438 16.80511719 -2.21546875 17.92273438 -2.6484375 19.07421875 C-3.86497289 21.70770143 -4.79703183 23.17707605 -7 25 C-7.33 24.01 -7.66 23.02 -8 22 C-8.66 22.33 -9.32 22.66 -10 23 C-8.15234666 18.15879294 -5.81162784 13.63502895 -3.4375 9.03515625 C-2.0331628 6.07002038 -0.97050523 3.13081256 0 0 Z " fill="#BC8264" transform="translate(475,376)"/>
<path d="M0 0 C1.28132813 0.00902344 2.56265625 0.01804688 3.8828125 0.02734375 C4.87023437 0.03894531 5.85765625 0.05054688 6.875 0.0625 C7.4375 2 7.4375 2 7.875 4.0625 C6.875 5.0625 6.875 5.0625 3.49609375 5.16015625 C2.10152923 5.15348369 0.70698257 5.14152532 -0.6875 5.125 C-1.39841797 5.12048828 -2.10933594 5.11597656 -2.84179688 5.11132812 C-4.60290013 5.09950864 -6.36396036 5.08157263 -8.125 5.0625 C-8.455 3.7425 -8.785 2.4225 -9.125 1.0625 C-6.12186252 -0.43906874 -3.33432478 -0.03031204 0 0 Z " fill="#B37250" transform="translate(381.125,145.9375)"/>
<path d="M0 0 C-1.23789629 3.71368887 -2.85224877 4.77354181 -6 7 C-6.66 7 -7.32 7 -8 7 C-9.40939193 7.95091503 -10.78062435 8.95919305 -12.125 10 C-13.21167969 10.8353125 -13.21167969 10.8353125 -14.3203125 11.6875 C-15.15175781 12.3371875 -15.15175781 12.3371875 -16 13 C-16.66 12.67 -17.32 12.34 -18 12 C-18 9 -18 9 -16 7 C-11.43852623 2.84100921 -6.25442391 0 0 0 Z " fill="#C6957A" transform="translate(453,326)"/>
<path d="M0 0 C0.99 0 1.98 0 3 0 C3.93065133 2.60582371 4.14917407 3.64198224 3.0625 6.25 C2.5365625 7.11625 2.5365625 7.11625 2 8 C2.66 8 3.32 8 4 8 C4 10.31 4 12.62 4 15 C3.34 15 2.68 15 2 15 C1.67 16.65 1.34 18.3 1 20 C1.66 20 2.32 20 3 20 C3 21.32 3 22.64 3 24 C1.68 24.33 0.36 24.66 -1 25 C-0.67 16.75 -0.34 8.5 0 0 Z " fill="#B47453" transform="translate(411,317)"/>
<path d="M0 0 C1.60080151 4.00200378 0.29279692 7.04556236 -1 11 C-0.01 10.67 0.98 10.34 2 10 C2 13.42190062 1.19645801 15.87934253 0.125 19.125 C-0.22304688 20.20007813 -0.57109375 21.27515625 -0.9296875 22.3828125 C-2 25 -2 25 -4 26 C-3.814375 25.071875 -3.62875 24.14375 -3.4375 23.1875 C-2.75876119 19.98656229 -2.75876119 19.98656229 -4 17 C-5.10128686 13.02349713 -4.86323122 10.58969365 -3.5625 6.6875 C-3.27503906 5.80449219 -2.98757813 4.92148437 -2.69140625 4.01171875 C-2.46324219 3.34785156 -2.23507812 2.68398438 -2 2 C-1.34 2 -0.68 2 0 2 C0 1.34 0 0.68 0 0 Z " fill="#BF876A" transform="translate(354,295)"/>
<path d="M0 0 C2.48709896 3.73064844 2.29991053 5.57631968 2 10 C1 13.4375 1 13.4375 0 16 C-1.65 15.67 -3.3 15.34 -5 15 C-5.08159574 10.83861737 -4.98248524 7.0527516 -4 3 C-3.01 3 -2.02 3 -1 3 C-0.67 2.01 -0.34 1.02 0 0 Z " fill="#B67757" transform="translate(263,256)"/>
<path d="M0 0 C0.33 0.66 0.66 1.32 1 2 C0.67 2.99 0.34 3.98 0 5 C0.99 6.485 0.99 6.485 2 8 C0.68 10.31 -0.64 12.62 -2 15 C-2.66 14.67 -3.32 14.34 -4 14 C-3.34 12.68 -2.68 11.36 -2 10 C-5.10669573 12.54184196 -5.89429228 15.20900211 -7 19 C-8.017017 22.05105101 -8.82646048 22.82646048 -11 25 C-11 25.66 -11 26.32 -11 27 C-11.99 26.67 -12.98 26.34 -14 26 C-13.01 23.36 -12.02 20.72 -11 18 C-10.34 18 -9.68 18 -9 18 C-8.74476563 17.14148438 -8.48953125 16.28296875 -8.2265625 15.3984375 C-6.94321828 11.84267486 -5.31784652 8.86307753 -3.375 5.625 C-2.74335938 4.56539063 -2.11171875 3.50578125 -1.4609375 2.4140625 C-0.73777344 1.21910156 -0.73777344 1.21910156 0 0 Z " fill="#C49175" transform="translate(401,270)"/>
<path d="M0 0 C1 3 1 3 0.0625 5.1875 C-0.288125 5.785625 -0.63875 6.38375 -1 7 C0.65 7 2.3 7 4 7 C2.02 7.99 2.02 7.99 0 9 C1.134375 8.835 2.26875 8.67 3.4375 8.5 C7.97060294 7.92423916 12.43747238 7.90494734 17 8 C17 8.33 17 8.66 17 9 C14.33559769 9.53590819 11.66963352 10.05389262 9 10.5625 C8.25621094 10.71396484 7.51242187 10.86542969 6.74609375 11.02148438 C0.27609192 12.23109341 -6.1649532 12.64690425 -12 9 C-11.07767578 8.77957031 -11.07767578 8.77957031 -10.13671875 8.5546875 C-4.60212048 7.07960854 -4.60212048 7.07960854 -0.9375 2.8125 C-0.628125 1.884375 -0.31875 0.95625 0 0 Z " fill="#B87A5B" transform="translate(395,289)"/>
<path d="M0 0 C0.8353125 0.37125 0.8353125 0.37125 1.6875 0.75 C1.3575 1.513125 1.0275 2.27625 0.6875 3.0625 C-0.48686686 5.74069135 -0.48686686 5.74069135 -0.3125 8.75 C-1.3025 8.42 -2.2925 8.09 -3.3125 7.75 C-3.704375 8.224375 -4.09625 8.69875 -4.5 9.1875 C-6.76216312 11.13764062 -8.35587034 11.52256695 -11.3125 11.75 C-11.9725 11.09 -12.6325 10.43 -13.3125 9.75 C-12.3225 9.42 -11.3325 9.09 -10.3125 8.75 C-9.85875 7.986875 -9.405 7.22375 -8.9375 6.4375 C-6.80304329 2.90743699 -4.44292158 -0.48031585 0 0 Z " fill="#B47352" transform="translate(461.3125,339.25)"/>
<path d="M0 0 C0.33 0.66 0.66 1.32 1 2 C0.07421875 3.8046875 0.07421875 3.8046875 -1.3125 5.875 C-2.69476427 7.95829801 -3.95260041 9.89377924 -4.97265625 12.1796875 C-6 14 -6 14 -9.125 15.25 C-10.07375 15.4975 -11.0225 15.745 -12 16 C-12.33 14.68 -12.66 13.36 -13 12 C-8.71 8.04 -4.42 4.08 0 0 Z " fill="#D5B09B" transform="translate(560,306)"/>
<path d="M0 0 C0.33 0.99 0.66 1.98 1 3 C0.04701223 4.36733028 -0.95374591 5.70264493 -2 7 C-2 7.66 -2 8.32 -2 9 C-8.625 10 -8.625 10 -12 10 C-11.84765625 8.203125 -11.84765625 8.203125 -11 6 C-8.49609375 4.296875 -8.49609375 4.296875 -5.4375 2.75 C-4.42558594 2.22921875 -3.41367187 1.7084375 -2.37109375 1.171875 C-1.58863281 0.78515625 -0.80617188 0.3984375 0 0 Z " fill="#BB8061" transform="translate(463,246)"/>
<path d="M0 0 C0.33 0.66 0.66 1.32 1 2 C0.01789629 4.0088485 -0.98440599 6.00787329 -2 8 C-2.165 8.886875 -2.33 9.77375 -2.5 10.6875 C-3.09795007 13.45301906 -3.87463212 14.18950144 -6 16 C-6.721875 16.721875 -7.44375 17.44375 -8.1875 18.1875 C-9.0846875 19.0846875 -9.0846875 19.0846875 -10 20 C-10.33 19.34 -10.66 18.68 -11 18 C-10.01 16.515 -10.01 16.515 -9 15 C-8.34 15 -7.68 15 -7 15 C-6.8453125 13.4221875 -6.8453125 13.4221875 -6.6875 11.8125 C-6.02050668 8.11371887 -5.25009992 5.97013189 -3 3 C-2.34 3 -1.68 3 -1 3 C-0.67 2.01 -0.34 1.02 0 0 Z " fill="#E3C9B8" transform="translate(400,277)"/>
<path d="M0 0 C0.66 0 1.32 0 2 0 C0.38297872 21.61702128 0.38297872 21.61702128 -3 25 C-2.60271115 16.47919963 -2.21772491 8.27950633 0 0 Z " fill="#B47453" transform="translate(261,273)"/>
<path d="M0 0 C0.33 0.66 0.66 1.32 1 2 C0.34 2 -0.32 2 -1 2 C-1 2.66 -1 3.32 -1 4 C-8.44479495 4.12618297 -8.44479495 4.12618297 -11.75 3.375 C-14.50654601 2.91557567 -15.67612302 3.5368182 -18 5 C-18 4.34 -18 3.68 -18 3 C-11.92122066 -0.24201565 -6.81598387 -0.33278764 0 0 Z " fill="#E1C5B4" transform="translate(435,238)"/>
<path d="M0 0 C1.1446875 0.3403125 1.1446875 0.3403125 2.3125 0.6875 C1.93742618 3.40678517 1.47031339 4.52968661 -0.5 6.5 C-2.6875 7.6875 -2.6875 7.6875 -4.9375 7.375 C-5.515 7.148125 -6.0925 6.92125 -6.6875 6.6875 C-6.28750283 4.36751641 -5.78182121 2.82426576 -4.4375 0.875 C-2.6875 -0.3125 -2.6875 -0.3125 0 0 Z " fill="#B87A5A" transform="translate(398.6875,169.3125)"/>
<path d="M0 0 C0.33 0.66 0.66 1.32 1 2 C0.08982541 3.88776952 -0.83068902 5.77141054 -1.80859375 7.625 C-3.81921166 11.63305143 -5.38918448 15.81873418 -7 20 C-7.33 20 -7.66 20 -8 20 C-7.88544319 18.08268082 -7.75793742 16.1661325 -7.625 14.25 C-7.55539062 13.18265625 -7.48578125 12.1153125 -7.4140625 11.015625 C-7.0271777 8.19793568 -6.44313834 6.4169634 -5 4 C-4.34 4 -3.68 4 -3 4 C-2.67 3.01 -2.34 2.02 -2 1 C-1.34 0.67 -0.68 0.34 0 0 Z " fill="#CB9E85" transform="translate(387,303)"/>
<path d="M0 0 C0 0.66 0 1.32 0 2 C-1.3303125 2.433125 -1.3303125 2.433125 -2.6875 2.875 C-4.3271875 3.431875 -4.3271875 3.431875 -6 4 C-6.928125 4.28875 -7.85625 4.5775 -8.8125 4.875 C-9.534375 5.24625 -10.25625 5.6175 -11 6 C-11.65213292 8.02463255 -11.65213292 8.02463255 -12 10 C-12.99 10.33 -13.98 10.66 -15 11 C-15.66 10.34 -16.32 9.68 -17 9 C-12.92868017 2.89302026 -7.50337397 0 0 0 Z " fill="#C49175" transform="translate(477,336)"/>
<path d="M0 0 C0.66 0.33 1.32 0.66 2 1 C1.73783691 1.48879639 1.47567383 1.97759277 1.20556641 2.48120117 C0.0093398 4.715198 -1.18285861 6.95132067 -2.375 9.1875 C-2.7875 9.95642578 -3.2 10.72535156 -3.625 11.51757812 C-5.62877719 15.2827401 -7.53510452 18.98361075 -9 23 C-9.66 22.34 -10.32 21.68 -11 21 C-10.505 20.0925 -10.01 19.185 -9.5 18.25 C-7.72062788 14.99126962 -7.72062788 14.99126962 -8 11 C-7.34 11 -6.68 11 -6 11 C-4.02 7.37 -2.04 3.74 0 0 Z " fill="#B87B5B" transform="translate(236,269)"/>
<path d="M0 0 C1.875 0.3125 1.875 0.3125 4 1 C6.1519437 4.22791555 6.20086443 5.28400809 6 9 C3.625 8.6875 3.625 8.6875 1 8 C-1 5 -1 5 -0.625 2.3125 C-0.41875 1.549375 -0.2125 0.78625 0 0 Z " fill="#B87C5D" transform="translate(377,182)"/>
<path d="M0 0 C0 0.66 0 1.32 0 2 C-6.89715536 6.23632385 -6.89715536 6.23632385 -11.5 5.25 C-12.325 4.8375 -13.15 4.425 -14 4 C-10.71830109 -0.24690447 -5.03017099 -2.0120684 0 0 Z " fill="#BA7F60" transform="translate(449,260)"/>
<path d="M0 0 C2.97851562 0.53710938 2.97851562 0.53710938 5.95703125 1.07421875 C5.95703125 2.06421875 5.95703125 3.05421875 5.95703125 4.07421875 C-10.58858647 6.17524957 -10.58858647 6.17524957 -16.04296875 3.07421875 C-14.90408203 3.12642578 -14.90408203 3.12642578 -13.7421875 3.1796875 C-12.74832031 3.20675781 -11.75445312 3.23382813 -10.73046875 3.26171875 C-9.74433594 3.29652344 -8.75820313 3.33132812 -7.7421875 3.3671875 C-4.08533385 2.97027864 -3.43727938 0.12487248 0 0 Z " fill="#E8D3C4" transform="translate(410.04296875,237.92578125)"/>
<path d="M0 0 C4.875 0.875 4.875 0.875 6 2 C6.04080783 3.99958364 6.04254356 6.00045254 6 8 C4.68 8.33 3.36 8.66 2 9 C0.14223235 5.86501708 -0.20140476 3.62528568 0 0 Z " fill="#B97E5F" transform="translate(382,197)"/>
<path d="M0 0 C2.49361571 1.20381448 4.68143083 2.45428722 7 4 C6.67 5.65 6.34 7.3 6 9 C3.08482708 7.92598892 1.22189824 7.22189824 -1 5 C-0.625 2.375 -0.625 2.375 0 0 Z " fill="#B57656" transform="translate(368,171)"/>
<path d="M0 0 C1.98 0.66 3.96 1.32 6 2 C6.33 3.65 6.66 5.3 7 7 C3.625 6.75 3.625 6.75 0 6 C-1.4375 3.9375 -1.4375 3.9375 -2 2 C-1.34 1.34 -0.68 0.68 0 0 Z " fill="#B87B5B" transform="translate(357,164)"/>
<path d="M0 0 C1.98 0 3.96 0 6 0 C6.66 1.32 7.32 2.64 8 4 C6 6 6 6 3.5 6.25 C1 6 1 6 -1 4 C-0.625 1.875 -0.625 1.875 0 0 Z " fill="#BB8062" transform="translate(427,158)"/>
<path d="M0 0 C0.33 0 0.66 0 1 0 C0.98839844 0.89203125 0.97679687 1.7840625 0.96484375 2.703125 C0.95582031 3.87359375 0.94679688 5.0440625 0.9375 6.25 C0.92589844 7.41015625 0.91429687 8.5703125 0.90234375 9.765625 C0.98297981 12.43629132 1.31907613 14.45788423 2 17 C1.5625 19.75 1.5625 19.75 1 22 C0.34 21.34 -0.32 20.68 -1 20 C-1.66 20.99 -2.32 21.98 -3 23 C-2.6902353 20.1038504 -2.37728812 17.20810424 -2.0625 14.3125 C-1.97548828 13.49587891 -1.88847656 12.67925781 -1.79882812 11.83789062 C-1.36241272 7.84549781 -0.88697624 3.92347148 0 0 Z " fill="#D1A890" transform="translate(258,283)"/>
<path d="M0 0 C0.99 0.33 1.98 0.66 3 1 C2.36934243 4.21852831 1.21979305 6.50801069 -0.5625 9.25 C-1.01753906 9.95640625 -1.47257813 10.6628125 -1.94140625 11.390625 C-2.29074219 11.92171875 -2.64007813 12.4528125 -3 13 C-3.66 12.67 -4.32 12.34 -5 12 C-4.649375 11.38125 -4.29875 10.7625 -3.9375 10.125 C-3.628125 9.42375 -3.31875 8.7225 -3 8 C-3.33 7.34 -3.66 6.68 -4 6 C-2.68 4.02 -1.36 2.04 0 0 Z " fill="#B97C5D" transform="translate(242,255)"/>
<path d="M0 0 C1.134375 0.020625 2.26875 0.04125 3.4375 0.0625 C3.7675 1.7125 4.0975 3.3625 4.4375 5.0625 C1.7975 5.0625 -0.8425 5.0625 -3.5625 5.0625 C-4.125 3.125 -4.125 3.125 -4.5625 1.0625 C-3.5625 0.0625 -3.5625 0.0625 0 0 Z " fill="#B67756" transform="translate(346.5625,160.9375)"/>
<path d="M0 0 C0.33 0 0.66 0 1 0 C2.29526567 8.46904477 1.73598077 16.50791416 1 25 C0.67 25 0.34 25 0 25 C-1.48676266 16.82280536 -1.81036919 8.14666136 0 0 Z " fill="#D9B8A3" transform="translate(410,307)"/>
<path d="M0 0 C0 1.65 0 3.3 0 5 C-2.3125 5.625 -2.3125 5.625 -5 6 C-5.99 5.34 -6.98 4.68 -8 4 C-8 3.01 -8 2.02 -8 1 C-5.29120665 -0.35439668 -2.99066732 -0.06501451 0 0 Z " fill="#B97D5D" transform="translate(498,277)"/>
<path d="M0 0 C0 2 0 4 0 6 C-1.33333333 7.33333333 -2.66666667 8.66666667 -4 10 C-4.515625 11.051875 -5.03125 12.10375 -5.5625 13.1875 C-7 16 -7 16 -10 17 C-8.58010715 13.25912846 -6.90233408 9.76931806 -5 6.25 C-4.2265625 4.80367188 -4.2265625 4.80367188 -3.4375 3.328125 C-2 1 -2 1 0 0 Z " fill="#C59378" transform="translate(239,262)"/>
<path d="M0 0 C0.33 1.65 0.66 3.3 1 5 C-4.75 6.125 -4.75 6.125 -7 5 C-7 3.68 -7 2.36 -7 1 C-4.53721199 -0.231394 -2.7204945 -0.07159196 0 0 Z " fill="#B97D5D" transform="translate(336,160)"/>
<path d="M0 0 C-0.33 1.65 -0.66 3.3 -1 5 C-3.31 5.33 -5.62 5.66 -8 6 C-7.625 3.5625 -7.625 3.5625 -7 1 C-4.53721199 -0.231394 -2.7204945 -0.07159196 0 0 Z " fill="#B67858" transform="translate(411,163)"/>
<path d="M0 0 C1.46373047 0.02707031 1.46373047 0.02707031 2.95703125 0.0546875 C3.69308594 0.07789062 4.42914063 0.10109375 5.1875 0.125 C5.5175 0.785 5.8475 1.445 6.1875 2.125 C0.5775 3.115 -5.0325 4.105 -10.8125 5.125 C-10.8125 4.135 -10.8125 3.145 -10.8125 2.125 C-7.04027911 0.37336544 -4.145861 -0.09990027 0 0 Z " fill="#F6ECE1" transform="translate(380.8125,74.875)"/>
<path d="M0 0 C0.763125 0.20625 1.52625 0.4125 2.3125 0.625 C2.3125 1.945 2.3125 3.265 2.3125 4.625 C0.0025 4.955 -2.3075 5.285 -4.6875 5.625 C-5.0175 4.305 -5.3475 2.985 -5.6875 1.625 C-2.6875 -0.375 -2.6875 -0.375 0 0 Z " fill="#B67757" transform="translate(419.6875,159.375)"/>
<path d="M0 0 C0.33 0.66 0.66 1.32 1 2 C0.00390625 4.27734375 0.00390625 4.27734375 -1.4375 6.9375 C-3.54330981 10.74428811 -3.54330981 10.74428811 -4 15 C-4.99 15 -5.98 15 -7 15 C-5.19672131 5.26229508 -5.19672131 5.26229508 -2 1 C-1.34 0.67 -0.68 0.34 0 0 Z " fill="#E3C8B7" transform="translate(234,266)"/>
<path d="M0 0 C-1.22934015 3.68802044 -2.93859378 4.72356973 -6 7 C-6.33 6.01 -6.66 5.02 -7 4 C-8.65 4.33 -10.3 4.66 -12 5 C-8.86437565 1.16757024 -4.85172875 0 0 0 Z " fill="#C18C70" transform="translate(453,326)"/>
<path d="M0 0 C3.7952131 1.49097658 5.61042731 3.75700849 8 7 C7.01 7.495 7.01 7.495 6 8 C2.9375 6.8125 2.9375 6.8125 0 5 C-0.9375 2.875 -0.9375 2.875 -1 1 C-0.67 0.67 -0.34 0.34 0 0 Z " fill="#BE8668" transform="translate(456,302)"/>
<path d="M0 0 C0.66 0.33 1.32 0.66 2 1 C0.83102055 4.95654584 -0.41904169 7.79961169 -3 11 C-4.01656081 12.65661761 -5.02065076 14.32111559 -6 16 C-6.66 15.34 -7.32 14.68 -8 14 C-5.88822784 10.14055432 -4.10059901 7.10059901 -1 4 C-0.28552357 1.89667109 -0.28552357 1.89667109 0 0 Z " fill="#DDBFAC" transform="translate(408,260)"/>
<path d="M0 0 C1.69141656 0.08963062 3.37959602 0.24577676 5.0625 0.4375 C6.44115234 0.59025391 6.44115234 0.59025391 7.84765625 0.74609375 C8.55792969 0.82988281 9.26820313 0.91367188 10 1 C10 1.33 10 1.66 10 2 C1.09 2.99 1.09 2.99 -8 4 C-7.34 3.67 -6.68 3.34 -6 3 C-6 2.34 -6 1.68 -6 1 C-4.7934375 1.0309375 -4.7934375 1.0309375 -3.5625 1.0625 C-1.06645115 1.29633621 -1.06645115 1.29633621 0 0 Z " fill="#CB9D84" transform="translate(390,244)"/>
<path d="M0 0 C0.33 0.99 0.66 1.98 1 3 C-0.21484375 4.82421875 -0.21484375 4.82421875 -1.9375 6.6875 C-2.50339844 7.31011719 -3.06929688 7.93273437 -3.65234375 8.57421875 C-4.09707031 9.04472656 -4.54179687 9.51523437 -5 10 C-6.32 9.67 -7.64 9.34 -9 9 C-6.03 6.03 -3.06 3.06 0 0 Z " fill="#C49176" transform="translate(324,306)"/>
<path d="M0 0 C1 2 1 2 0.125 4.9375 C-0.24625 5.948125 -0.6175 6.95875 -1 8 C-1.33 8.99 -1.66 9.98 -2 11 C-3 12 -4 13 -5 14 C-5 14.66 -5 15.32 -5 16 C-5.99 15.67 -6.98 15.34 -8 15 C-7.01 12.36 -6.02 9.72 -5 7 C-4.34 7 -3.68 7 -3 7 C-2.690625 6.030625 -2.38125 5.06125 -2.0625 4.0625 C-1 1 -1 1 0 0 Z " fill="#BF886B" transform="translate(395,281)"/>
<path d="M0 0 C-3.32470588 4.80235294 -3.32470588 4.80235294 -6.5625 5.75 C-7.366875 5.8325 -8.17125 5.915 -9 6 C-9.99 6.33 -10.98 6.66 -12 7 C-10.1896099 1.56882971 -5.56166796 -0.65431388 0 0 Z " fill="#D8B5A0" transform="translate(319,316)"/>
<path d="M0 0 C0 0.66 0 1.32 0 2 C-0.9590625 2.1546875 -0.9590625 2.1546875 -1.9375 2.3125 C-2.618125 2.539375 -3.29875 2.76625 -4 3 C-4.33 3.99 -4.66 4.98 -5 6 C-7.31 6.33 -9.62 6.66 -12 7 C-8.85235503 2.39959581 -5.75710034 0 0 0 Z " fill="#EAD6C7" transform="translate(368,245)"/>
<path d="M0 0 C0.928125 0.20625 1.85625 0.4125 2.8125 0.625 C2.8125 1.945 2.8125 3.265 2.8125 4.625 C1.4925 4.955 0.1725 5.285 -1.1875 5.625 C-1.1875 4.635 -1.1875 3.645 -1.1875 2.625 C-2.8375 2.295 -4.4875 1.965 -6.1875 1.625 C-3.1875 -0.375 -3.1875 -0.375 0 0 Z " fill="#C08A6D" transform="translate(449.1875,291.375)"/>
<path d="M0 0 C0.66 0 1.32 0 2 0 C2 5.94 2 11.88 2 18 C1.67 18 1.34 18 1 18 C0.80533668 16.20909747 0.61948787 14.41723495 0.4375 12.625 C0.33308594 11.62726563 0.22867187 10.62953125 0.12109375 9.6015625 C0 7 0 7 1 5 C0.34 5 -0.32 5 -1 5 C-0.67 3.35 -0.34 1.7 0 0 Z " fill="#CA9C82" transform="translate(413,332)"/>
<path d="M0 0 C0.144375 0.639375 0.28875 1.27875 0.4375 1.9375 C0.81007181 3.97545146 0.81007181 3.97545146 2 5 C2 3.35 2 1.7 2 0 C3.65 0.33 5.3 0.66 7 1 C6.67 1.99 6.34 2.98 6 4 C5.67 4 5.34 4 5 4 C5 4.66 5 5.32 5 6 C1.25 7.125 1.25 7.125 -1 6 C-0.67 4.02 -0.34 2.04 0 0 Z " fill="#C08A6D" transform="translate(414,283)"/>
<path d="M0 0 C0.99 0.33 1.98 0.66 3 1 C2.360625 1.2475 1.72125 1.495 1.0625 1.75 C-1.19635114 2.78813195 -1.19635114 2.78813195 -1.5 5 C-2 7 -2 7 -4.0625 8.25 C-4.701875 8.4975 -5.34125 8.745 -6 9 C-6 6 -6 6 -4.6875 4.39453125 C-4.130625 3.87246094 -3.57375 3.35039062 -3 2.8125 C-2.443125 2.28269531 -1.88625 1.75289063 -1.3125 1.20703125 C-0.6628125 0.60955078 -0.6628125 0.60955078 0 0 Z " fill="#BA8061" transform="translate(458,407)"/>
<path d="M0 0 C0.66 0.33 1.32 0.66 2 1 C0.7143824 3.14967221 -0.57807905 5.29466349 -1.875 7.4375 C-2.23980469 8.04916016 -2.60460937 8.66082031 -2.98046875 9.29101562 C-5.7734375 13.88671875 -5.7734375 13.88671875 -8 15 C-6.51194289 9.19657726 -3.40902445 4.82409121 0 0 Z " fill="#BD8566" transform="translate(410,262)"/>
<path d="M0 0 C0.99 0 1.98 0 3 0 C2.52060632 4.71403788 2.03165952 8.66579301 0 13 C-0.66 12.01 -1.32 11.02 -2 10 C-1.5390625 7.95703125 -1.5390625 7.95703125 -0.625 5.8125 C-0.32851563 5.09707031 -0.03203125 4.38164062 0.2734375 3.64453125 C0.51320313 3.10183594 0.75296875 2.55914062 1 2 C0.34 1.67 -0.32 1.34 -1 1 C-0.67 0.67 -0.34 0.34 0 0 Z " fill="#BD8567" transform="translate(386,302)"/>
<path d="M0 0 C0.144375 0.61875 0.28875 1.2375 0.4375 1.875 C0.93152225 4.03258322 0.93152225 4.03258322 2 6 C2.66 6.33 3.32 6.66 4 7 C3.01 7.33 2.02 7.66 1 8 C0.26676204 10.01508358 0.26676204 10.01508358 0 12 C-0.66 12 -1.32 12 -2 12 C-1.85962479 10.18706911 -1.71255111 8.3746557 -1.5625 6.5625 C-1.48128906 5.55316406 -1.40007812 4.54382813 -1.31640625 3.50390625 C-1 1 -1 1 0 0 Z " fill="#CB9E84" transform="translate(344,310)"/>
<path d="M0 0 C0.33 0.66 0.66 1.32 1 2 C-0.98 4.64 -2.96 7.28 -5 10 C-5.66 9.67 -6.32 9.34 -7 9 C-5.44499019 5.18315774 -2.96404505 2.80804268 0 0 Z " fill="#C18B6F" transform="translate(560,306)"/>
<path d="M0 0 C1.12377697 3.30435084 0.89554742 5.0506862 -0.4375 8.25 C-0.72496094 8.95640625 -1.01242187 9.6628125 -1.30859375 10.390625 C-1.53675781 10.92171875 -1.76492188 11.4528125 -2 12 C-3.125 10.375 -3.125 10.375 -4 8 C-3.125 4.75 -3.125 4.75 -2 2 C-1.34 2 -0.68 2 0 2 C0 1.34 0 0.68 0 0 Z " fill="#D5B19B" transform="translate(354,295)"/>
<path d="M0 0 C2.46751239 3.70126859 2.30721156 5.62223532 2 10 C1 12.4375 1 12.4375 0 14 C-1.32162256 9.0439154 -0.65271521 5.05854291 0 0 Z " fill="#C6957A" transform="translate(263,256)"/>
<path d="M0 0 C0.66 0 1.32 0 2 0 C1.67 1.98 1.34 3.96 1 6 C0.34 6 -0.32 6 -1 6 C-1.33 7.32 -1.66 8.64 -2 10 C-2.66 10 -3.32 10 -4 10 C-3.67 8.02 -3.34 6.04 -3 4 C-2.34 4 -1.68 4 -1 4 C-0.67 2.68 -0.34 1.36 0 0 Z " fill="#BE8769" transform="translate(345,318)"/>
<path d="M0 0 C0.33 0.66 0.66 1.32 1 2 C-1 5 -1 5 -3.1640625 5.51171875 C-3.97617187 5.56972656 -4.78828125 5.62773437 -5.625 5.6875 C-6.85089844 5.78611328 -6.85089844 5.78611328 -8.1015625 5.88671875 C-8.72804688 5.92410156 -9.35453125 5.96148437 -10 6 C-7 4 -7 4 -4 4 C-4 3.01 -4 2.02 -4 1 C-2.68 0.67 -1.36 0.34 0 0 Z " fill="#DBBBA7" transform="translate(344,251)"/>
<path d="M0 0 C0.66 0.33 1.32 0.66 2 1 C-0.87164566 3.70272533 -2.30991841 4.94791837 -6.3125 5.25 C-7.199375 5.1675 -8.08625 5.085 -9 5 C-4.22727273 0 -4.22727273 0 0 0 Z " fill="#BD8466" transform="translate(550,320)"/>
<path d="M0 0 C0.99 0 1.98 0 3 0 C2.67 2.64 2.34 5.28 2 8 C1.01 7.67 0.02 7.34 -1 7 C-1.04254356 5.00045254 -1.04080783 2.99958364 -1 1 C-0.67 0.67 -0.34 0.34 0 0 Z " fill="#B57554" transform="translate(253,320)"/>
<path d="M0 0 C-0.99 0.495 -0.99 0.495 -2 1 C-2 1.66 -2 2.32 -2 3 C-4.64 3 -7.28 3 -10 3 C-9 1 -9 1 -6.6875 -0.1875 C-3.88010429 -1.03624754 -2.698065 -0.99928333 0 0 Z " fill="#D4AE98" transform="translate(436,239)"/>
<path d="M0 0 C1.32 0.66 2.64 1.32 4 2 C2.35830472 4.02054804 0.69088222 6.02043058 -1 8 C-1.33 8 -1.66 8 -2 8 C-2.125 5.125 -2.125 5.125 -2 2 C-1.34 1.34 -0.68 0.68 0 0 Z " fill="#B67858" transform="translate(439,361)"/>
<path d="M0 0 C0 0.66 0 1.32 0 2 C-1.3303125 2.433125 -1.3303125 2.433125 -2.6875 2.875 C-5.50382424 3.83148748 -8.25083156 4.86798946 -11 6 C-11 5.01 -11 4.02 -11 3 C-9.54293274 2.49632243 -8.08429904 1.99717444 -6.625 1.5 C-5.81289063 1.2215625 -5.00078125 0.943125 -4.1640625 0.65625 C-2 0 -2 0 0 0 Z " fill="#D2AA93" transform="translate(477,336)"/>
<path d="M0 0 C0.66 0.33 1.32 0.66 2 1 C-5.11389522 7.70387244 -5.11389522 7.70387244 -10 8 C-9.3125 6.0625 -9.3125 6.0625 -8 4 C-6.34385343 3.61781233 -4.67542976 3.28604898 -3 3 C-1.20614008 1.5420814 -1.20614008 1.5420814 0 0 Z " fill="#C7977C" transform="translate(319,316)"/>
<path d="M0 0 C1.60080151 4.00200378 0.29279692 7.04556236 -1 11 C-1.99 10.67 -2.98 10.34 -4 10 C-3.52449439 8.51965236 -3.04448784 7.04074979 -2.5625 5.5625 C-2.29566406 4.73878906 -2.02882813 3.91507812 -1.75390625 3.06640625 C-1 1 -1 1 0 0 Z " fill="#BB8061" transform="translate(380,312)"/>
<path d="M0 0 C2 2 2 2 2.1953125 3.9453125 C2.13020833 5.96354167 2.06510417 7.98177083 2 10 C1.34 10 0.68 10 0 10 C-0.33 10.66 -0.66 11.32 -1 12 C-2.21994269 8.34017193 -1.49026663 7.41884698 0 4 C0 3.34 0 2.68 0 2 C-0.66 1.67 -1.32 1.34 -2 1 C-1.34 0.67 -0.68 0.34 0 0 Z " fill="#C7967B" transform="translate(414,315)"/>
<path d="M0 0 C0.99 0.99 1.98 1.98 3 3 C2.39816251 5.02045442 1.72693904 7.02111039 1 9 C0.01 9.495 0.01 9.495 -1 10 C-0.67 6.7 -0.34 3.4 0 0 Z " fill="#BD8567" transform="translate(254,291)"/>
<path d="M0 0 C0.33 0.66 0.66 1.32 1 2 C-0.3125 4.625 -0.3125 4.625 -2 7 C-2.66 7 -3.32 7 -4 7 C-4.66 8.65 -5.32 10.3 -6 12 C-6.33 11.34 -6.66 10.68 -7 10 C-6.22265625 8.2734375 -6.22265625 8.2734375 -5.0625 6.375 C-4.381875 5.26125 -3.70125 4.1475 -3 3 C-2.34 3 -1.68 3 -1 3 C-0.67 2.01 -0.34 1.02 0 0 Z " fill="#DDBEAB" transform="translate(400,277)"/>
<path d="M0 0 C2.97 0.495 2.97 0.495 6 1 C5.67 1.99 5.34 2.98 5 4 C1.04 3.67 -2.92 3.34 -7 3 C-7 2.67 -7 2.34 -7 2 C-3.535 1.505 -3.535 1.505 0 1 C0 0.67 0 0.34 0 0 Z " fill="#E6D0C0" transform="translate(386,75)"/>
<path d="M0 0 C0.33 0.99 0.66 1.98 1 3 C-0.65 4.65 -2.3 6.3 -4 8 C-4.66 7.01 -5.32 6.02 -6 5 C-4.06745228 2.9754262 -2.36841312 1.57894208 0 0 Z " fill="#C08A6D" transform="translate(451,345)"/>
<path d="M0 0 C0.33 0 0.66 0 1 0 C1.05399736 1.45792884 1.09279177 2.91642712 1.125 4.375 C1.14820313 5.18710937 1.17140625 5.99921875 1.1953125 6.8359375 C1 9 1 9 -1 11 C-2.26264601 6.70700357 -1.62950412 4.12168689 0 0 Z " fill="#B47352" transform="translate(257,302)"/>
<path d="M0 0 C2.475 0.495 2.475 0.495 5 1 C4.67 2.32 4.34 3.64 4 5 C2.68 4.67 1.36 4.34 0 4 C0 2.68 0 1.36 0 0 Z " fill="#B87C5C" transform="translate(344,128)"/>
<path d="M0 0 C0.66 1.32 1.32 2.64 2 4 C-0.64 4 -3.28 4 -6 4 C-6.33 3.01 -6.66 2.02 -7 1 C-3.535 0.505 -3.535 0.505 0 0 Z " fill="#CDA28A" transform="translate(439,350)"/>
<path d="M0 0 C0.99 0.33 1.98 0.66 3 1 C2.34 2.98 1.68 4.96 1 7 C0.34 6.67 -0.32 6.34 -1 6 C-1.99 6.33 -2.98 6.66 -4 7 C-2.79618552 4.50638429 -1.54571278 2.31856917 0 0 Z " fill="#CEA48C" transform="translate(245,247)"/>
<path d="M0 0 C0.33 0 0.66 0 1 0 C1.1953125 2.01822917 1.390625 4.03645833 1.5859375 6.0546875 C1.86374749 8.22668245 1.86374749 8.22668245 4 10 C3.34 10 2.68 10 2 10 C2 10.99 2 11.98 2 13 C1.34 13 0.68 13 0 13 C0 8.71 0 4.42 0 0 Z " fill="#C28E72" transform="translate(248,349)"/>
<path d="M0 0 C0.66 0 1.32 0 2 0 C0.90931332 3.77545388 0.0916909 6.47043472 -3 9 C-3.33 8.34 -3.66 7.68 -4 7 C-3.22265625 5.2734375 -3.22265625 5.2734375 -2.0625 3.375 C-1.381875 2.26125 -0.70125 1.1475 0 0 Z " fill="#CA9C83" transform="translate(233,270)"/>
<path d="M0 0 C0.33 0 0.66 0 1 0 C1.05447047 1.41623216 1.09300508 2.83308191 1.125 4.25 C1.14820313 5.03890625 1.17140625 5.8278125 1.1953125 6.640625 C0.9828378 9.20731941 0.28654105 10.7916067 -1 13 C-1.33 10.36 -1.66 7.72 -2 5 C-1.34 5 -0.68 5 0 5 C0 3.35 0 1.7 0 0 Z " fill="#ECD9CB" transform="translate(412,300)"/>
<path d="M0 0 C0.99 0.33 1.98 0.66 3 1 C2.67 2.65 2.34 4.3 2 6 C1.01 6 0.02 6 -1 6 C-1.042721 4.33388095 -1.04063832 2.66617115 -1 1 C-0.67 0.67 -0.34 0.34 0 0 Z " fill="#B47352" transform="translate(414,301)"/>
<path d="M0 0 C1.98 0.495 1.98 0.495 4 1 C3.67 2.32 3.34 3.64 3 5 C1.68 4.34 0.36 3.68 -1 3 C-0.67 2.01 -0.34 1.02 0 0 Z " fill="#B47554" transform="translate(418,128)"/>
<path d="M0 0 C0.99 0 1.98 0 3 0 C2.67 2.31 2.34 4.62 2 7 C1.01 7 0.02 7 -1 7 C-0.67 4.69 -0.34 2.38 0 0 Z " fill="#BF886B" transform="translate(479,361)"/>
<path d="M0 0 C0.33 0.66 0.66 1.32 1 2 C0.34 1.67 -0.32 1.34 -1 1 C-0.67 0.67 -0.34 0.34 0 0 Z M-2 2 C-1.01 2.66 -0.02 3.32 1 4 C0.34 4.66 -0.32 5.32 -1 6 C-2.32 6 -3.64 6 -5 6 C-4.67 5.01 -4.34 4.02 -4 3 C-3.34 2.67 -2.68 2.34 -2 2 Z " fill="#BA7F60" transform="translate(458,340)"/>
<path d="M0 0 C0.33 0.66 0.66 1.32 1 2 C0.22265625 3.9453125 0.22265625 3.9453125 -0.9375 6.125 C-1.31777344 6.84945313 -1.69804687 7.57390625 -2.08984375 8.3203125 C-2.39019531 8.87460937 -2.69054687 9.42890625 -3 10 C-4 8 -4 8 -3.1875 4.4375 C-2 1 -2 1 0 0 Z " fill="#E2C7B6" transform="translate(387,303)"/>
<path d="M0 0 C4.75 0.875 4.75 0.875 7 2 C6.67 2.99 6.34 3.98 6 5 C4.02 4.01 2.04 3.02 0 2 C0 1.34 0 0.68 0 0 Z " fill="#F4E8DE" transform="translate(392,77)"/>
<path d="M0 0 C2 3 2 3 1.75 6.0625 C1 9 1 9 -1 11 C-1.125 3.375 -1.125 3.375 0 0 Z " fill="#C49176" transform="translate(475,376)"/>
<path d="M0 0 C0.33 0 0.66 0 1 0 C1.33 3.3 1.66 6.6 2 10 C1.01 10.495 1.01 10.495 0 11 C-1.05404945 7.01803543 -0.84098656 4.01804691 0 0 Z " fill="#DEC0AD" transform="translate(410,307)"/>
<path d="M0 0 C1 3 1 3 0.1875 5.625 C-1 8 -1 8 -3 9 C-2.25 2.25 -2.25 2.25 0 0 Z " fill="#B47554" transform="translate(255,299)"/>
<path d="M0 0 C0.99 0.33 1.98 0.66 3 1 C3 3.64 3 6.28 3 9 C2.34 8.67 1.68 8.34 1 8 C1.33 6.35 1.66 4.7 2 3 C1.34 3 0.68 3 0 3 C0 2.01 0 1.02 0 0 Z " fill="#B37150" transform="translate(344,287)"/>
<path d="M0 0 C0.66 0 1.32 0 2 0 C0.25 5.75 0.25 5.75 -2 8 C-3 5 -3 5 -1.6875 2.3125 C-1.130625 1.549375 -0.57375 0.78625 0 0 Z " fill="#C6957A" transform="translate(226,284)"/>
<path d="M0 0 C0.99 0.33 1.98 0.66 3 1 C2.01 2.485 2.01 2.485 1 4 C0.34 4 -0.32 4 -1 4 C-1.33 4.99 -1.66 5.98 -2 7 C-2.33 6.01 -2.66 5.02 -3 4 C-1.5625 1.8125 -1.5625 1.8125 0 0 Z " fill="#C18B6E" transform="translate(405,263)"/>
<path d="M0 0 C-0.99 1.485 -0.99 1.485 -2 3 C-2.66 3 -3.32 3 -4 3 C-4 2.34 -4 1.68 -4 1 C-5.98 1.33 -7.96 1.66 -10 2 C-7.85732894 -2.28534211 -3.95706306 -0.79141261 0 0 Z " fill="#BD8466" transform="translate(339,257)"/>
</svg>
