<?xml version="1.0" encoding="UTF-8"?>
<svg version="1.1" xmlns="http://www.w3.org/2000/svg" width="400" height="400">
<path d="M0 0 C132 0 264 0 400 0 C400 132 400 264 400 400 C268 400 136 400 0 400 C0 268 0 136 0 0 Z " fill="#461901" transform="translate(0,0)"/>
<path d="M0 0 C10.23454728 0.19606412 19.13507765 4.35075861 26.4375 11.3125 C27.28248047 12.09753906 27.28248047 12.09753906 28.14453125 12.8984375 C35.91514589 20.96413877 37.85140423 30.21511775 37.75 41.0625 C37.68578923 44.14983054 37.57469545 47.22712673 37.4375 50.3125 C48.49451885 54.10347789 58.98136124 53.8849112 70.4375 52.3125 C71.4375 53.3125 71.4375 53.3125 71.4379425 55.27326965 C70.73518133 63.62284182 68.93456714 71.63571264 66.98046875 79.76171875 C66.63237475 81.22889812 66.28466997 82.69616987 65.93733215 84.16352844 C65.2119514 87.2197217 64.48088655 90.27448447 63.74584961 93.32836914 C62.80929278 97.22217883 61.88875738 101.11957585 60.97263622 105.01823711 C60.25983906 108.04240325 59.53774363 111.06429236 58.81298256 114.08561134 C58.46991249 115.52126036 58.12984802 116.95763137 57.79298973 118.3947506 C53.11662961 138.2902468 53.11662961 138.2902468 44.4375 144.3125 C40.21348551 146.44790757 36.2963433 146.60889277 31.65307617 146.60302734 C30.88491074 146.60974457 30.1167453 146.61646179 29.32530212 146.62338257 C26.79362462 146.64233178 24.2622127 146.64628533 21.73046875 146.6484375 C19.9631591 146.65486808 18.19585052 146.66159664 16.42854309 146.66860962 C12.72569309 146.68057505 9.02293633 146.68429125 5.32006836 146.68310547 C0.58899899 146.68290244 -4.14146861 146.71019104 -8.87239552 146.74464989 C-12.52282932 146.76695383 -16.17311917 146.77094192 -19.82361412 146.76988602 C-21.56703449 146.77223723 -23.31045912 146.78103363 -25.05381203 146.79655075 C-27.49959317 146.81628009 -29.94408804 146.81034618 -32.38989258 146.79833984 C-33.10133423 146.80957886 -33.81277588 146.82081787 -34.54577637 146.83239746 C-39.94349698 146.76550265 -44.13485478 145.29953995 -48.5625 142.3125 C-52.82690792 137.8856473 -54.5718773 133.11332516 -55.921875 127.21484375 C-56.11265121 126.43917557 -56.30342743 125.66350739 -56.49998474 124.86433411 C-57.11934765 122.32962675 -57.71635155 119.79025824 -58.3125 117.25 C-58.7388013 115.47985648 -59.16630936 113.71000318 -59.5949707 111.94042969 C-60.48244696 108.26490272 -61.36016557 104.58722912 -62.23095703 100.90771484 C-63.32689496 96.28486588 -64.44985961 91.66916535 -65.58450317 87.05567932 C-66.44295781 83.56212651 -67.29281736 80.06652278 -68.14050293 76.57034302 C-68.54549766 74.90394749 -68.95295287 73.23814794 -69.36291504 71.57296753 C-69.93207418 69.25386295 -70.48912385 66.93217733 -71.04296875 64.609375 C-71.21324081 63.92575394 -71.38351288 63.24213287 -71.5589447 62.53779602 C-72.35055772 59.16133074 -72.83118489 56.60472948 -71.5625 53.3125 C-67.0470815 52.18364537 -67.0470815 52.18364537 -64.84375 52.76953125 C-56.54656985 54.74437378 -47.18074239 54.04388403 -39.5625 50.3125 C-39.52382812 48.80623047 -39.52382812 48.80623047 -39.484375 47.26953125 C-38.99601639 33.93799666 -37.11864975 22.31500919 -27.5625 12.3125 C-27.02753906 11.74917969 -26.49257812 11.18585937 -25.94140625 10.60546875 C-18.70854624 3.75419848 -9.71098468 0.85184076 0 0 Z " fill="#F9F0DE" transform="translate(202.5625,18.6875)"/>
<path d="M0 0 C2.06247149 2.12139924 3.33462494 3.43551232 4.1875 6.25 C4.125 8.875 4.125 8.875 3.1875 11.25 C0.625 12.5625 0.625 12.5625 -1.8125 13.25 C-1.4825 10.94 -1.1525 8.63 -0.8125 6.25 C-22.51263803 8.18338996 -41.85384492 15.60938097 -60.5 26.8125 C-61.23009277 27.2470752 -61.96018555 27.68165039 -62.71240234 28.12939453 C-68.77765035 31.89756133 -75.05517049 36.43515729 -77.8125 43.25 C-77.90142339 46.38362718 -77.90142339 46.38362718 -76.8125 49.25 C-74.64325548 50.57006573 -74.64325548 50.57006573 -71.8125 51.25 C-70.719375 51.765625 -69.62625 52.28125 -68.5 52.8125 C-64.43686574 54.39643369 -61.13279041 54.87102716 -56.8125 55.25 C-55.8225 57.725 -55.8225 57.725 -54.8125 60.25 C-55.8025 60.745 -55.8025 60.745 -56.8125 61.25 C-55.95978516 61.86875 -55.95978516 61.86875 -55.08984375 62.5 C-45.80008691 69.44793166 -38.34906498 76.69795173 -36.43359375 88.60546875 C-36.12271222 94.43199024 -37.90905156 98.25969799 -40.8125 103.25 C-40.17183594 102.97285156 -39.53117188 102.69570313 -38.87109375 102.41015625 C-33.79473263 100.28428818 -29.30098012 98.72725914 -23.8125 98.25 C-22.93998557 92.25146328 -22.70277078 86.36418142 -22.6875 80.3125 C-22.68298828 79.55461182 -22.67847656 78.79672363 -22.67382812 78.01586914 C-22.59838144 74.00282602 -22.59838144 74.00282602 -23.8125 70.25 C-22.8225 68.765 -22.8225 68.765 -21.8125 67.25 C-18.75 67 -18.75 67 -15.8125 67.25 C-14.00285001 69.05964999 -14.68032912 71.52109598 -14.67358398 73.92749023 C-14.67817627 74.69391846 -14.68276855 75.46034668 -14.6875 76.25 C-14.69148804 77.40834351 -14.69148804 77.40834351 -14.69555664 78.59008789 C-14.80905648 92.24311296 -14.80905648 92.24311296 -16.8125 96.25 C-14.1725 96.58 -11.5325 96.91 -8.8125 97.25 C-9.163125 96.734375 -9.51375 96.21875 -9.875 95.6875 C-11.48851396 91.4923637 -10.50796563 88.03362952 -8.90625 83.92578125 C-5.7249606 77.07956049 -1.29398338 69.0994981 5.21484375 64.9609375 C8.45223791 63.79419347 10.90637488 64.42971872 14.1875 65.25 C16.625 67 16.625 67 18.1875 69.25 C18.4375 72 18.4375 72 18.1875 74.25 C18.826875 74.394375 19.46625 74.53875 20.125 74.6875 C22.1875 75.25 22.1875 75.25 23.1875 76.25 C23.09718426 78.60694954 22.94061872 80.96153582 22.75 83.3125 C22.64816406 84.60285156 22.54632813 85.89320313 22.44140625 87.22265625 C22.35761719 88.22167969 22.27382813 89.22070312 22.1875 90.25 C34.81150607 85.61478965 42.95678589 78.87351045 52.1875 69.25 C52.83984375 71.05859375 52.83984375 71.05859375 53.1875 73.25 C51.56623325 75.28697617 49.89890469 77.28814584 48.1875 79.25 C48.1875 80.24 48.1875 81.23 48.1875 82.25 C42.43446591 89.08595815 32.15901288 96.24810516 23.1875 97.25 C20.4375 96.5 20.4375 96.5 18.1875 94.25 C17.44891511 90.58942231 17.25712853 86.97829139 17.1875 83.25 C11.83660972 87.09914178 6.89720384 91.22041489 2.0703125 95.7109375 C0.1875 97.25 0.1875 97.25 -1.8125 97.25 C-1.8125 97.91 -1.8125 98.57 -1.8125 99.25 C-1.07 99.4975 -0.3275 99.745 0.4375 100 C3.38874062 101.34147301 5.03564974 102.85905526 7.1875 105.25 C6.8575 105.91 6.5275 106.57 6.1875 107.25 C4.9809375 106.074375 4.9809375 106.074375 3.75 104.875 C-2.1410712 99.98194557 -9.47329202 99.98311971 -16.8125 100.25 C-16.93109375 101.33410156 -17.0496875 102.41820312 -17.171875 103.53515625 C-19.87843413 125.07879912 -25.1718594 146.26669752 -35.8125 165.25 C-36.28300781 166.10078125 -36.75351562 166.9515625 -37.23828125 167.828125 C-43.32204753 177.80621955 -53.5205762 188.63176006 -64.8125 192.25 C-71.40438502 193.30353101 -77.70134701 193.62592015 -83.4375 189.8125 C-88.38328502 185.34328955 -91.11920747 178.83627906 -91.8125 172.25 C-92.07431103 166.72440922 -91.27716536 162.22606939 -89.6875 157 C-89.3464624 155.87803223 -89.3464624 155.87803223 -88.99853516 154.73339844 C-84.89864194 141.78901127 -77.33816496 131.77566496 -67.8125 122.25 C-68.84310547 122.30220703 -68.84310547 122.30220703 -69.89453125 122.35546875 C-70.79558594 122.38253906 -71.69664062 122.40960938 -72.625 122.4375 C-73.96498047 122.48970703 -73.96498047 122.48970703 -75.33203125 122.54296875 C-77.8125 122.25 -77.8125 122.25 -79.57421875 120.92578125 C-82.37241117 117.13895303 -82.37106562 112.76020895 -81.8125 108.25 C-78.54140057 99.77487875 -70.8915489 95.54630147 -62.9375 91.8125 C-59.79154587 90.42526192 -58.43712264 90.25 -54.8125 90.25 C-56.9871708 96.7740124 -63.81034144 100.64523137 -69.171875 104.58789062 C-72.21662821 106.87145553 -74.82529567 108.9732269 -76.8125 112.25 C-76.8125 112.91 -76.8125 113.57 -76.8125 114.25 C-66.82090307 114.90162589 -59.33645903 111.63887901 -51.8125 105.25 C-51.255625 104.82460938 -50.69875 104.39921875 -50.125 103.9609375 C-45.08792341 100.05720314 -41.87702421 96.10325988 -40.875 89.75 C-40.55263143 85.49473484 -41.54786212 82.90826118 -43.8125 79.25 C-44.1425 78.26 -44.4725 77.27 -44.8125 76.25 C-46.12614456 75.54532974 -47.46394366 74.88530938 -48.8125 74.25 C-51.22309847 72.36398773 -53.55034874 70.39489722 -55.88671875 68.41796875 C-63.64949431 62.66584533 -69.13928086 60.497123 -78.875 60.9375 C-79.83599609 60.96005859 -80.79699219 60.98261719 -81.78710938 61.00585938 C-84.1306018 61.06415521 -86.47067223 61.14589741 -88.8125 61.25 C-90.57556785 76.13760752 -92.10804631 90.92818873 -92.125 105.9375 C-92.13015625 107.01491455 -92.1353125 108.0923291 -92.140625 109.20239258 C-92.06448711 117.89502877 -91.24364304 126.19720717 -87.8125 134.25 C-90.0625 134.125 -90.0625 134.125 -92.8125 133.25 C-97.61922955 127.48192454 -98.98385593 121.61830478 -98.8125 114.25 C-99.1425 113.59 -99.4725 112.93 -99.8125 112.25 C-100.06043954 108.58966228 -100.00223662 104.91777151 -100 101.25 C-100.00064453 100.17306885 -100.00128906 99.0961377 -100.00195312 97.98657227 C-99.94925132 89.90343234 -99.33542858 82.03032564 -98.25 74.02734375 C-97.82930399 70.39508444 -97.73650625 66.90244975 -97.8125 63.25 C-100.41716582 63.72657292 -103.02121714 64.20614719 -105.625 64.6875 C-106.36298828 64.82220703 -107.10097656 64.95691406 -107.86132812 65.09570312 C-110.92565076 65.66419737 -113.85178953 66.26309651 -116.8125 67.25 C-118.16744082 69.63400694 -118.16744082 69.63400694 -119.30078125 72.62109375 C-119.98539429 74.3067041 -119.98539429 74.3067041 -120.68383789 76.02636719 C-121.15942139 77.23454102 -121.63500488 78.44271484 -122.125 79.6875 C-122.61411865 80.90985352 -123.1032373 82.13220703 -123.60717773 83.39160156 C-128.27378648 95.17391729 -132.38348034 107.05090701 -135.8125 119.25 C-138.1875 119.875 -138.1875 119.875 -140.8125 120.25 C-141.8025 119.26 -141.8025 119.26 -142.8125 118.25 C-142.8125 101.99479436 -132.22974739 84.73736444 -125.8125 70.25 C-130.0944471 70.75031171 -134.2534666 71.25473875 -138.4375 72.3125 C-143.1727859 73.40651433 -147.13477027 73.80924324 -151.8125 72.25 C-152.14459473 73.36745605 -152.47668945 74.48491211 -152.81884766 75.63623047 C-154.07954554 79.8754011 -155.34417834 84.11339016 -156.60986328 88.35107422 C-157.15191385 90.16782304 -157.6929674 91.98486971 -158.23291016 93.80224609 C-161.86734912 106.03209935 -165.69818076 118.17283947 -169.8125 130.25 C-174.6875 129.375 -174.6875 129.375 -175.8125 128.25 C-175.53750952 123.39183479 -174.56378532 119.32156138 -172.9296875 114.7421875 C-170.80017107 108.46665056 -169.37529607 102.18823552 -168.125 95.6875 C-167.91294922 94.64142578 -167.70089844 93.59535156 -167.48242188 92.51757812 C-163.94706767 74.55084115 -161.87554647 54.12939462 -171.125 37.4375 C-174.55922468 32.68403047 -179.09386412 31.7083029 -184.5625 30.25 C-189.37648062 29.73388122 -193.03979272 31.91196299 -197.19921875 34.12109375 C-199.9902017 35.32676501 -201.80704302 35.55001935 -204.8125 35.25 C-205.8125 34.25 -205.8125 34.25 -205.875 30.6875 C-205.854375 29.553125 -205.83375 28.41875 -205.8125 27.25 C-199.47303107 23.50069783 -193.95026648 21.73363892 -186.6640625 20.85546875 C-180.90247971 19.94974326 -175.31954257 18.3976958 -169.70361328 16.83789062 C-165.34800303 15.6773075 -162.24684074 14.92384202 -157.8125 16.25 C-154.61203558 15.90952506 -151.9032003 15.28280649 -148.875 14.1875 C-145.3933214 13.12168002 -142.43323528 13.10517059 -138.8125 13.25 C-138.4825 11.93 -138.1525 10.61 -137.8125 9.25 C-133.70100267 8.07528648 -131.65575282 8.476191 -127.8125 10.25 C-126.48573492 10.60858516 -125.15414079 10.9518576 -123.8125 11.25 C-123.8125 10.59 -123.8125 9.93 -123.8125 9.25 C-122.88566406 9.12882813 -121.95882812 9.00765625 -121.00390625 8.8828125 C-119.80636719 8.71523437 -118.60882813 8.54765625 -117.375 8.375 C-116.18003906 8.21257812 -114.98507813 8.05015625 -113.75390625 7.8828125 C-112.78324219 7.67398438 -111.81257813 7.46515625 -110.8125 7.25 C-110.4825 6.59 -110.1525 5.93 -109.8125 5.25 C-109.12929687 5.42015625 -108.44609375 5.5903125 -107.7421875 5.765625 C-101.28692496 6.83289507 -93.04509503 6.7267702 -87.125 3.6875 C-81.96507976 1.44828933 -75.87991648 1.12405296 -70.53515625 3.0859375 C-68.8125 4.25 -68.8125 4.25 -67.9375 7.1875 C-67.8125 10.25 -67.8125 10.25 -69.8125 13.25 C-70.4725 13.25 -71.1325 13.25 -71.8125 13.25 C-71.8125 13.91 -71.8125 14.57 -71.8125 15.25 C-74.1225 15.58 -76.4325 15.91 -78.8125 16.25 C-80.98732598 24.31276948 -82.73593219 32.45156242 -84.4375 40.625 C-84.65559326 41.67107422 -84.87368652 42.71714844 -85.09838867 43.79492188 C-86.09123493 48.60133192 -87.06224403 53.39834472 -87.8125 58.25 C-84.5125 58.25 -81.2125 58.25 -77.8125 58.25 C-80.7825 57.92 -83.7525 57.59 -86.8125 57.25 C-86.8125 56.92 -86.8125 56.59 -86.8125 56.25 C-83.5125 55.59 -80.2125 54.93 -76.8125 54.25 C-77.6375 53.445625 -78.4625 52.64125 -79.3125 51.8125 C-82.10260985 48.44211089 -82.50077898 45.78855398 -82.2265625 41.48046875 C-81.55314856 37.85292764 -80.03359606 35.11528102 -77.8125 32.25 C-77.39613281 31.70988281 -76.97976562 31.16976562 -76.55078125 30.61328125 C-64.79281345 17.37399468 -17.10977532 -10.64608242 0 0 Z " fill="#F9F1DF" transform="translate(327.8125,185.75)"/>
<path d="M0 0 C1.72265625 1.1640625 1.72265625 1.1640625 2.59765625 4.1015625 C2.72265625 7.1640625 2.72265625 7.1640625 0.72265625 10.1640625 C0.06265625 10.1640625 -0.59734375 10.1640625 -1.27734375 10.1640625 C-1.27734375 10.8240625 -1.27734375 11.4840625 -1.27734375 12.1640625 C-3.58734375 12.4940625 -5.89734375 12.8240625 -8.27734375 13.1640625 C-10.45216973 21.22683198 -12.20077594 29.36562492 -13.90234375 37.5390625 C-14.12043701 38.58513672 -14.33853027 39.63121094 -14.56323242 40.70898438 C-15.55607868 45.51539442 -16.52708778 50.31240722 -17.27734375 55.1640625 C-15.62734375 55.8240625 -13.97734375 56.4840625 -12.27734375 57.1640625 C-12.27734375 57.4940625 -12.27734375 57.8240625 -12.27734375 58.1640625 C-14.25734375 58.1640625 -16.23734375 58.1640625 -18.27734375 58.1640625 C-20.0404116 73.05167002 -21.57289006 87.84225123 -21.58984375 102.8515625 C-21.595 103.92897705 -21.60015625 105.0063916 -21.60546875 106.11645508 C-21.52933086 114.80909127 -20.70848679 123.11126967 -17.27734375 131.1640625 C-19.52734375 131.0390625 -19.52734375 131.0390625 -22.27734375 130.1640625 C-27.0840733 124.39598704 -28.44869968 118.53236728 -28.27734375 111.1640625 C-28.60734375 110.5040625 -28.93734375 109.8440625 -29.27734375 109.1640625 C-29.52528329 105.50372478 -29.46708037 101.83183401 -29.46484375 98.1640625 C-29.46548828 97.08713135 -29.46613281 96.0102002 -29.46679688 94.90063477 C-29.41409507 86.81749484 -28.80027233 78.94438814 -27.71484375 70.94140625 C-27.29414774 67.30914694 -27.20135 63.81651225 -27.27734375 60.1640625 C-29.88200957 60.64063542 -32.48606089 61.12020969 -35.08984375 61.6015625 C-35.82783203 61.73626953 -36.56582031 61.87097656 -37.32617188 62.00976562 C-40.39049451 62.57825987 -43.31663328 63.17715901 -46.27734375 64.1640625 C-47.63228457 66.54806944 -47.63228457 66.54806944 -48.765625 69.53515625 C-49.45023804 71.2207666 -49.45023804 71.2207666 -50.14868164 72.94042969 C-50.62426514 74.14860352 -51.09984863 75.35677734 -51.58984375 76.6015625 C-52.0789624 77.82391602 -52.56808105 79.04626953 -53.07202148 80.30566406 C-57.73863023 92.08797979 -61.84832409 103.96496951 -65.27734375 116.1640625 C-67.65234375 116.7890625 -67.65234375 116.7890625 -70.27734375 117.1640625 C-71.26734375 116.1740625 -71.26734375 116.1740625 -72.27734375 115.1640625 C-72.27734375 98.90885686 -61.69459114 81.65142694 -55.27734375 67.1640625 C-59.55929085 67.66437421 -63.71831035 68.16880125 -67.90234375 69.2265625 C-72.63762965 70.32057683 -76.59961402 70.72330574 -81.27734375 69.1640625 C-81.60943848 70.28151855 -81.9415332 71.39897461 -82.28369141 72.55029297 C-83.54438929 76.7894636 -84.80902209 81.02745266 -86.07470703 85.26513672 C-86.6167576 87.08188554 -87.15781115 88.89893221 -87.69775391 90.71630859 C-91.33219287 102.94616185 -95.16302451 115.08690197 -99.27734375 127.1640625 C-104.15234375 126.2890625 -104.15234375 126.2890625 -105.27734375 125.1640625 C-105.00235327 120.30589729 -104.02862907 116.23562388 -102.39453125 111.65625 C-100.26501482 105.38071306 -98.84013982 99.10229802 -97.58984375 92.6015625 C-97.37779297 91.55548828 -97.16574219 90.50941406 -96.94726562 89.43164062 C-93.41191142 71.46490365 -91.34039022 51.04345712 -100.58984375 34.3515625 C-104.02406843 29.59809297 -108.55870787 28.6223654 -114.02734375 27.1640625 C-118.84132437 26.64794372 -122.50463647 28.82602549 -126.6640625 31.03515625 C-129.45504545 32.24082751 -131.27188677 32.46408185 -134.27734375 32.1640625 C-135.27734375 31.1640625 -135.27734375 31.1640625 -135.33984375 27.6015625 C-135.31921875 26.4671875 -135.29859375 25.3328125 -135.27734375 24.1640625 C-128.93787482 20.41476033 -123.41511023 18.64770142 -116.12890625 17.76953125 C-110.36732346 16.86380576 -104.78438632 15.3117583 -99.16845703 13.75195312 C-94.81284678 12.59137 -91.71168449 11.83790452 -87.27734375 13.1640625 C-84.07687933 12.82358756 -81.36804405 12.19686899 -78.33984375 11.1015625 C-74.85816515 10.03574252 -71.89807903 10.01923309 -68.27734375 10.1640625 C-67.94734375 8.8440625 -67.61734375 7.5240625 -67.27734375 6.1640625 C-63.16584642 4.98934898 -61.12059657 5.3902535 -57.27734375 7.1640625 C-55.95057867 7.52264766 -54.61898454 7.8659201 -53.27734375 8.1640625 C-53.27734375 7.5040625 -53.27734375 6.8440625 -53.27734375 6.1640625 C-52.35050781 6.04289063 -51.42367187 5.92171875 -50.46875 5.796875 C-49.27121094 5.62929687 -48.07367188 5.46171875 -46.83984375 5.2890625 C-45.04740234 5.04542969 -45.04740234 5.04542969 -43.21875 4.796875 C-42.24808594 4.58804688 -41.27742188 4.37921875 -40.27734375 4.1640625 C-39.94734375 3.5040625 -39.61734375 2.8440625 -39.27734375 2.1640625 C-38.59414062 2.33421875 -37.9109375 2.504375 -37.20703125 2.6796875 C-30.75176871 3.74695757 -22.50993878 3.6408327 -16.58984375 0.6015625 C-11.42992351 -1.63764817 -5.34476023 -1.96188454 0 0 Z " fill="#F8EFDE" transform="translate(257.27734375,188.8359375)"/>
<path d="M0 0 C3.02419525 0.58803797 6.01758453 1.22678118 9 2 C8.01 2 7.02 2 6 2 C6 2.66 6 3.32 6 4 C0.32349791 6.30547354 -5.33359751 6.64948316 -11.375 7.125 C-12.39722656 7.21136719 -13.41945313 7.29773438 -14.47265625 7.38671875 C-16.98130112 7.59772626 -19.49030455 7.80194994 -22 8 C-22.26937378 8.83640015 -22.26937378 8.83640015 -22.54418945 9.68969727 C-24.00315516 14.15227744 -25.57371514 18.52730471 -27.34741211 22.87353516 C-32.40863981 35.30818177 -36.18494213 48.13968351 -40 61 C-32.39797748 59.95680275 -24.83383 58.85470806 -17.3046875 57.3671875 C-15 57 -15 57 -11 57 C-10.67 56.01 -10.34 55.02 -10 54 C-9.67 54.66 -9.34 55.32 -9 56 C-6.39391727 53.4837822 -4.10618315 50.94865641 -2 48 C-2.875 52.75 -2.875 52.75 -4 55 C-2.95199219 54.7834375 -1.90398437 54.566875 -0.82421875 54.34375 C0.55465627 54.06234693 1.93356426 53.78110536 3.3125 53.5 C4.00279297 53.35691406 4.69308594 53.21382812 5.40429688 53.06640625 C8.32524773 52.47374956 11.01108122 52 14 52 C14.66 50.68 15.32 49.36 16 48 C16.8125 49.625 16.8125 49.625 17 52 C14.4606578 55.89165462 12.72625797 58.16531998 8.1171875 59.20703125 C6.70697307 59.4341887 5.292402 59.63564747 3.875 59.8125 C2.4555353 60.0260591 1.03625604 60.24085539 -0.3828125 60.45703125 C-1.57648438 60.63621094 -2.77015625 60.81539062 -4 61 C-7.16324757 61.67545493 -7.16324757 61.67545493 -8.25512695 64.30639648 C-8.66206787 65.31774658 -9.06900879 66.32909668 -9.48828125 67.37109375 C-10.17289429 69.0567041 -10.17289429 69.0567041 -10.87133789 70.77636719 C-11.34692139 71.98454102 -11.82250488 73.19271484 -12.3125 74.4375 C-12.80161865 75.65985352 -13.2907373 76.88220703 -13.79467773 78.14160156 C-18.46128648 89.92391729 -22.57098034 101.80090701 -26 114 C-28.375 114.625 -28.375 114.625 -31 115 C-31.99 114.01 -31.99 114.01 -33 113 C-33 96.74479436 -22.41724739 79.48736444 -16 65 C-20.2819471 65.50031171 -24.4409666 66.00473875 -28.625 67.0625 C-33.3602859 68.15651433 -37.32227027 68.55924324 -42 67 C-42.33209473 68.11745605 -42.66418945 69.23491211 -43.00634766 70.38623047 C-44.26704554 74.6254011 -45.53167834 78.86339016 -46.79736328 83.10107422 C-47.33941385 84.91782304 -47.8804674 86.73486971 -48.42041016 88.55224609 C-52.05484912 100.78209935 -55.88568076 112.92283947 -60 125 C-64.875 124.125 -64.875 124.125 -66 123 C-65.72500952 118.14183479 -64.75128532 114.07156138 -63.1171875 109.4921875 C-60.98767107 103.21665056 -59.56279607 96.93823552 -58.3125 90.4375 C-58.10044922 89.39142578 -57.88839844 88.34535156 -57.66992188 87.26757812 C-54.13456767 69.30084115 -52.06304647 48.87939462 -61.3125 32.1875 C-64.74672468 27.43403047 -69.28136412 26.4583029 -74.75 25 C-79.56398062 24.48388122 -83.22729272 26.66196299 -87.38671875 28.87109375 C-90.1777017 30.07676501 -91.99454302 30.30001935 -95 30 C-96 29 -96 29 -96.0625 25.4375 C-96.041875 24.303125 -96.02125 23.16875 -96 22 C-89.66053107 18.25069783 -84.13776648 16.48363892 -76.8515625 15.60546875 C-71.08997971 14.69974326 -65.50704257 13.1476958 -59.89111328 11.58789062 C-55.53550303 10.4273075 -52.43434074 9.67384202 -48 11 C-44.79953558 10.65952506 -42.0907003 10.03280649 -39.0625 8.9375 C-35.5808214 7.87168002 -32.62073528 7.85517059 -29 8 C-28.67 6.68 -28.34 5.36 -28 4 C-23.88850267 2.82528648 -21.84325282 3.226191 -18 5 C-16.67323492 5.35858516 -15.34164079 5.7018576 -14 6 C-14 5.34 -14 4.68 -14 4 C-13.07316406 3.87882813 -12.14632812 3.75765625 -11.19140625 3.6328125 C-9.99386719 3.46523437 -8.79632813 3.29765625 -7.5625 3.125 C-6.36753906 2.96257812 -5.17257813 2.80015625 -3.94140625 2.6328125 C-2.97074219 2.42398438 -2.00007813 2.21515625 -1 2 C-0.67 1.34 -0.34 0.68 0 0 Z " fill="#F9F0DF" transform="translate(218,191)"/>
<path d="M0 0 C-3.90699019 21.949496 -9.00128599 41.04833268 -19 61 C-19.66 61 -20.32 61 -21 61 C-21.2475 61.55945313 -21.495 62.11890625 -21.75 62.6953125 C-26.9029231 72.19601446 -35.49325363 78.19316823 -45.1875 82.375 C-49.75270789 83.38949064 -53.42472137 83.63011145 -57.8125 81.875 C-60.71631353 79.38601698 -61.23678216 77.74670574 -62 74 C-62.21609821 70.98031192 -62.15586523 68.02177439 -62 65 C-61.97035156 64.27683594 -61.94070312 63.55367188 -61.91015625 62.80859375 C-60.87399247 48.68138518 -53.11121953 37.51473091 -44.3125 26.9375 C-43.84900146 26.37691895 -43.38550293 25.81633789 -42.90795898 25.23876953 C-40.45863614 22.37571865 -38.38111448 20.59515333 -35 19 C-34.67 18.01 -34.34 17.02 -34 16 C-27.18688046 9.91235153 -9.48660983 -2.94412029 0 0 Z " fill="#461901" transform="translate(304,289)"/>
<path d="M0 0 C2.10546875 1.671875 2.10546875 1.671875 4.1875 3.75 C14.23213719 13.06047766 25.5859803 15.69100187 38.9609375 15.30859375 C49.06660665 14.73500301 57.3292762 10.41603292 65 4 C65.845625 2.989375 66.69125 1.97875 67.5625 0.9375 C70 -1 70 -1 72.12109375 -0.89453125 C74.46701653 -0.38220329 76.70842903 0.28584603 79 1 C83.42855575 2.13964561 87.77041981 2.11526769 92.3125 2.0625 C93.42334961 2.05573242 93.42334961 2.05573242 94.55664062 2.04882812 C96.37112899 2.03712175 98.18557534 2.01918898 100 2 C99.25049441 5.6505593 98.4718805 9.29428858 97.6875 12.9375 C97.47416016 13.97841797 97.26082031 15.01933594 97.04101562 16.09179688 C96.82509766 17.08115234 96.60917969 18.07050781 96.38671875 19.08984375 C96.19295654 20.00628662 95.99919434 20.92272949 95.79956055 21.86694336 C95.53570557 22.57085205 95.27185059 23.27476074 95 24 C91.81085374 25.06304875 90.55917466 24.90983399 87.3125 24.4375 C69.35232456 22.65809028 52.77797126 28.62695481 38.76171875 39.78125 C37.14572416 41.15435963 35.56752654 42.57180915 34 44 C33.55011719 43.56429687 33.10023438 43.12859375 32.63671875 42.6796875 C27.24247812 37.68542063 21.57193314 34.25127311 15 31 C13.845 30.4225 12.69 29.845 11.5 29.25 C-0.20942884 25.06806113 -12.81469796 25.05035167 -25 27 C-27.27628663 18.71254868 -29.48565898 10.46835441 -31 2 C-29.96101562 2.03480469 -28.92203125 2.06960937 -27.8515625 2.10546875 C-20.4966412 2.27409076 -14.06327319 2.33612161 -7.11328125 -0.44140625 C-4.33591927 -1.17553335 -2.72308525 -0.90058149 0 0 Z " fill="#461901" transform="translate(168,76)"/>
<path d="M0 0 C9.46046774 6.21377191 16.32067815 13.38046057 21.75 23.3125 C22.16121094 24.05242187 22.57242188 24.79234375 22.99609375 25.5546875 C25.21300624 29.98851248 26.1491205 34.19722314 26.85546875 39.1015625 C27.11106567 40.84880615 27.11106567 40.84880615 27.37182617 42.63134766 C27.49662354 43.51612793 27.6214209 44.4009082 27.75 45.3125 C20.5967492 45.38867191 13.44360333 45.44115121 6.29003906 45.47729492 C3.85738211 45.49236534 1.42475226 45.51282523 -1.0078125 45.53881836 C-4.50788061 45.5752774 -8.0075889 45.5922442 -11.5078125 45.60546875 C-13.13470505 45.62869453 -13.13470505 45.62869453 -14.79446411 45.65238953 C-24.67958957 45.65458421 -24.67958957 45.65458421 -29.25 42.3125 C-32.42177073 38.35281157 -33.36309242 33.78402963 -34.51171875 28.94140625 C-34.70723831 28.14145737 -34.90275787 27.34150848 -35.10420227 26.51731873 C-35.51406849 24.83146378 -35.91976727 23.14459081 -36.3215332 21.45678711 C-36.93528738 18.88427406 -37.56526204 16.31612991 -38.19726562 13.74804688 C-38.59472628 12.10440244 -38.99124233 10.46052924 -39.38671875 8.81640625 C-39.66789803 7.67239098 -39.66789803 7.67239098 -39.95475769 6.50526428 C-40.93289113 2.35086197 -41.45297385 -1.38505011 -41.25 -5.6875 C-27.72608415 -9.41454865 -12.07196237 -6.72955666 0 0 Z " fill="#461901" transform="translate(186.25,113.6875)"/>
<path d="M0 0 C7.67961367 8.10625887 8.44656469 17.88032592 8.5625 28.5 C8.59150391 29.39332031 8.62050781 30.28664062 8.65039062 31.20703125 C8.71360694 37.71344853 8.71360694 37.71344853 6.51171875 40.85546875 C4.29486925 42.34485468 2.21192226 43.52967302 -0.25 44.5625 C-1.0028125 44.88605469 -1.755625 45.20960937 -2.53125 45.54296875 C-13.41203738 49.62326402 -25.64556208 48.22490759 -36.11328125 43.76171875 C-38.64471028 42.43037459 -40.66030071 41.32582341 -42.75 39.375 C-43.25170898 36.95825195 -43.25170898 36.95825195 -43.24609375 34.11328125 C-43.24673828 33.07623047 -43.24738281 32.03917969 -43.24804688 30.97070312 C-43.22806641 29.88724609 -43.20808594 28.80378906 -43.1875 27.6875 C-43.19458984 26.62337891 -43.20167969 25.55925781 -43.20898438 24.46289062 C-43.13491025 15.23781357 -41.26896362 7.24498473 -34.75 0.375 C-23.40005034 -8.37486159 -11.86054755 -7.00850537 0 0 Z " fill="#461901" transform="translate(219.75,38.625)"/>
<path d="M0 0 C-2.00974784 10.18781266 -4.07010417 20.36047103 -6.3125 30.5 C-6.44744873 31.15291016 -6.58239746 31.80582031 -6.72143555 32.47851562 C-8.39505919 40.5502318 -9.83105366 46.33888865 -16 52 C-18.60951236 53.30475618 -20.52701285 53.11301572 -23.4453125 53.09765625 C-25.05986328 53.09282227 -25.05986328 53.09282227 -26.70703125 53.08789062 C-27.83496094 53.07951172 -28.96289062 53.07113281 -30.125 53.0625 C-31.26066406 53.05798828 -32.39632812 53.05347656 -33.56640625 53.04882812 C-36.37765638 53.03701615 -39.1888023 53.02054507 -42 53 C-42.11214844 52.19199951 -42.22429687 51.38399902 -42.33984375 50.55151367 C-43.86726662 39.88591982 -46.85029456 31.12075352 -52.92578125 22.19140625 C-54 20 -54 20 -53.87109375 17.921875 C-50.26909883 9.97487276 -39.45086943 5.39817029 -32 2 C-21.43057319 -1.34304554 -10.90008897 -1.89346034 0 0 Z " fill="#461901" transform="translate(261,106)"/>
<path d="M0 0 C2.375 1 2.375 1 4 3 C9.14270302 15.73431224 4.09375691 33.11896728 2.103302 46.21749878 C1.29276118 51.568268 0.50928049 56.92301563 -0.27734375 62.27734375 C-0.43012283 63.31490311 -0.58290192 64.35246246 -0.74031067 65.42146301 C-3.05183308 81.12694507 -5.21829927 96.59429523 -5.375 112.5 C-5.38909912 113.522146 -5.40319824 114.54429199 -5.41772461 115.59741211 C-5.37616796 121.91875678 -4.4056353 127.14756605 -2 133 C-2.66 133.33 -3.32 133.66 -4 134 C-8.68450454 130.53754012 -10.37343747 128.73678558 -12 123 C-12.46979088 118.46829611 -12.42981717 113.92892747 -12.4375 109.375 C-12.43889984 108.70239136 -12.44029968 108.02978271 -12.44174194 107.33679199 C-12.4151986 91.5465008 -10.17748823 76.18281786 -7.72314453 60.61669922 C-6.61834391 53.60286381 -5.59246276 46.57762384 -4.57675171 39.55041504 C-4.26304473 37.40184305 -3.93872837 35.25510687 -3.61254883 33.10839844 C-2.17011738 23.41352868 -1.43452066 13.78659036 -1 4 C-18.09678077 15.10754573 -27.18600397 39.61078816 -35.00488281 57.73974609 C-36.21073461 60.47865089 -37.50182346 63.16978502 -38.80664062 65.86254883 C-44.34579875 77.33849311 -49.12441968 89.13777246 -50.578125 101.875 C-50.78695312 102.926875 -50.78695312 102.926875 -51 104 C-51.99 104.495 -51.99 104.495 -53 105 C-56 104 -56 104 -57.19726562 102.33056641 C-61.10915726 90.97323137 -55.32297263 73.12921392 -53.5 61.625 C-53.01581143 58.53751186 -52.53350219 55.44974344 -52.05310059 52.36166382 C-51.75625289 50.45682538 -51.45702104 48.55235627 -51.15490723 46.64834595 C-49.82119411 38.15088158 -48.82023457 29.79607569 -48.8125 21.1875 C-48.80025391 20.45080078 -48.78800781 19.71410156 -48.77539062 18.95507812 C-48.76507097 15.14712667 -48.8575446 12.2263854 -51 9 C-47 9 -47 9 -44.3125 11.1875 C-40.23192288 16.15036406 -40.89793618 21.26967418 -41.25 27.4375 C-41.31562134 28.65723511 -41.31562134 28.65723511 -41.38256836 29.90161133 C-42.0098489 40.00206917 -43.48938905 49.99984076 -45 60 C-43.515 59.505 -43.515 59.505 -42 59 C-40.84188612 56.05270463 -40.84188612 56.05270463 -41 53 C-40.67 52.67 -40.34 52.34 -40 52 C-39.32060826 50.00428677 -38.65438441 48.00405227 -38 46 C-37 44 -37 44 -35 43 C-34.64080332 41.33871537 -34.31088368 39.67099977 -34 38 C-32.4 34.4 -32.4 34.4 -31 33 C-29.98377342 31.00819591 -28.98287008 29.00847365 -28 27 C-27.67 27.99 -27.34 28.98 -27 30 C-26.30289269 28.71349294 -25.61757124 27.42059335 -24.9375 26.125 C-24.36322266 25.04605469 -24.36322266 25.04605469 -23.77734375 23.9453125 C-23.52082031 23.30335938 -23.26429687 22.66140625 -23 22 C-23.495 21.01 -23.495 21.01 -24 20 C-22.730624 18.08236785 -21.45944055 16.16593207 -20.1875 14.25 C-19.47980469 13.18265625 -18.77210937 12.1153125 -18.04296875 11.015625 C-14.4489917 5.71055753 -14.4489917 5.71055753 -13 4 C-12.34 4 -11.68 4 -11 4 C-10.67 3.01 -10.34 2.02 -10 1 C-6.80190948 -0.59904526 -3.47811387 -0.35885302 0 0 Z " fill="#F6EDDB" transform="translate(80,190)"/>
<path d="M0 0 C-2.51407619 4.28324091 -4.12314139 6.64531705 -9 8 C-8.01 8 -7.02 8 -6 8 C-7.29981532 11.43259214 -8.79703697 14.56079571 -10.64453125 17.73046875 C-11.15693359 18.61669922 -11.66933594 19.50292969 -12.19726562 20.41601562 C-12.73029297 21.33060547 -13.26332031 22.24519531 -13.8125 23.1875 C-17.78990725 30.01644768 -21.55172332 36.8872688 -25 44 C-25.66 44 -26.32 44 -27 44 C-27.12375 44.9075 -27.2475 45.815 -27.375 46.75 C-27.94111482 49.69379708 -28.38067941 51.52380907 -30 54 C-31.92016602 54.82128906 -31.92016602 54.82128906 -34.25390625 55.265625 C-35.5368457 55.51699219 -35.5368457 55.51699219 -36.84570312 55.7734375 C-37.74224609 55.93070313 -38.63878906 56.08796875 -39.5625 56.25 C-40.43197266 56.42273438 -41.30144531 56.59546875 -42.19726562 56.7734375 C-47.88335143 57.84196369 -53.21830701 58.16435269 -59 58 C-57.42569261 50.12846303 -55.38875208 42.41761586 -52.90039062 34.7890625 C-52.24006855 32.74363967 -51.60419733 30.69028062 -50.98242188 28.6328125 C-44.40043299 7.34150931 -44.40043299 7.34150931 -38.84716797 3.51757812 C-34.3039885 1.80013962 -29.87470788 1.65620039 -25.06811523 1.92651367 C-21.98013397 2.03623889 -19.03954311 1.50477478 -16 1 C-10.65615866 0.36438892 -5.38953126 -0.14182977 0 0 Z " fill="#461901" transform="translate(237,194)"/>
<path d="M0 0 C2 1.1875 2 1.1875 3 3 C3.1875 6.1875 3.1875 6.1875 3 9 C5.475 9.495 5.475 9.495 8 10 C8.97798721 13.79568461 8.92653069 16.5005999 8.0625 20.3125 C7.86785156 21.19550781 7.67320313 22.07851563 7.47265625 22.98828125 C7.23869141 23.98408203 7.23869141 23.98408203 7 25 C17.18337089 20.97938107 24.5810847 16.55828157 32.6328125 9.12109375 C34.68580244 7.28153346 36.76612309 5.61106791 39 4 C37.8734655 7.89954249 36.91473044 10.2177573 34 13 C34 13.99 34 14.98 34 16 C28.10817177 22.8627164 19.62455279 29.14339051 11 32 C7.4321895 31.23607885 5.58175914 30.58175914 3 28 C2.5859375 25.6171875 2.5859375 25.6171875 2.375 22.875 C2.30023438 21.96492188 2.22546875 21.05484375 2.1484375 20.1171875 C2.09945312 19.41851562 2.05046875 18.71984375 2 18 C1.04738281 18.83144531 0.09476563 19.66289062 -0.88671875 20.51953125 C-2.153474 21.6173858 -3.42041068 22.71503103 -4.6875 23.8125 C-5.62625977 24.63331055 -5.62625977 24.63331055 -6.58398438 25.47070312 C-14.80362385 32.5714388 -14.80362385 32.5714388 -19.5625 33.5 C-22 33 -22 33 -24.4375 31.0625 C-26.37243027 27.27003667 -26.15588226 25.61189646 -25.03515625 21.60546875 C-21.93942764 13.81357826 -17.25135142 5.54279285 -10.75 0.125 C-6.697025 -1.53303523 -4.27217113 -0.9646838 0 0 Z " fill="#FAF3E2" transform="translate(107,251)"/>
<path d="M0 0 C3.37830553 1.44784523 5.64961028 3.16332276 8 6 C9.3253267 10.44519513 9.01116722 14.86209677 8.75 19.4375 C8.68437866 20.65723511 8.68437866 20.65723511 8.61743164 21.90161133 C7.9901511 32.00206917 6.51061095 41.99984076 5 52 C6.485 51.505 6.485 51.505 8 51 C9.15811388 48.05270463 9.15811388 48.05270463 9 45 C10.485 44.505 10.485 44.505 12 44 C12.309375 43.34 12.61875 42.68 12.9375 42 C14 40 14 40 16.125 39.25 C16.74375 39.1675 17.3625 39.085 18 39 C17.44560366 43.17286335 16.49829221 46.52207669 14.671875 50.30859375 C14.20386475 51.29569336 13.73585449 52.28279297 13.25366211 53.29980469 C12.75745361 54.33524414 12.26124512 55.37068359 11.75 56.4375 C6.04733184 68.62643707 1.09286964 80.32250296 -0.54296875 93.8046875 C-0.76919922 94.89136719 -0.76919922 94.89136719 -1 96 C-1.99 96.495 -1.99 96.495 -3 97 C-6 96 -6 96 -7.19726562 94.33056641 C-11.10915726 82.97323137 -5.32297263 65.12921392 -3.5 53.625 C-3.01581143 50.53751186 -2.53350219 47.44974344 -2.05310059 44.36166382 C-1.75625289 42.45682538 -1.45702104 40.55235627 -1.15490723 38.64834595 C0.17880589 30.15088158 1.17976543 21.79607569 1.1875 13.1875 C1.19974609 12.45080078 1.21199219 11.71410156 1.22460938 10.95507812 C1.23492903 7.14712667 1.1424554 4.2263854 -1 1 C-0.67 0.67 -0.34 0.34 0 0 Z " fill="#F8F0DE" transform="translate(30,198)"/>
<path d="M0 0 C-0.39791748 1.15822266 -0.79583496 2.31644531 -1.20581055 3.50976562 C-2.70835132 7.88514695 -4.20796784 12.26152619 -5.70678711 16.63818359 C-6.35087003 18.51768073 -6.99570319 20.39692097 -7.64135742 22.27587891 C-11.60072268 33.80018525 -15.44609754 45.34378066 -19 57 C-21.36798995 53.44801508 -21.15946447 52.11845899 -21 47.9375 C-20.87088366 38.23225523 -22.16800345 26.97707907 -28.5 19.14453125 C-32.74134152 15.16827357 -37.4336122 13.43893018 -43 12 C-39.60868897 9.73912598 -36.23340145 8.71493486 -32.375 7.5625 C-30.91773049 7.11927218 -29.46069692 6.67526788 -28.00390625 6.23046875 C-27.30668457 6.01825684 -26.60946289 5.80604492 -25.89111328 5.58740234 C-23.67957215 4.90047129 -21.49589639 4.14633069 -19.3125 3.375 C-3.74739583 -1.87369792 -3.74739583 -1.87369792 0 0 Z " fill="#461901" transform="translate(188,202)"/>
<path d="M0 0 C0 0.66 0 1.32 0 2 C-0.33 2.33 -0.66 2.66 -1 3 C-0.34 3.33 0.32 3.66 1 4 C0.01 4.33 -0.98 4.66 -2 5 C-2 5.66 -2 6.32 -2 7 C-5.3 7.99 -8.6 8.98 -12 10 C-11.00419922 10.54527344 -11.00419922 10.54527344 -9.98828125 11.1015625 C-0.2614071 16.63949085 3.87507359 22.31275166 7 33 C7.75 36.6875 7.75 36.6875 8 40 C8.06316406 40.66902344 8.12632812 41.33804688 8.19140625 42.02734375 C8.48957518 47.19239909 7.32288421 49.21178092 4 53 C3.89042969 51.90042969 3.78085938 50.80085938 3.66796875 49.66796875 C2.2060062 32.12107627 2.2060062 32.12107627 -6 17 C-10.53533549 14.3472566 -15.68227023 12.49134759 -21 13 C-23.91809653 14.11224214 -26.62933873 15.40660972 -29.38671875 16.87109375 C-32.1777017 18.07676501 -33.99454302 18.30001935 -37 18 C-38 17 -38 17 -38.0625 13.4375 C-38.041875 12.303125 -38.02125 11.16875 -38 10 C-31.5161181 6.16528881 -25.7879533 4.38797055 -18.328125 3.46875 C-13.93717708 2.85030663 -9.73627942 1.74360381 -5.4609375 0.5859375 C-3 0 -3 0 0 0 Z " fill="#F9F0DE" transform="translate(160,203)"/>
<path d="M0 0 C0.99143602 3.11625567 0.96315652 5.13851612 0.1875 8.30078125 C-0.00070313 9.11353516 -0.18890625 9.92628906 -0.3828125 10.76367188 C-0.79159087 12.45182307 -1.2030149 14.139336 -1.6171875 15.82617188 C-2.7959851 20.94102311 -2.97433482 24.75875062 -2 30 C-2.9375 32.4375 -2.9375 32.4375 -4 34 C-4.495 33.505 -4.495 33.505 -5 33 C-5.66 35.31 -6.32 37.62 -7 40 C-9.43681587 40.50354867 -11.87435439 41.00296756 -14.3125 41.5 C-15.00279297 41.64308594 -15.69308594 41.78617188 -16.40429688 41.93359375 C-19.32524773 42.52625044 -22.01108122 43 -25 43 C-23.1812381 37.41380274 -21.57629542 32.67669401 -18 28 C-16.1095554 24.8058005 -14.312369 21.5792719 -12.55078125 18.3125 C-6.89183139 7.82134862 -6.89183139 7.82134862 -4 4 C-3.34 4 -2.68 4 -2 4 C-2 3.01 -2 2.02 -2 1 C-1.34 0.67 -0.68 0.34 0 0 Z " fill="#481B03" transform="translate(239,203)"/>
<path d="M0 0 C0 0.66 0 1.32 0 2 C-0.66 2 -1.32 2 -2 2 C-2.33 3.98 -2.66 5.96 -3 8 C-1.35 6.35 0.3 4.7 2 3 C1.44192187 7.10457464 0.51493746 10.48149767 -1.1875 14.25 C-3.4603321 19.52904897 -5.3827048 24.86073532 -7.1875 30.3125 C-7.43717529 31.06499023 -7.68685059 31.81748047 -7.9440918 32.59277344 C-9.40063147 37.03558787 -10.74466126 41.49624916 -12 46 C-14.375 46.625 -14.375 46.625 -17 47 C-17.66 46.34 -18.32 45.68 -19 45 C-19 36.08923855 -15.30010409 28.12293875 -12 20 C-11.6592041 19.1529248 -11.3184082 18.30584961 -10.96728516 17.43310547 C-9.90569501 14.80498129 -8.83098731 12.18270042 -7.75 9.5625 C-7.2384436 8.30977295 -7.2384436 8.30977295 -6.71655273 7.03173828 C-6.39243408 6.25942871 -6.06831543 5.48711914 -5.734375 4.69140625 C-5.44788086 4.00248291 -5.16138672 3.31355957 -4.86621094 2.60375977 C-3.62719094 0.30975685 -2.56009554 0 0 0 Z " fill="#F9F1DF" transform="translate(204,259)"/>
<path d="M0 0 C7.60982524 6.11845246 12.43642775 14.63923825 13.51953125 24.375 C13.58609437 27.01089958 13.61520536 29.61648596 13.58203125 32.25 C13.57751953 32.93835937 13.57300781 33.62671875 13.56835938 34.3359375 C13.55669461 36.01566335 13.53876396 37.69534375 13.51953125 39.375 C12.52953125 39.87 12.52953125 39.87 11.51953125 40.375 C11.51542236 39.79121582 11.51131348 39.20743164 11.50708008 38.60595703 C11.34896358 21.34706068 11.34896358 21.34706068 3.20703125 6.5625 C-5.07732156 -0.18057787 -12.66123232 -3.61583111 -23.48046875 -2.625 C-31.04307133 -1.3510547 -37.26246394 1.68896804 -42.48046875 7.375 C-47.72422907 15.69230892 -49.51848365 23.06620778 -50.04296875 32.6875 C-50.08615234 33.42806641 -50.12933594 34.16863281 -50.17382812 34.93164062 C-50.27917307 36.74591464 -50.38025191 38.5604355 -50.48046875 40.375 C-50.81046875 40.375 -51.14046875 40.375 -51.48046875 40.375 C-52.20256271 15.82380541 -52.20256271 15.82380541 -43.4296875 5.4140625 C-31.49322871 -7.07257375 -14.7600607 -9.66958308 0 0 Z " fill="#461901" transform="translate(221.48046875,30.625)"/>
<path d="M0 0 C0.99 0.33 1.98 0.66 3 1 C1.62450002 6.10382887 -0.03298736 10.30658812 -3.125 14.625 C-5.83834811 18.4450208 -6.53907202 21.29853464 -7 26 C-8.4375 28.25 -8.4375 28.25 -10 30 C-10.66 30.99 -11.32 31.98 -12 33 C-12.82496285 34.23480016 -13.65858245 35.46385314 -14.5 36.6875 C-14.9228125 37.31011719 -15.345625 37.93273437 -15.78125 38.57421875 C-16.1834375 39.04472656 -16.585625 39.51523438 -17 40 C-17.66 40 -18.32 40 -19 40 C-20.25541557 36.23375329 -19.37061958 34.62811066 -18 31 C-17.34 31 -16.68 31 -16 31 C-15.75894531 30.18273437 -15.51789063 29.36546875 -15.26953125 28.5234375 C-13.75858697 24.32998599 -11.79641738 20.54305477 -9.6875 16.625 C-9.30916016 15.90828125 -8.93082031 15.1915625 -8.54101562 14.453125 C-5.89856761 9.49909387 -3.03325948 4.72407245 0 0 Z " fill="#C7A995" transform="translate(228,207)"/>
<path d="M0 0 C0.66 0.33 1.32 0.66 2 1 C1.32414935 4.32209174 0.08166075 6.99549008 -1.50390625 9.984375 C-1.99697266 10.91894531 -2.49003906 11.85351562 -2.99804688 12.81640625 C-3.51431641 13.78449219 -4.03058594 14.75257813 -4.5625 15.75 C-5.08263672 16.73355469 -5.60277344 17.71710938 -6.13867188 18.73046875 C-7.42193507 21.15571846 -8.70916566 23.578774 -10 26 C-10.66 26 -11.32 26 -12 26 C-12.66 26.66 -13.32 27.32 -14 28 C-14.33 27.67 -14.66 27.34 -15 27 C-15.66 27.99 -16.32 28.98 -17 30 C-17.66 30 -18.32 30 -19 30 C-17.125 24.25 -17.125 24.25 -16 22 C-15.34 21.67 -14.68 21.34 -14 21 C-13.64080332 19.33871537 -13.31088368 17.67099977 -13 16 C-11.4 12.4 -11.4 12.4 -10 11 C-8.98377342 9.00819591 -7.98287008 7.00847365 -7 5 C-6.67 5.99 -6.34 6.98 -6 8 C-5.38125 6.865625 -4.7625 5.73125 -4.125 4.5625 C-2.25 1.125 -2.25 1.125 0 0 Z " fill="#ECDCC9" transform="translate(59,212)"/>
<path d="M0 0 C0.65234375 1.80859375 0.65234375 1.80859375 1 4 C-0.62126675 6.03697617 -2.28859531 8.03814584 -4 10 C-4 10.99 -4 11.98 -4 13 C-5.609375 14.75390625 -5.609375 14.75390625 -7.75 16.5625 C-8.79414063 17.46162109 -8.79414063 17.46162109 -9.859375 18.37890625 C-13.44449962 21.0939185 -16.57561161 22.26260193 -21 23 C-21.0625 20.375 -21.0625 20.375 -20 17 C-18.00698235 15.40466105 -15.88733758 14.16974947 -13.69921875 12.85546875 C-8.51299413 9.29040841 -4.32456297 4.54281194 0 0 Z " fill="#CFB9A6" transform="translate(380,255)"/>
<path d="M0 0 C0.33 0.66 0.66 1.32 1 2 C0.360625 2.9075 -0.27875 3.815 -0.9375 4.75 C-3.06026812 7.64222642 -3.06026812 7.64222642 -3.34375 9.9140625 C-4.86487513 14.74906739 -10.04945855 18.10369199 -14 21 C-16.79513154 22.17619135 -18.96761899 22.60691357 -22 23 C-22 22.34 -22 21.68 -22 21 C-21.34 21 -20.68 21 -20 21 C-19.95875 20.2575 -19.9175 19.515 -19.875 18.75 C-18.8581686 15.55424418 -17.75683921 14.95442822 -14.953125 13.30078125 C-9.46203557 9.64371569 -4.61300026 4.70315662 0 0 Z " fill="#C8AE9A" transform="translate(145,255)"/>
<path d="M0 0 C-0.57513955 7.4465436 -1.26389267 14.88041077 -2 22.3125 C-2.0829834 23.15973633 -2.1659668 24.00697266 -2.25146484 24.87988281 C-2.61635875 28.52595433 -3.02073983 32.13981255 -3.55859375 35.765625 C-3.9605268 38.71076276 -4.10314696 41.47027181 -4.0625 44.4375 C-4.05347656 45.30246094 -4.04445312 46.16742188 -4.03515625 47.05859375 C-4.02355469 47.69925781 -4.01195312 48.33992188 -4 49 C-4.66 49 -5.32 49 -6 49 C-6.33036712 36.78865243 -6.00614769 24.83518751 -4.625 12.6875 C-4.49891357 11.54297363 -4.37282715 10.39844727 -4.24291992 9.21923828 C-3.50263551 3.15195408 -3.50263551 3.15195408 -3 1 C-1 0 -1 0 0 0 Z " fill="#AC8771" transform="translate(234,247)"/>
<path d="M0 0 C0.8515625 2.14453125 0.8515625 2.14453125 1 5 C-0.83180559 7.19999243 -2.4722364 8.86038539 -4.625 10.6875 C-5.15996094 11.17283203 -5.69492188 11.65816406 -6.24609375 12.15820312 C-9.31164224 14.86200198 -12.0976504 16.75966212 -16 18 C-7.64031621 0 -7.64031621 0 0 0 Z " fill="#461901" transform="translate(104,258)"/>
<path d="M0 0 C0.43251724 3.89834621 0.38412859 5.4993133 -2.046875 8.66796875 C-3.38492187 9.91513672 -3.38492187 9.91513672 -4.75 11.1875 C-5.63171875 12.02667969 -6.5134375 12.86585938 -7.421875 13.73046875 C-13.40791738 19 -13.40791738 19 -16 19 C-13.7421162 12.93260611 -7.86248876 0 0 0 Z " fill="#461901" transform="translate(340,257)"/>
<path d="M0 0 C-2.30401253 3.45601879 -2.78834366 3.48829561 -6.6484375 4.31640625 C-7.57140625 4.52330078 -8.494375 4.73019531 -9.4453125 4.94335938 C-10.89550781 5.24983398 -10.89550781 5.24983398 -12.375 5.5625 C-14.27963478 5.97593887 -16.18332668 6.39375106 -18.0859375 6.81640625 C-19.3551001 7.08626343 -19.3551001 7.08626343 -20.64990234 7.36157227 C-23.02912018 7.91329503 -23.02912018 7.91329503 -25.11962891 9.13647461 C-27 10 -27 10 -30 9 C-29.67 8.67 -29.34 8.34 -29 8 C-30.65 8 -32.3 8 -34 8 C-31 6 -31 6 -28 6 C-28 5.01 -28 4.02 -28 3 C-25.2699768 2.29799403 -23.34782463 1.92865136 -20.5625 2.5 C-16.57204501 3.27862536 -13.26241664 2.55028418 -9.5625 0.9375 C-6.2933338 -0.25853642 -3.45216018 -0.13537883 0 0 Z " fill="#F0E1CF" transform="translate(188,199)"/>
<path d="M0 0 C5.28 0 10.56 0 16 0 C16.33 1.32 16.66 2.64 17 4 C13.53767506 6.30821663 12.08201684 6.27000989 8 6.25 C6.948125 6.25515625 5.89625 6.2603125 4.8125 6.265625 C2 6 2 6 -1 4 C-0.67 2.68 -0.34 1.36 0 0 Z " fill="#F8EFDE" transform="translate(193,96)"/>
<path d="M0 0 C0.99 0.33 1.98 0.66 3 1 C1.21207071 7.63415869 -1.32185738 13.84673352 -6 19 C-6.99 19 -7.98 19 -9 19 C-9 20.32 -9 21.64 -9 23 C-11.5 25.25 -11.5 25.25 -14 27 C-12.4322225 21.46823962 -9.81919201 16.77830535 -7 11.8125 C-6.54882812 11.00619141 -6.09765625 10.19988281 -5.6328125 9.36914062 C-3.83608061 6.17170207 -2.03578139 3.05367208 0 0 Z " fill="#F0E2CF" transform="translate(228,207)"/>
<path d="M0 0 C-2.04884062 6.14652186 -7.86391014 9.47523245 -13 13 C-13.33 12.01 -13.66 11.02 -14 10 C-14.66 9.67 -15.32 9.34 -16 9 C-15.83203125 7.171875 -15.83203125 7.171875 -15 5 C-12.63671875 3.515625 -12.63671875 3.515625 -9.6875 2.25 C-8.23923828 1.60804688 -8.23923828 1.60804688 -6.76171875 0.953125 C-4 0 -4 0 0 0 Z " fill="#EFDFCD" transform="translate(273,276)"/>
<path d="M0 0 C0.8125 1.625 0.8125 1.625 1 4 C-0.62173227 6.75694486 -1.48995901 8.18625674 -4 10 C-7.00842192 10.77847312 -9.89923226 10.98648903 -13 11 C-13 10.34 -13 9.68 -13 9 C-14.65 9.33 -16.3 9.66 -18 10 C-17.67 8.68 -17.34 7.36 -17 6 C-15.41058594 5.85304687 -15.41058594 5.85304687 -13.7890625 5.703125 C-12.40093603 5.55305727 -11.01292037 5.40196208 -9.625 5.25 C-8.57699219 5.1571875 -8.57699219 5.1571875 -7.5078125 5.0625 C-5.21636218 4.83881747 -5.21636218 4.83881747 -2 4 C-0.44280462 2.06119892 -0.44280462 2.06119892 0 0 Z " fill="#F6EBD9" transform="translate(234,239)"/>
<path d="M0 0 C1 3 1 3 -0.65234375 6.57421875 C-1.40387723 7.95092168 -2.1660567 9.32185409 -2.9375 10.6875 C-3.51661133 11.7403418 -3.51661133 11.7403418 -4.10742188 12.81445312 C-5.06261773 14.54795672 -6.03015386 16.27465009 -7 18 C-7.66 18 -8.32 18 -9 18 C-9.66 18.66 -10.32 19.32 -11 20 C-11.33 19.67 -11.66 19.34 -12 19 C-12.66 19.99 -13.32 20.98 -14 22 C-14.66 22 -15.32 22 -16 22 C-14.125 16.25 -14.125 16.25 -13 14 C-12.34 13.855625 -11.68 13.71125 -11 13.5625 C-10.01 13.2840625 -10.01 13.2840625 -9 13 C-8.67 12.01 -8.34 11.02 -8 10 C-7.34 10 -6.68 10 -6 10 C-5.65066406 9.36191406 -5.30132812 8.72382813 -4.94140625 8.06640625 C-4.48636719 7.24011719 -4.03132813 6.41382813 -3.5625 5.5625 C-2.88380859 4.32693359 -2.88380859 4.32693359 -2.19140625 3.06640625 C-1 1 -1 1 0 0 Z " fill="#F5E9D7" transform="translate(56,220)"/>
<path d="M0 0 C0 0.99 0 1.98 0 3 C-11.52164009 7.22323462 -11.52164009 7.22323462 -17 9 C-17.66 7.35 -18.32 5.7 -19 4 C-3.06557377 -1.53278689 -3.06557377 -1.53278689 0 0 Z " fill="#EFDFCD" transform="translate(304,285)"/>
<path d="M0 0 C3.02419525 0.58803797 6.01758453 1.22678118 9 2 C8.01 2 7.02 2 6 2 C6 2.66 6 3.32 6 4 C1.12929813 5.88989379 -3.22391338 6.4014447 -8.375 6.625 C-9.47908203 6.68300781 -9.47908203 6.68300781 -10.60546875 6.7421875 C-12.40327406 6.83557998 -14.20160108 6.9188371 -16 7 C-15.34 6.67 -14.68 6.34 -14 6 C-14 5.34 -14 4.68 -14 4 C-13.07316406 3.87882813 -12.14632812 3.75765625 -11.19140625 3.6328125 C-9.99386719 3.46523437 -8.79632813 3.29765625 -7.5625 3.125 C-6.36753906 2.96257812 -5.17257813 2.80015625 -3.94140625 2.6328125 C-2.97074219 2.42398438 -2.00007812 2.21515625 -1 2 C-0.67 1.34 -0.34 0.68 0 0 Z " fill="#E8D2BE" transform="translate(218,191)"/>
<path d="M0 0 C0.99 0.66 1.98 1.32 3 2 C3 2.99 3 3.98 3 5 C4.32 4.67 5.64 4.34 7 4 C6.71758359 5.46015291 6.42373386 6.91809793 6.125 8.375 C5.96257812 9.18710937 5.80015625 9.99921875 5.6328125 10.8359375 C5 13 5 13 3 15 C3 13.68 3 12.36 3 11 C2.34 11.66 1.68 12.32 1 13 C0.67 11.68 0.34 10.36 0 9 C-0.33 9.99 -0.66 10.98 -1 12 C-1.33 12 -1.66 12 -2 12 C-2.21278058 7.53160785 -1.59138085 4.17737474 0 0 Z " fill="#E9D3C0" transform="translate(165,252)"/>
<path d="M0 0 C0.66 0.33 1.32 0.66 2 1 C0.58829091 2.29708314 -0.82958196 3.58745978 -2.25 4.875 C-3.03890625 5.59429687 -3.8278125 6.31359375 -4.640625 7.0546875 C-8.28471649 10.059253 -11.36484746 11.22747458 -16 12 C-15.8125 9.125 -15.8125 9.125 -15 6 C-12.6875 4.5625 -12.6875 4.5625 -10 4 C-9.360625 4.226875 -8.72125 4.45375 -8.0625 4.6875 C-5.97870224 5.23812007 -5.97870224 5.23812007 -4.41796875 3.9609375 C-2.90232147 2.69020746 -1.44702022 1.34835975 0 0 Z " fill="#F5EAD8" transform="translate(375,266)"/>
<path d="M0 0 C3.7726764 0.53895377 5.68212991 1.99535358 8 5 C7.75 7.25 7.75 7.25 7 9 C2.68607774 8.5206753 0.83430453 7.2542015 -2 4 C-1.34 2.68 -0.68 1.36 0 0 Z " fill="#F6ECDA" transform="translate(188,121)"/>
<path d="M0 0 C2 1.375 2 1.375 4 3 C4 3.66 4 4.32 4 5 C-3.28571429 9.42857143 -3.28571429 9.42857143 -8 10 C-8 9.34 -8 8.68 -8 8 C-7.34 8 -6.68 8 -6 8 C-5.938125 7.236875 -5.87625 6.47375 -5.8125 5.6875 C-5 3 -5 3 -2.4375 1.1875 C-1.633125 0.795625 -0.82875 0.40375 0 0 Z " fill="#F5EAD9" transform="translate(131,268)"/>
<path d="M0 0 C1.8125 0.1875 1.8125 0.1875 4 1 C5.875 3.3125 5.875 3.3125 7 6 C6.1875 8.3125 6.1875 8.3125 5 10 C1.83884224 8.63016497 1.0072908 8.0109362 -1 5 C-0.625 2.3125 -0.625 2.3125 0 0 Z " fill="#F7ECDB" transform="translate(197,132)"/>
<path d="M0 0 C2 0.3125 2 0.3125 4 1 C5.35439668 3.70879335 5.06501451 6.00933268 5 9 C3.125 9.625 3.125 9.625 1 10 C-1 8 -1 8 -1.1875 4.4375 C-1 1 -1 1 0 0 Z " fill="#F5E9D7" transform="translate(203,146)"/>
<path d="M0 0 C0.99 0.66 1.98 1.32 3 2 C2.60000283 4.31998359 2.09432121 5.86323424 0.75 7.8125 C-1 9 -1 9 -3.6875 8.6875 C-4.450625 8.460625 -5.21375 8.23375 -6 8 C-5.65120368 4.74456771 -4.97866739 3.98126893 -2.4375 1.75 C-1.633125 1.1725 -0.82875 0.595 0 0 Z " fill="#F9F1DF" transform="translate(218,118)"/>
<path d="M0 0 C5.53846154 0.49230769 5.53846154 0.49230769 7.875 3.0625 C8.431875 4.0215625 8.431875 4.0215625 9 5 C8.01 6.485 8.01 6.485 7 8 C1.25 6.25 1.25 6.25 -1 4 C-0.625 1.875 -0.625 1.875 0 0 Z " fill="#F4E7D5" transform="translate(176,114)"/>
<path d="M0 0 C0.66 0.33 1.32 0.66 2 1 C1.6875 2.9375 1.6875 2.9375 1 5 C-2.76624671 6.25541557 -4.37188934 5.37061958 -8 4 C-8 2.68 -8 1.36 -8 0 C-5.11541362 -1.44229319 -3.09360585 -0.64450122 0 0 Z " fill="#F5EAD8" transform="translate(170,111)"/>
<path d="M0 0 C2.49255135 3.77717396 2.08426474 6.96798332 1.75 11.375 C1.66234375 12.66148437 1.5746875 13.94796875 1.484375 15.2734375 C1.03092904 18.76204594 0.23938697 21.71867219 -1 25 C-1.33 25 -1.66 25 -2 25 C-2.30221599 16.53795229 -1.14920797 8.36254017 0 0 Z " fill="#DBC0AC" transform="translate(70,266)"/>
<path d="M0 0 C0.99 0 1.98 0 3 0 C1.84826645 2.46800047 0.95216435 4.04783565 -1 6 C-0.67 6.66 -0.34 7.32 0 8 C-0.9375 10.125 -0.9375 10.125 -2 12 C-2.66 11.67 -3.32 11.34 -4 11 C-4.625 8.9375 -4.625 8.9375 -5 7 C-6.98 7.33 -8.96 7.66 -11 8 C-10 6 -10 6 -8.22265625 5.25390625 C-6.78566942 4.79396652 -5.34816985 4.33562563 -3.91015625 3.87890625 C-1.64848147 3.04040098 -1.64848147 3.04040098 0 0 Z " fill="#EAD6C3" transform="translate(236,195)"/>
<path d="M0 0 C2.31 0 4.62 0 7 0 C7.33 1.65 7.66 3.3 8 5 C1.25 6.125 1.25 6.125 -1 5 C-0.67 3.35 -0.34 1.7 0 0 Z " fill="#F2E4D2" transform="translate(247,108)"/>
<path d="M0 0 C-0.33 1.32 -0.66 2.64 -1 4 C-3.31 4.33 -5.62 4.66 -8 5 C-8.66 3.68 -9.32 2.36 -10 1 C-6.1496895 -1.56687367 -4.41430237 -0.83288724 0 0 Z " fill="#F5EAD8" transform="translate(158,111)"/>
<path d="M0 0 C0.1875 2.375 0.1875 2.375 0 5 C-0.99 5.66 -1.98 6.32 -3 7 C-4.65 6.01 -6.3 5.02 -8 4 C-7.67 2.68 -7.34 1.36 -7 0 C-3.98968256 -0.93423645 -3.13349732 -1.04449911 0 0 Z " fill="#F6ECDA" transform="translate(318,227)"/>
<path d="M0 0 C0.66 0.33 1.32 0.66 2 1 C1.67 1.66 1.34 2.32 1 3 C0.34 3 -0.32 3 -1 3 C-0.67 2.01 -0.34 1.02 0 0 Z M-3 3 C-2.34 3 -1.68 3 -1 3 C-1.62341431 6.72316877 -3.29671993 9.10000483 -5.5 12.125 C-7.94482343 15.44469454 -7.94482343 15.44469454 -10 19 C-10.66 18.67 -11.32 18.34 -12 18 C-9.88465019 12.35906717 -7.13799012 7.43767743 -3 3 Z " fill="#D6BEAB" transform="translate(70,191)"/>
<path d="M0 0 C2.125 0.9375 2.125 0.9375 4 2 C2.9024777 4.99324263 2.32317108 5.84610901 -0.625 7.25 C-1.40875 7.4975 -2.1925 7.745 -3 8 C-3.99 7.01 -4.98 6.02 -6 5 C-2.25 1.125 -2.25 1.125 0 0 Z " fill="#F7EDDC" transform="translate(228,112)"/>
<path d="M0 0 C0.33 1.32 0.66 2.64 1 4 C-2.22791555 6.1519437 -3.28400809 6.20086443 -7 6 C-7.33 4.35 -7.66 2.7 -8 1 C-5.29120665 -0.35439668 -2.99066732 -0.06501451 0 0 Z " fill="#F6EAD9" transform="translate(242,109)"/>
<path d="M0 0 C0.98484375 0.00902344 1.9696875 0.01804688 2.984375 0.02734375 C4.10585937 0.04474609 4.10585937 0.04474609 5.25 0.0625 C5.58 0.7225 5.91 1.3825 6.25 2.0625 C5.59 2.0625 4.93 2.0625 4.25 2.0625 C4.25 2.7225 4.25 3.3825 4.25 4.0625 C3.33476562 3.97871094 2.41953125 3.89492187 1.4765625 3.80859375 C0.28804687 3.70675781 -0.90046875 3.60492188 -2.125 3.5 C-3.30835938 3.39558594 -4.49171875 3.29117188 -5.7109375 3.18359375 C-8.66898631 2.82096404 -8.66898631 2.82096404 -10.75 4.0625 C-10.42 3.0725 -10.09 2.0825 -9.75 1.0625 C-6.58321116 -0.2085735 -3.37266213 -0.04015074 0 0 Z " fill="#CAA893" transform="translate(249.75,187.9375)"/>
<path d="M0 0 C-0.71971619 3.75345656 -2.33112202 6.86091969 -4.0625 10.25 C-4.61035156 11.32765625 -5.15820312 12.4053125 -5.72265625 13.515625 C-6.14417969 14.33546875 -6.56570312 15.1553125 -7 16 C-8.2077558 12.37673261 -7.54311128 11.35853631 -6 8 C-5.34 8 -4.68 8 -4 8 C-4 7.34 -4 6.68 -4 6 C-4.99 6.33 -5.98 6.66 -7 7 C-4.60526316 0 -4.60526316 0 0 0 Z " fill="#D5B7A3" transform="translate(208,253)"/>
<path d="M0 0 C0.66 0.33 1.32 0.66 2 1 C2.66 0.67 3.32 0.34 4 0 C3.85969405 3.01657791 3.70648535 5.23841273 1.59765625 7.51171875 C0.11095765 8.73256066 -1.44134898 9.87246522 -3 11 C-2.25 3.375 -2.25 3.375 0 0 Z " fill="#F2E5D2" transform="translate(165,261)"/>
<path d="M0 0 C0.33 0.66 0.66 1.32 1 2 C-1.56428003 6.17882671 -4.01930733 9.12505529 -8 12 C-8.66 11.34 -9.32 10.68 -10 10 C-6.7 6.7 -3.4 3.4 0 0 Z " fill="#F2E5D2" transform="translate(145,255)"/>
<path d="M0 0 C0.66 0.66 1.32 1.32 2 2 C1.58279051 6.48500198 0.28941817 10.70193944 -1 15 C-1.99 14.67 -2.98 14.34 -4 14 C-2.68 9.38 -1.36 4.76 0 0 Z " fill="#D1B8A4" transform="translate(174,240)"/>
<path d="M0 0 C2 3 2 3 1.875 5.5625 C1 8 1 8 -1.0625 9.3125 C-1.701875 9.539375 -2.34125 9.76625 -3 10 C-4.26339822 6.20980534 -3.49719015 4.62477616 -2 1 C-1.34 0.67 -0.68 0.34 0 0 Z " fill="#DCC7B3" transform="translate(212,237)"/>
<path d="M0 0 C0 0.66 0 1.32 0 2 C-1.72681437 2.50806447 -3.45657979 3.00610467 -5.1875 3.5 C-6.63189453 3.91765625 -6.63189453 3.91765625 -8.10546875 4.34375 C-10.85345876 4.96677608 -13.19598416 5.12302812 -16 5 C-13 3 -13 3 -10 3 C-10 2.01 -10 1.02 -10 0 C-6.42355152 -1.2380014 -3.66305234 -0.74926071 0 0 Z " fill="#CFAF9B" transform="translate(170,202)"/>
<path d="M0 0 C0.65234375 1.796875 0.65234375 1.796875 1 4 C-0.36489377 6.33370072 -2.1419038 8.00594554 -4 10 C-4.66 9.67 -5.32 9.34 -6 9 C-6 6 -6 6 -4.6875 4.39453125 C-4.130625 3.87246094 -3.57375 3.35039062 -3 2.8125 C-2.443125 2.28269531 -1.88625 1.75289063 -1.3125 1.20703125 C-0.6628125 0.60955078 -0.6628125 0.60955078 0 0 Z " fill="#F1E2D1" transform="translate(380,255)"/>
<path d="M0 0 C0.33 0.66 0.66 1.32 1 2 C-2.63 2.66 -6.26 3.32 -10 4 C-9.67 2.68 -9.34 1.36 -9 0 C-5.67032582 -0.83241855 -3.24733335 -1.2757381 0 0 Z " fill="#C2A894" transform="translate(226,245)"/>
<path d="M0 0 C0.99 0 1.98 0 3 0 C2.71758359 1.46015291 2.42373386 2.91809793 2.125 4.375 C1.96257812 5.18710937 1.80015625 5.99921875 1.6328125 6.8359375 C1 9 1 9 -1 11 C-1 9.68 -1 8.36 -1 7 C-1.66 7.66 -2.32 8.32 -3 9 C-2.67 7.02 -2.34 5.04 -2 3 C-1.34 3 -0.68 3 0 3 C0 2.01 0 1.02 0 0 Z " fill="#AD8B75" transform="translate(169,256)"/>
<path d="M0 0 C2.125 0.9375 2.125 0.9375 4 2 C3.67 3.32 3.34 4.64 3 6 C1.35 5.67 -0.3 5.34 -2 5 C-2 3.68 -2 2.36 -2 1 C-1.34 0.67 -0.68 0.34 0 0 Z " fill="#F4E7D6" transform="translate(239,77)"/>
<path d="M0 0 C0.33 0 0.66 0 1 0 C1.83861979 5.36716665 -1.07929595 8.79627239 -4 13 C-4.66 12.34 -5.32 11.68 -6 11 C-5.625 8.375 -5.625 8.375 -5 6 C-4.01 6 -3.02 6 -2 6 C-2 5.34 -2 4.68 -2 4 C-1.34 4 -0.68 4 0 4 C0 2.68 0 1.36 0 0 Z " fill="#B7927B" transform="translate(226,213)"/>
<path d="M0 0 C2.0625 0.4375 2.0625 0.4375 4 1 C3.67 2.65 3.34 4.3 3 6 C1.68 5.67 0.36 5.34 -1 5 C-1 1 -1 1 0 0 Z " fill="#F4E8D6" transform="translate(165,77)"/>
<path d="M0 0 C0.99 0.33 1.98 0.66 3 1 C2.67 2.98 2.34 4.96 2 7 C1.01 6.67 0.02 6.34 -1 6 C-1.33 6.66 -1.66 7.32 -2 8 C-2 4.23312136 -1.76462683 3.08809695 0 0 Z " fill="#B7927C" transform="translate(219,226)"/>
<path d="M0 0 C-2 3 -2 3 -5.4375 3.8125 C-9 4 -9 4 -12 2 C-7.8794254 0.00214565 -4.54805635 -0.17835515 0 0 Z " fill="#E8D2C0" transform="translate(188,199)"/>
<path d="M0 0 C0.66 0 1.32 0 2 0 C2.33 1.98 2.66 3.96 3 6 C2.195625 6.12375 1.39125 6.2475 0.5625 6.375 C-0.7059375 6.684375 -0.7059375 6.684375 -2 7 C-2.33 7.66 -2.66 8.32 -3 9 C-2.44271087 5.65626525 -1.64826111 2.96687001 0 0 Z " fill="#C5A996" transform="translate(48,224)"/>
<path d="M0 0 C1.32 1.32 2.64 2.64 4 4 C1.64046906 6.35953094 0.22104383 6.49141413 -3 7 C-2.625 4.0625 -2.625 4.0625 -2 1 C-1.34 0.67 -0.68 0.34 0 0 Z " fill="#D4B7A3" transform="translate(362,271)"/>
<path d="M0 0 C0.33 1.32 0.66 2.64 1 4 C0.01 4.33 -0.98 4.66 -2 5 C-2.33 5.99 -2.66 6.98 -3 8 C-3.99 7.67 -4.98 7.34 -6 7 C-5.67 6.01 -5.34 5.02 -5 4 C-4.01 4 -3.02 4 -2 4 C-1.34 2.68 -0.68 1.36 0 0 Z " fill="#AF8E78" transform="translate(234,239)"/>
<path d="M0 0 C0.66 0.66 1.32 1.32 2 2 C1.01 2.495 1.01 2.495 0 3 C0 3.99 0 4.98 0 6 C-1.65 6.66 -3.3 7.32 -5 8 C-5 7.34 -5 6.68 -5 6 C-4.34 6 -3.68 6 -3 6 C-2.87625 5.195625 -2.7525 4.39125 -2.625 3.5625 C-2.41875 2.716875 -2.2125 1.87125 -2 1 C-1.34 0.67 -0.68 0.34 0 0 Z " fill="#CDB19D" transform="translate(128,270)"/>
<path d="M0 0 C0 3.19610552 -0.54671542 4.41717626 -2 7.1875 C-2.37125 7.90292969 -2.7425 8.61835938 -3.125 9.35546875 C-3.41375 9.89816406 -3.7025 10.44085938 -4 11 C-5 8 -5 8 -3.6875 4.375 C-2 1 -2 1 0 0 Z " fill="#8F6A54" transform="translate(57,211)"/>
<path d="M0 0 C0 0.66 0 1.32 0 2 C-0.93972656 2.09087891 -0.93972656 2.09087891 -1.8984375 2.18359375 C-2.71570313 2.26738281 -3.53296875 2.35117188 -4.375 2.4375 C-5.18710938 2.51871094 -5.99921875 2.59992188 -6.8359375 2.68359375 C-9.04272805 2.89090114 -9.04272805 2.89090114 -11 4 C-10.67 3.01 -10.34 2.02 -10 1 C-6.76421296 -0.31828361 -3.44785988 -0.07836045 0 0 Z " fill="#E1C6B5" transform="translate(250,188)"/>
<path d="M0 0 C0.66 0 1.32 0 2 0 C1.5020163 3.73487777 1.12508244 5.81237635 -1 9 C-1.09765625 2.84765625 -1.09765625 2.84765625 -1 1 C-0.67 0.67 -0.34 0.34 0 0 Z " fill="#CEAF9B" transform="translate(230,263)"/>
<path d="M0 0 C0.33 1.32 0.66 2.64 1 4 C-1.31 4 -3.62 4 -6 4 C-6 3.34 -6 2.68 -6 2 C-4.02 1.34 -2.04 0.68 0 0 Z " fill="#F2E4D1" transform="translate(230,191)"/>
<path d="M0 0 C0.99 0.33 1.98 0.66 3 1 C2.67 2.32 2.34 3.64 2 5 C0.35 4.67 -1.3 4.34 -3 4 C-2.01 2.68 -1.02 1.36 0 0 Z " fill="#C0A490" transform="translate(372,263)"/>
<path d="M0 0 C0.33 0.66 0.66 1.32 1 2 C0.0625 4.625 0.0625 4.625 -1 7 C-1.99 7 -2.98 7 -4 7 C-3.39816251 4.97954558 -2.72693904 2.97888961 -2 1 C-1.34 0.67 -0.68 0.34 0 0 Z " fill="#CBB09C" transform="translate(44,235)"/>
</svg>
